<svg xmlns="http://www.w3.org/2000/svg" width="19.381" height="19.381" viewBox="0 0 19.381 19.381">
  <g id="airplane-shape" transform="translate(0 -0.002)">
    <path id="Path_227" data-name="Path 227" d="M18.107,3.915A5.608,5.608,0,0,0,19.381.954a1.1,1.1,0,0,0-.15-.6.483.483,0,0,0-.088-.113.508.508,0,0,0-.1-.08A1.078,1.078,0,0,0,18.427,0a5.594,5.594,0,0,0-2.959,1.274,25.5,25.5,0,0,0-2.914,2.808q-.3.32-.64.672L9.605,4.064l.007-.007a.518.518,0,0,0,0-.729l-.417-.418a.519.519,0,0,0-.367-.153.51.51,0,0,0-.366.152l-.624.624-.33-.1a.517.517,0,0,0-.041-.682l-.419-.419a.518.518,0,0,0-.367-.151.506.506,0,0,0-.364.152l-.572.572L3.4,2.2a.587.587,0,0,0-.168-.024.622.622,0,0,0-.434.176l-.825.826a.487.487,0,0,0-.145.34.474.474,0,0,0,.252.425L7.012,6.7a.861.861,0,0,1,.12.091L8.539,8.2c-1.316,1.387-2.489,2.73-3.4,3.9-.085.109-.166.214-.246.319l-3.819-.347a.517.517,0,0,0-.066,0,.7.7,0,0,0-.473.2l-.385.385A.478.478,0,0,0,0,12.99a.469.469,0,0,0,.278.432L2.965,14.7a.628.628,0,0,1,.1.074l.223.221a1.63,1.63,0,0,0-.107.517.678.678,0,0,0,.187.5l.01.008,0,0a.68.68,0,0,0,.494.185,1.645,1.645,0,0,0,.512-.107l.226.226a.612.612,0,0,1,.07.1L5.959,19.1a.474.474,0,0,0,.428.282h0a.478.478,0,0,0,.34-.143l.394-.4a.7.7,0,0,0,.188-.472c0-.022,0-.039,0-.048l-.348-3.833c.1-.079.21-.16.319-.245,1.17-.915,2.514-2.089,3.9-3.4l1.408,1.41a.755.755,0,0,1,.092.121L15.432,17.3a.48.48,0,0,0,.768.113l.831-.831a.63.63,0,0,0,.17-.433.594.594,0,0,0-.022-.162l-.7-2.348.572-.573a.518.518,0,0,0,0-.73l-.42-.419a.517.517,0,0,0-.683-.043l-.1-.329.624-.624a.521.521,0,0,0,.151-.366.51.51,0,0,0-.151-.364l-.418-.418a.517.517,0,0,0-.733,0l0,0-.692-2.308c.239-.228.466-.444.682-.649A25.408,25.408,0,0,0,18.107,3.915Z" transform="translate(0 0)" fill="#8ebbd7"/>
  </g>
</svg>
