<svg xmlns="http://www.w3.org/2000/svg" width="882.999" height="55.641" viewBox="0 0 882.999 55.641">
  <g id="arrows-8" transform="translate(-560.001 -2629)">
    <path id="Subtraction_38" data-name="Subtraction 38" d="M-8415,187h0l0,0c-.289-.316-2.9-3.187-5.5-6.717a47.051,47.051,0,0,1-3.781-5.9A12.468,12.468,0,0,1-8426,169a10.932,10.932,0,0,1,3.222-7.778A10.931,10.931,0,0,1-8415,158a10.927,10.927,0,0,1,7.778,3.222A10.932,10.932,0,0,1-8404,169a12.468,12.468,0,0,1-1.719,5.376,47.049,47.049,0,0,1-3.781,5.9c-2.6,3.531-5.207,6.4-5.5,6.717h0Zm0-24a5.006,5.006,0,0,0-5,5,5,5,0,0,0,5,5,5.005,5.005,0,0,0,5-5A5.007,5.007,0,0,0-8415,163Z" transform="translate(9847 2471)" fill="#1fa1af"/>
    <path id="Subtraction_36" data-name="Subtraction 36" d="M-8415,187h0l0,0c-.289-.316-2.9-3.187-5.5-6.717a47.051,47.051,0,0,1-3.781-5.9A12.468,12.468,0,0,1-8426,169a10.932,10.932,0,0,1,3.222-7.778A10.931,10.931,0,0,1-8415,158a10.927,10.927,0,0,1,7.778,3.222A10.932,10.932,0,0,1-8404,169a12.468,12.468,0,0,1-1.719,5.376,47.049,47.049,0,0,1-3.781,5.9c-2.6,3.531-5.207,6.4-5.5,6.717h0Zm0-24a5.006,5.006,0,0,0-5,5,5,5,0,0,0,5,5,5.005,5.005,0,0,0,5-5A5.007,5.007,0,0,0-8415,163Z" transform="translate(8986.002 2471)" fill="#1fa1af"/>
    <path id="Path_290" data-name="Path 290" d="M-15.765-4.744S-17.2-.557-12.515-.554C46.86-.516,393.537,0,406.993,0a21.6,21.6,0,0,1,19.872,12.141A20.387,20.387,0,0,1,445.754,0c12.761.023,334.476-.217,395-.249,6.438,0,3.947-4.9,3.947-4.9" transform="translate(586.994 2671.5)" fill="none" stroke="#1fa1af" stroke-linejoin="round" stroke-width="2"/>
    <path id="Path_291" data-name="Path 291" d="M0,0,5.655,5.655H0Z" transform="translate(575.006 2668.213) rotate(135)" fill="#1fa1af"/>
    <path id="Path_292" data-name="Path 292" d="M0,0,5.655,5.655H0Z" transform="translate(1436.006 2668.213) rotate(135)" fill="#1fa1af"/>
  </g>
</svg>
