<svg xmlns="http://www.w3.org/2000/svg" width="882.999" height="85.641" viewBox="0 0 882.999 85.641">
  <g id="arrows-5" transform="translate(-560.001 -2055)">
    <path id="Subtraction_19" data-name="Subtraction 19" d="M-8415,187h0l0,0c-.289-.316-2.9-3.187-5.5-6.717a47.051,47.051,0,0,1-3.781-5.9A12.468,12.468,0,0,1-8426,169a10.932,10.932,0,0,1,3.222-7.778A10.931,10.931,0,0,1-8415,158a10.927,10.927,0,0,1,7.778,3.222A10.932,10.932,0,0,1-8404,169a12.468,12.468,0,0,1-1.719,5.376,47.049,47.049,0,0,1-3.781,5.9c-2.6,3.531-5.207,6.4-5.5,6.717h0Zm0-24a5.006,5.006,0,0,0-5,5,5,5,0,0,0,5,5,5.005,5.005,0,0,0,5-5A5.007,5.007,0,0,0-8415,163Z" transform="translate(9103 1897)" fill="#d18ed7"/>
    <path id="Subtraction_21" data-name="Subtraction 21" d="M-8415,187h0l0,0c-.289-.316-2.9-3.187-5.5-6.717a47.051,47.051,0,0,1-3.781-5.9A12.468,12.468,0,0,1-8426,169a10.932,10.932,0,0,1,3.222-7.778A10.931,10.931,0,0,1-8415,158a10.927,10.927,0,0,1,7.778,3.222A10.932,10.932,0,0,1-8404,169a12.468,12.468,0,0,1-1.719,5.376,47.049,47.049,0,0,1-3.781,5.9c-2.6,3.531-5.207,6.4-5.5,6.717h0Zm0-24a5.006,5.006,0,0,0-5,5,5,5,0,0,0,5,5,5.005,5.005,0,0,0,5-5A5.007,5.007,0,0,0-8415,163Z" transform="translate(9520 1897)" fill="#d78ea2"/>
    <path id="Subtraction_18" data-name="Subtraction 18" d="M-8415,187h0l0,0c-.289-.316-2.9-3.187-5.5-6.717a47.051,47.051,0,0,1-3.781-5.9A12.468,12.468,0,0,1-8426,169a10.932,10.932,0,0,1,3.222-7.778A10.931,10.931,0,0,1-8415,158a10.927,10.927,0,0,1,7.778,3.222A10.932,10.932,0,0,1-8404,169a12.468,12.468,0,0,1-1.719,5.376,47.049,47.049,0,0,1-3.781,5.9c-2.6,3.531-5.207,6.4-5.5,6.717h0Zm0-24a5.006,5.006,0,0,0-5,5,5,5,0,0,0,5,5,5.005,5.005,0,0,0,5-5A5.007,5.007,0,0,0-8415,163Z" transform="translate(9847 1897)" fill="#1fa1af"/>
    <path id="Subtraction_20" data-name="Subtraction 20" d="M-8415,187h0l0,0c-.289-.316-2.9-3.187-5.5-6.717a47.051,47.051,0,0,1-3.781-5.9A12.468,12.468,0,0,1-8426,169a10.932,10.932,0,0,1,3.222-7.778A10.931,10.931,0,0,1-8415,158a10.927,10.927,0,0,1,7.778,3.222A10.932,10.932,0,0,1-8404,169a12.468,12.468,0,0,1-1.719,5.376,47.049,47.049,0,0,1-3.781,5.9c-2.6,3.531-5.207,6.4-5.5,6.717h0Zm0-24a5.006,5.006,0,0,0-5,5,5,5,0,0,0,5,5,5.005,5.005,0,0,0,5-5A5.007,5.007,0,0,0-8415,163Z" transform="translate(8986.002 1897)" fill="#1fa1af"/>
    <path id="Path_209" data-name="Path 209" d="M-15.533-24.275c.081,1.327-2.989,24.085,21.376,24.1,51.33.038,221.208-.046,232.841-.046,12.756,0,14.5-11.321,14.5-11.321s2.065,11.3,14.3,11.321c11.033.023,397.014.032,449.338,0,13.357-.008,11.615-2.231,11.71-8.652" transform="translate(703.82 2112.5)" fill="none" stroke="#a41faf" stroke-linejoin="round" stroke-width="1" opacity="0.5"/>
    <path id="Path_210" data-name="Path 210" d="M-14.912-11.6c.036,1.327-1.166,11.033,7.373,11.047,22.644.038,154.25.337,159.382.337,5.627,0,9.4-11.321,9.4-11.321s2.911,11.3,8.307,11.321c4.867.023,111.362.026,134.445-.006,7.806-.011,8.587-5.43,8.629-11.85" transform="translate(1119.82 2100.5)" fill="none" stroke="#af1f46" stroke-linejoin="round" stroke-width="1" opacity="0.5"/>
    <path id="Path_197" data-name="Path 197" d="M-15.959-38.5S-16.5-.586,13.891-.566C73.265-.528,393.537,0,406.993,0a21.6,21.6,0,0,1,19.872,12.141A20.387,20.387,0,0,1,445.754,0c12.761.023,332.627-.213,393.151-.245,6.291,0,6.384-8.92,6.384-8.92" transform="translate(586.994 2127.5)" fill="none" stroke="#1fa1af" stroke-linejoin="round" stroke-width="2"/>
    <path id="Path_201" data-name="Path 201" d="M0,0,5.655,5.655H0Z" transform="translate(575.006 2089.213) rotate(135)" fill="#1fa1af"/>
    <path id="Path_213" data-name="Path 213" d="M0,0,5.655,5.655H0Z" transform="translate(692.006 2089.213) rotate(135)" fill="#d18ed7"/>
    <path id="Path_196" data-name="Path 196" d="M0,0,5.655,5.655H0Z" transform="translate(1436.006 2089.213) rotate(135)" fill="#d78ea2"/>
    <path id="Path_214" data-name="Path 214" d="M0,0,5.655,5.655H0Z" transform="translate(1109.006 2089.213) rotate(135)" fill="#d78ea2"/>
    <path id="Path_211" data-name="Path 211" d="M0,0,5.655,5.655H0Z" transform="translate(1436.006 2105.213) rotate(135)" fill="#d18ed7"/>
    <path id="Path_212" data-name="Path 212" d="M0,0,5.655,5.655H0Z" transform="translate(1436.006 2119.213) rotate(135)" fill="#1fa1af"/>
  </g>
</svg>
