<svg xmlns="http://www.w3.org/2000/svg" width="882.999" height="118.501" viewBox="0 0 882.999 118.501">
  <g id="arrows-7" transform="translate(-560.001 -2437)">
    <path id="Subtraction_30" data-name="Subtraction 30" d="M-8415,187h0l0,0c-.289-.316-2.9-3.187-5.5-6.717a47.051,47.051,0,0,1-3.781-5.9A12.468,12.468,0,0,1-8426,169a10.932,10.932,0,0,1,3.222-7.778A10.931,10.931,0,0,1-8415,158a10.927,10.927,0,0,1,7.778,3.222A10.932,10.932,0,0,1-8404,169a12.468,12.468,0,0,1-1.719,5.376,47.049,47.049,0,0,1-3.781,5.9c-2.6,3.531-5.207,6.4-5.5,6.717h0Zm0-24a5.006,5.006,0,0,0-5,5,5,5,0,0,0,5,5,5.005,5.005,0,0,0,5-5A5.007,5.007,0,0,0-8415,163Z" transform="translate(9315 2279)" fill="#d78eb5"/>
    <path id="Subtraction_31" data-name="Subtraction 31" d="M-8415,187h0l0,0c-.289-.316-2.9-3.187-5.5-6.717a47.051,47.051,0,0,1-3.781-5.9A12.468,12.468,0,0,1-8426,169a10.932,10.932,0,0,1,3.222-7.778A10.931,10.931,0,0,1-8415,158a10.927,10.927,0,0,1,7.778,3.222A10.932,10.932,0,0,1-8404,169a12.468,12.468,0,0,1-1.719,5.376,47.049,47.049,0,0,1-3.781,5.9c-2.6,3.531-5.207,6.4-5.5,6.717h0Zm0-24a5.006,5.006,0,0,0-5,5,5,5,0,0,0,5,5,5.005,5.005,0,0,0,5-5A5.007,5.007,0,0,0-8415,163Z" transform="translate(9427 2279)" fill="#d18ed7"/>
    <path id="Subtraction_32" data-name="Subtraction 32" d="M-8415,187h0l0,0c-.289-.316-2.9-3.187-5.5-6.717a47.051,47.051,0,0,1-3.781-5.9A12.468,12.468,0,0,1-8426,169a10.932,10.932,0,0,1,3.222-7.778A10.931,10.931,0,0,1-8415,158a10.927,10.927,0,0,1,7.778,3.222A10.932,10.932,0,0,1-8404,169a12.468,12.468,0,0,1-1.719,5.376,47.049,47.049,0,0,1-3.781,5.9c-2.6,3.531-5.207,6.4-5.5,6.717h0Zm0-24a5.006,5.006,0,0,0-5,5,5,5,0,0,0,5,5,5.005,5.005,0,0,0,5-5A5.007,5.007,0,0,0-8415,163Z" transform="translate(9560 2279)" fill="#8e99d7"/>
    <path id="Subtraction_33" data-name="Subtraction 33" d="M-8415,187h0l0,0c-.289-.316-2.9-3.187-5.5-6.717a47.051,47.051,0,0,1-3.781-5.9A12.468,12.468,0,0,1-8426,169a10.932,10.932,0,0,1,3.222-7.778A10.931,10.931,0,0,1-8415,158a10.927,10.927,0,0,1,7.778,3.222A10.932,10.932,0,0,1-8404,169a12.468,12.468,0,0,1-1.719,5.376,47.049,47.049,0,0,1-3.781,5.9c-2.6,3.531-5.207,6.4-5.5,6.717h0Zm0-24a5.006,5.006,0,0,0-5,5,5,5,0,0,0,5,5,5.005,5.005,0,0,0,5-5A5.007,5.007,0,0,0-8415,163Z" transform="translate(9847 2279)" fill="#1fa1af"/>
    <path id="Subtraction_29" data-name="Subtraction 29" d="M-8415,187h0l0,0c-.289-.316-2.9-3.187-5.5-6.717a47.051,47.051,0,0,1-3.781-5.9A12.468,12.468,0,0,1-8426,169a10.932,10.932,0,0,1,3.222-7.778A10.931,10.931,0,0,1-8415,158a10.927,10.927,0,0,1,7.778,3.222A10.932,10.932,0,0,1-8404,169a12.468,12.468,0,0,1-1.719,5.376,47.049,47.049,0,0,1-3.781,5.9c-2.6,3.531-5.207,6.4-5.5,6.717h0Zm0-24a5.006,5.006,0,0,0-5,5,5,5,0,0,0,5,5,5.005,5.005,0,0,0,5-5A5.007,5.007,0,0,0-8415,163Z" transform="translate(8986.002 2279)" fill="#1fa1af"/>
    <path id="Path_255" data-name="Path 255" d="M-15.544-28.246c0,1.371-4.676,25.928,24.044,25.706C31.114-2.5,232.777,0,237.9,0c11.312-.685,11.841-11.321,11.841-11.321S252.8-.23,260.972,0c4.86.023,14.436.032,37.488,0,17.265-.024,14.659-26.149,14.659-26.149" transform="translate(586.994 2499.5)" fill="none" stroke="#af1f6d" stroke-linejoin="round" stroke-width="1" opacity="0.5"/>
    <path id="Path_253" data-name="Path 253" d="M-16.043-10.275C-16.037-8.9-16.075-.807-1.549-.789,28.808-.75,346.968,0,353.848,0c15.185-.685,12.9-11.321,12.9-11.321S366.846-.23,377.817,0c6.525.023-2.621.032,28.323,0,23.177-.024,19.1-40.141,19.1-40.141" transform="translate(586.994 2513.5)" fill="none" stroke="#a41faf" stroke-linejoin="round" stroke-width="1" opacity="0.5"/>
    <path id="Path_251" data-name="Path 251" d="M-16.043-10.275C-16.035-8.9-16.084-.807,2.8-.789,42.266-.75,469.9,0,478.842,0c12.146-.845,11.765-11.321,11.765-11.321S490.616-.233,501,0c8.482.023-8.408.032,31.822,0,30.131-.024,25.463-54.016,25.463-54.016" transform="translate(586.994 2527.5)" fill="none" stroke="#1f35af" stroke-linejoin="round" stroke-width="1" opacity="0.5"/>
    <path id="Path_249" data-name="Path 249" d="M-16.043-10.275C-16.033-8.9-16.1-.807,8.335-.789,59.393-.75,616.625,0,628.2,0c15.713-.845,14.22-11.321,14.22-11.321S642.429-.233,655.868,0c10.974.023-13.878.032,38.168,0,38.981-.024,32.887-67.889,32.887-67.889" transform="translate(586.994 2541.5)" fill="none" stroke="#1f78af" stroke-linejoin="round" stroke-width="1" opacity="0.5"/>
    <path id="Path_247" data-name="Path 247" d="M-16.043-10.275C-16.031-8.9-16.1-.807,12.2-.789,71.341-.75,750.211,0,763.615,0c14.734-.218,13.1-11.321,13.1-11.321S777.159.078,788.909,0c6.063-.029,10.789.051,17.6,0,46.874-.35,38.646-81.379,38.646-81.379" transform="translate(586.994 2554.5)" fill="none" stroke="#1fa1af" stroke-linejoin="round" stroke-width="2"/>
    <path id="Path_256" data-name="Path 256" d="M0,0,5.655,5.655H0Z" transform="translate(575.006 2473.213) rotate(135)" fill="#d78eb5"/>
    <path id="Path_254" data-name="Path 254" d="M0,0,5.655,5.655H0Z" transform="translate(575.006 2504.213) rotate(135)" fill="#d18ed7"/>
    <path id="Path_252" data-name="Path 252" d="M0,0,5.655,5.655H0Z" transform="translate(575.006 2518.213) rotate(135)" fill="#8e99d7"/>
    <path id="Path_250" data-name="Path 250" d="M0,0,5.655,5.655H0Z" transform="translate(575.006 2532.213) rotate(135)" fill="#8ebbd7"/>
    <path id="Path_248" data-name="Path 248" d="M0,0,5.655,5.655H0Z" transform="translate(575.006 2546.213) rotate(135)" fill="#1fa1af"/>
    <path id="Path_263" data-name="Path 263" d="M0,0,5.655,5.655H0Z" transform="translate(904.006 2474.213) rotate(135)" fill="#d78eb5"/>
    <path id="Path_265" data-name="Path 265" d="M0,0,5.655,5.655H0Z" transform="translate(1016.006 2474.213) rotate(135)" fill="#d18ed7"/>
    <path id="Path_267" data-name="Path 267" d="M0,0,5.655,5.655H0Z" transform="translate(1149.006 2474.213) rotate(135)" fill="#8e99d7"/>
    <path id="Path_268" data-name="Path 268" d="M0,0,5.655,5.655H0Z" transform="translate(1318.006 2474.213) rotate(135)" fill="#8ebbd7"/>
    <path id="Path_270" data-name="Path 270" d="M0,0,5.655,5.655H0Z" transform="translate(1436.006 2474.213) rotate(135)" fill="#1fa1af"/>
    <g id="airplane-shape" transform="translate(1304.619 2444.998)">
      <path id="Path_227" data-name="Path 227" d="M18.107,3.915A5.608,5.608,0,0,0,19.381.954a1.1,1.1,0,0,0-.15-.6.483.483,0,0,0-.088-.113.508.508,0,0,0-.1-.08A1.078,1.078,0,0,0,18.427,0a5.594,5.594,0,0,0-2.959,1.274,25.5,25.5,0,0,0-2.914,2.808q-.3.32-.64.672L9.605,4.064l.007-.007a.518.518,0,0,0,0-.729l-.417-.418a.519.519,0,0,0-.367-.153.51.51,0,0,0-.366.152l-.624.624-.33-.1a.517.517,0,0,0-.041-.682l-.419-.419a.518.518,0,0,0-.367-.151.506.506,0,0,0-.364.152l-.572.572L3.4,2.2a.587.587,0,0,0-.168-.024.622.622,0,0,0-.434.176l-.825.826a.487.487,0,0,0-.145.34.474.474,0,0,0,.252.425L7.012,6.7a.861.861,0,0,1,.12.091L8.539,8.2c-1.316,1.387-2.489,2.73-3.4,3.9-.085.109-.166.214-.246.319l-3.819-.347a.517.517,0,0,0-.066,0,.7.7,0,0,0-.473.2l-.385.385A.478.478,0,0,0,0,12.99a.469.469,0,0,0,.278.432L2.965,14.7a.628.628,0,0,1,.1.074l.223.221a1.63,1.63,0,0,0-.107.517.678.678,0,0,0,.187.5l.01.008,0,0a.68.68,0,0,0,.494.185,1.645,1.645,0,0,0,.512-.107l.226.226a.612.612,0,0,1,.07.1L5.959,19.1a.474.474,0,0,0,.428.282h0a.478.478,0,0,0,.34-.143l.394-.4a.7.7,0,0,0,.188-.472c0-.022,0-.039,0-.048l-.348-3.833c.1-.079.21-.16.319-.245,1.17-.915,2.514-2.089,3.9-3.4l1.408,1.41a.755.755,0,0,1,.092.121L15.432,17.3a.48.48,0,0,0,.768.113l.831-.831a.63.63,0,0,0,.17-.433.594.594,0,0,0-.022-.162l-.7-2.348.572-.573a.518.518,0,0,0,0-.73l-.42-.419a.517.517,0,0,0-.683-.043l-.1-.329.624-.624a.521.521,0,0,0,.151-.366.51.51,0,0,0-.151-.364l-.418-.418a.517.517,0,0,0-.733,0l0,0-.692-2.308c.239-.228.466-.444.682-.649A25.408,25.408,0,0,0,18.107,3.915Z" transform="translate(0 0)" fill="#8ebbd7"/>
    </g>
  </g>
</svg>
