<svg xmlns="http://www.w3.org/2000/svg" width="966" height="43.5" viewBox="0 0 966 43.5">
  <g id="arrows-10" transform="translate(-477.001 -5076)">
    <path id="Subtraction_45" data-name="Subtraction 45" d="M11,29h0l0,0c-.289-.316-2.9-3.187-5.5-6.717a47.051,47.051,0,0,1-3.781-5.9A12.468,12.468,0,0,1,0,11,11,11,0,0,1,18.779,3.222,10.932,10.932,0,0,1,22,11a12.468,12.468,0,0,1-1.719,5.376,47.049,47.049,0,0,1-3.781,5.9c-2.6,3.531-5.207,6.4-5.5,6.717h0ZM11,5a5,5,0,1,0,5,5A5.006,5.006,0,0,0,11,5Z" transform="translate(1421 5076)" fill="#1fa1af"/>
    <path id="Subtraction_46" data-name="Subtraction 46" d="M11,29h0l0,0c-.289-.316-2.9-3.187-5.5-6.717a47.051,47.051,0,0,1-3.781-5.9A12.468,12.468,0,0,1,0,11,11,11,0,0,1,18.779,3.222,10.932,10.932,0,0,1,22,11a12.468,12.468,0,0,1-1.719,5.376,47.049,47.049,0,0,1-3.781,5.9c-2.6,3.531-5.207,6.4-5.5,6.717h0ZM11,5a5,5,0,1,0,5,5A5.006,5.006,0,0,0,11,5Z" transform="translate(477.001 5076)" fill="#1fa1af"/>
    <path id="Path_335" data-name="Path 335" d="M-15.745-4.744s-1.575,4.187,3.563,4.19C52.916-.516,433.007,0,447.76,0c16.177,0,21.246-16.631,21.246-16.631S474.745-.025,490.257,0c13.991.023,366.714-.217,433.071-.249,7.058,0,4.328-4.9,4.328-4.9" transform="translate(503.994 5118.5)" fill="none" stroke="#1fa1af" stroke-linejoin="round" stroke-width="2"/>
    <path id="Path_336" data-name="Path 336" d="M0,0,5.655,5.655H0Z" transform="translate(492.006 5115.213) rotate(135)" fill="#1fa1af"/>
    <path id="Path_337" data-name="Path 337" d="M0,0,5.655,5.655H0Z" transform="translate(1436.007 5115.213) rotate(135)" fill="#1fa1af"/>
  </g>
</svg>
