<svg xmlns="http://www.w3.org/2000/svg" width="882.999" height="50.641" viewBox="0 0 882.999 50.641">
  <g id="arrows-1" transform="translate(-560.001 -1238)">
    <path id="Subtraction_4" data-name="Subtraction 4" d="M-8415,187h0l0,0c-.289-.316-2.9-3.187-5.5-6.717a47.051,47.051,0,0,1-3.781-5.9A12.468,12.468,0,0,1-8426,169a10.932,10.932,0,0,1,3.222-7.778A10.931,10.931,0,0,1-8415,158a10.927,10.927,0,0,1,7.778,3.222A10.932,10.932,0,0,1-8404,169a12.468,12.468,0,0,1-1.719,5.376,47.049,47.049,0,0,1-3.781,5.9c-2.6,3.531-5.207,6.4-5.5,6.717h0Zm0-24a5.006,5.006,0,0,0-5,5,5,5,0,0,0,5,5,5.005,5.005,0,0,0,5-5A5.007,5.007,0,0,0-8415,163Z" transform="translate(9847 1080)" fill="#1fa1af"/>
    <g id="Group_173" data-name="Group 173">
      <path id="Subtraction_2" data-name="Subtraction 2" d="M-8415,187h0l0,0c-.289-.316-2.9-3.187-5.5-6.717a47.051,47.051,0,0,1-3.781-5.9A12.468,12.468,0,0,1-8426,169a10.932,10.932,0,0,1,3.222-7.778A10.931,10.931,0,0,1-8415,158a10.927,10.927,0,0,1,7.778,3.222A10.932,10.932,0,0,1-8404,169a12.468,12.468,0,0,1-1.719,5.376,47.049,47.049,0,0,1-3.781,5.9c-2.6,3.531-5.207,6.4-5.5,6.717h0Zm0-24a5.006,5.006,0,0,0-5,5,5,5,0,0,0,5,5,5.005,5.005,0,0,0,5-5A5.007,5.007,0,0,0-8415,163Z" transform="translate(9567 1083)" fill="#d78ea2"/>
      <path id="Subtraction_3" data-name="Subtraction 3" d="M-8415,187h0l0,0c-.289-.316-2.9-3.187-5.5-6.717a47.051,47.051,0,0,1-3.781-5.9A12.468,12.468,0,0,1-8426,169a10.932,10.932,0,0,1,3.222-7.778A10.931,10.931,0,0,1-8415,158a10.927,10.927,0,0,1,7.778,3.222A10.932,10.932,0,0,1-8404,169a12.468,12.468,0,0,1-1.719,5.376,47.049,47.049,0,0,1-3.781,5.9c-2.6,3.531-5.207,6.4-5.5,6.717h0Zm0-24a5.006,5.006,0,0,0-5,5,5,5,0,0,0,5,5,5.005,5.005,0,0,0,5-5A5.007,5.007,0,0,0-8415,163Z" transform="translate(8986.002 1080)" fill="#1fa1af"/>
      <path id="Path_129" data-name="Path 129" d="M-15.765-4.744S-17.2-.557-12.515-.554C46.86-.516,393.537,0,406.993,0a21.6,21.6,0,0,1,19.872,12.141A20.387,20.387,0,0,1,445.754,0c12.761.023,334.476-.217,395-.249,6.438,0,3.947-4.9,3.947-4.9" transform="translate(586.994 1275.5)" fill="none" stroke="#1fa1af" stroke-linejoin="round" stroke-width="2"/>
      <path id="Path_132" data-name="Path 132" d="M0,12.5H272.675C282.56,12.5,285.989,0,285.989,0s3.176,12.526,12.655,12.5,255.362,0,255.362,0" transform="translate(586.994 1253)" fill="none" stroke="#af1f46" stroke-linejoin="round" stroke-width="1" opacity="0.5"/>
      <path id="Path_133" data-name="Path 133" d="M0,12.5H120.793c8.116,0,9.814-12.5,9.814-12.5s2.46,12.546,10.155,12.5,112.244,0,112.244,0" transform="translate(1163 1253)" fill="none" stroke="#a41faf" stroke-linejoin="round" stroke-width="1" opacity="0.5"/>
    </g>
    <path id="Path_136" data-name="Path 136" d="M0,0,4.937,4.937H0Z" transform="translate(587.5 1261.722) rotate(45)" fill="#d78ea2"/>
    <path id="Path_140" data-name="Path 140" d="M0,0,5.655,5.655H0Z" transform="translate(575.006 1272.213) rotate(135)" fill="#1fa1af"/>
    <path id="Path_141" data-name="Path 141" d="M0,0,5.655,5.655H0Z" transform="translate(1436.006 1272.213) rotate(135)" fill="#1fa1af"/>
    <path id="Path_137" data-name="Path 137" d="M0,0,4.937,4.937H0Z" transform="translate(1138.5 1268.704) rotate(-135)" fill="#d78ea2"/>
    <path id="Path_138" data-name="Path 138" d="M0,0,4.937,4.937H0Z" transform="translate(1163.5 1261.722) rotate(45)" fill="#d18ed7"/>
    <path id="Path_139" data-name="Path 139" d="M0,0,4.937,4.937H0Z" transform="translate(1415.5 1268.704) rotate(-135)" fill="#d18ed7"/>
  </g>
</svg>
