<svg xmlns="http://www.w3.org/2000/svg" width="882.999" height="50.641" viewBox="0 0 882.999 50.641">
  <g id="arrows-2" transform="translate(-560.001 -1388)">
    <path id="Subtraction_6" data-name="Subtraction 6" d="M-8415,187h0l0,0c-.289-.316-2.9-3.187-5.5-6.717a47.051,47.051,0,0,1-3.781-5.9A12.468,12.468,0,0,1-8426,169a10.932,10.932,0,0,1,3.222-7.778A10.931,10.931,0,0,1-8415,158a10.927,10.927,0,0,1,7.778,3.222A10.932,10.932,0,0,1-8404,169a12.468,12.468,0,0,1-1.719,5.376,47.049,47.049,0,0,1-3.781,5.9c-2.6,3.531-5.207,6.4-5.5,6.717h0Zm0-24a5.006,5.006,0,0,0-5,5,5,5,0,0,0,5,5,5.005,5.005,0,0,0,5-5A5.007,5.007,0,0,0-8415,163Z" transform="translate(9153 1233)" fill="#d18ed7"/>
    <path id="Subtraction_7" data-name="Subtraction 7" d="M-8415,187h0l0,0c-.289-.316-2.9-3.187-5.5-6.717a47.051,47.051,0,0,1-3.781-5.9A12.468,12.468,0,0,1-8426,169a10.932,10.932,0,0,1,3.222-7.778A10.931,10.931,0,0,1-8415,158a10.927,10.927,0,0,1,7.778,3.222A10.932,10.932,0,0,1-8404,169a12.468,12.468,0,0,1-1.719,5.376,47.049,47.049,0,0,1-3.781,5.9c-2.6,3.531-5.207,6.4-5.5,6.717h0Zm0-24a5.006,5.006,0,0,0-5,5,5,5,0,0,0,5,5,5.005,5.005,0,0,0,5-5A5.007,5.007,0,0,0-8415,163Z" transform="translate(9847 1230)" fill="#1fa1af"/>
    <path id="Subtraction_5" data-name="Subtraction 5" d="M-8415,187h0l0,0c-.289-.316-2.9-3.187-5.5-6.717a47.051,47.051,0,0,1-3.781-5.9A12.468,12.468,0,0,1-8426,169a10.932,10.932,0,0,1,3.222-7.778A10.931,10.931,0,0,1-8415,158a10.927,10.927,0,0,1,7.778,3.222A10.932,10.932,0,0,1-8404,169a12.468,12.468,0,0,1-1.719,5.376,47.049,47.049,0,0,1-3.781,5.9c-2.6,3.531-5.207,6.4-5.5,6.717h0Zm0-24a5.006,5.006,0,0,0-5,5,5,5,0,0,0,5,5,5.005,5.005,0,0,0,5-5A5.007,5.007,0,0,0-8415,163Z" transform="translate(8986.002 1230)" fill="#1fa1af"/>
    <path id="Path_142" data-name="Path 142" d="M-15.765-4.744S-17.2-.557-12.515-.554C46.86-.516,393.537,0,406.993,0a21.6,21.6,0,0,1,19.872,12.141A20.387,20.387,0,0,1,445.754,0c12.761.023,334.476-.217,395-.249,6.438,0,3.947-4.9,3.947-4.9" transform="translate(586.994 1425.5)" fill="none" stroke="#1fa1af" stroke-linejoin="round" stroke-width="2"/>
    <path id="Path_149" data-name="Path 149" d="M0,12.5H314.153C335.261,12.5,339.675,0,339.675,0s6.4,12.546,26.411,12.5,291.919,0,291.919,0" transform="translate(758 1403)" fill="none" stroke="#a41faf" stroke-linejoin="round" stroke-width="1" opacity="0.5"/>
    <path id="Path_143" data-name="Path 143" d="M0,0,5.655,5.655H0Z" transform="translate(575.006 1422.213) rotate(135)" fill="#1fa1af"/>
    <path id="Path_153" data-name="Path 153" d="M0,0,5.655,5.655H0Z" transform="translate(1436.006 1422.213) rotate(135)" fill="#1fa1af"/>
    <path id="Path_150" data-name="Path 150" d="M0,0,4.937,4.937H0Z" transform="translate(758.5 1411.722) rotate(45)" fill="#d18ed7"/>
    <path id="Path_151" data-name="Path 151" d="M0,0,4.937,4.937H0Z" transform="translate(1415.5 1418.704) rotate(-135)" fill="#d18ed7"/>
  </g>
</svg>
