<svg xmlns="http://www.w3.org/2000/svg" width="966" height="104.501" viewBox="0 0 966 104.501">
  <g id="n23" transform="translate(-477 -5257)">
    <path id="Subtraction_39" data-name="Subtraction 39" d="M11,29h0l0,0c-.289-.316-2.9-3.187-5.5-6.717a47.051,47.051,0,0,1-3.781-5.9A12.468,12.468,0,0,1,0,11,11,11,0,0,1,18.779,3.222,10.932,10.932,0,0,1,22,11a12.468,12.468,0,0,1-1.719,5.376,47.049,47.049,0,0,1-3.781,5.9c-2.6,3.531-5.207,6.4-5.5,6.717h0ZM11,5a5,5,0,1,0,5,5A5.006,5.006,0,0,0,11,5Z" transform="translate(699.567 5257)" fill="#d78ea2"/>
    <path id="Subtraction_40" data-name="Subtraction 40" d="M11,29h0l0,0c-.289-.316-2.9-3.187-5.5-6.717a47.051,47.051,0,0,1-3.781-5.9A12.468,12.468,0,0,1,0,11,11,11,0,0,1,18.779,3.222,10.932,10.932,0,0,1,22,11a12.468,12.468,0,0,1-1.719,5.376,47.049,47.049,0,0,1-3.781,5.9c-2.6,3.531-5.207,6.4-5.5,6.717h0ZM11,5a5,5,0,1,0,5,5A5.006,5.006,0,0,0,11,5Z" transform="translate(837.714 5257)" fill="#d78eb5"/>
    <path id="Subtraction_41" data-name="Subtraction 41" d="M11,29h0l0,0c-.289-.316-2.9-3.187-5.5-6.717a47.051,47.051,0,0,1-3.781-5.9A12.468,12.468,0,0,1,0,11,11,11,0,0,1,18.779,3.222,10.932,10.932,0,0,1,22,11a12.468,12.468,0,0,1-1.719,5.376,47.049,47.049,0,0,1-3.781,5.9c-2.6,3.531-5.207,6.4-5.5,6.717h0ZM11,5a5,5,0,1,0,5,5A5.006,5.006,0,0,0,11,5Z" transform="translate(960.511 5257)" fill="#d18ed7"/>
    <path id="Subtraction_42" data-name="Subtraction 42" d="M11,29h0l0,0c-.289-.316-2.9-3.187-5.5-6.717a47.051,47.051,0,0,1-3.781-5.9A12.468,12.468,0,0,1,0,11,11,11,0,0,1,18.779,3.222,10.932,10.932,0,0,1,22,11a12.468,12.468,0,0,1-1.719,5.376,47.049,47.049,0,0,1-3.781,5.9c-2.6,3.531-5.207,6.4-5.5,6.717h0ZM11,5a5,5,0,1,0,5,5A5.006,5.006,0,0,0,11,5Z" transform="translate(1267.936 5257)" fill="#8e99d7"/>
    <path id="Subtraction_43" data-name="Subtraction 43" d="M11,29h0l0,0c-.289-.316-2.9-3.187-5.5-6.717a47.051,47.051,0,0,1-3.781-5.9A12.468,12.468,0,0,1,0,11,11,11,0,0,1,18.779,3.222,10.932,10.932,0,0,1,22,11a12.468,12.468,0,0,1-1.719,5.376,47.049,47.049,0,0,1-3.781,5.9c-2.6,3.531-5.207,6.4-5.5,6.717h0ZM11,5a5,5,0,1,0,5,5A5.006,5.006,0,0,0,11,5Z" transform="translate(1420.999 5257)" fill="#1fa1af"/>
    <path id="Subtraction_44" data-name="Subtraction 44" d="M11,29h0l0,0c-.289-.316-2.9-3.187-5.5-6.717a47.051,47.051,0,0,1-3.781-5.9A12.468,12.468,0,0,1,0,11,11,11,0,0,1,18.779,3.222,10.932,10.932,0,0,1,22,11a12.468,12.468,0,0,1-1.719,5.376,47.049,47.049,0,0,1-3.781,5.9c-2.6,3.531-5.207,6.4-5.5,6.717h0ZM11,5a5,5,0,1,0,5,5A5.006,5.006,0,0,0,11,5Z" transform="translate(477 5257)" fill="#1fa1af"/>
    <path id="Path_315" data-name="Path 315" d="M-16.043-10.275c0,1.371-.016,9.468,7.317,9.486C6.6-.75,83.446,0,86.919,0,94.584-.685,96.3-11.321,96.3-11.321S99.724-.23,105.262,0c3.294.023,76.19.032,91.81,0,11.7-.024,9.738-10.337,9.738-10.337" transform="translate(503.993 5303.5)" fill="none" stroke="#af1f46" stroke-linejoin="round" stroke-width="1" opacity="0.5"/>
    <path id="Path_316" data-name="Path 316" d="M-16.043-10.275C-16.038-8.9-16.069-.807-4.209-.789,20.577-.75,256.674,0,262.291,0c12.4-.685,12.978-11.321,12.978-11.321S278.62-.23,287.577,0C292.9.023,303.4.032,328.666,0c18.924-.024,16.067-26.149,16.067-26.149" transform="translate(503.993 5319.5)" fill="none" stroke="#af1f6d" stroke-linejoin="round" stroke-width="1" opacity="0.5"/>
    <path id="Path_317" data-name="Path 317" d="M-16.043-10.275C-16.036-8.9-16.078-.807-.17-.789,33.074-.75,381.494,0,389.028,0c16.63-.685,14.122-11.321,14.122-11.321S403.262-.23,415.277,0c7.145.023-2.871.032,31.017,0,25.381-.024,20.914-40.141,20.914-40.141" transform="translate(503.993 5333.5)" fill="none" stroke="#a41faf" stroke-linejoin="round" stroke-width="1" opacity="0.5"/>
    <path id="Path_318" data-name="Path 318" d="M-16.043-10.275C-16.032-8.9-16.1-.807,9.9-.789,64.226-.75,652.905,0,665.218,0c16.72-.845,16.2-11.321,16.2-11.321S681.427-.233,695.726,0c11.677.023-11.575.032,43.806,0,41.479-.024,35.052-54.016,35.052-54.016" transform="translate(503.993 5347.5)" fill="none" stroke="#1f35af" stroke-linejoin="round" stroke-width="1" opacity="0.5"/>
    <path id="Path_320" data-name="Path 320" d="M-16.043-10.275C-16.03-8.9-16.111-.807,14.918-.789,79.762-.75,824.051,0,838.747,0c16.154-.218,14.36-11.321,14.36-11.321S853.6.078,866.479,0c6.648-.029,11.829.051,19.3,0,45.759-.312,42.447-67.562,42.447-67.562" transform="translate(503.993 5360.5)" fill="none" stroke="#1fa1af" stroke-linejoin="round" stroke-width="2"/>
    <path id="Path_321" data-name="Path 321" d="M0,0,5.655,5.655H0Z" transform="translate(492.005 5294.213) rotate(135)" fill="#d78ea2"/>
    <path id="Path_322" data-name="Path 322" d="M0,0,5.655,5.655H0Z" transform="translate(492.005 5310.213) rotate(135)" fill="#d78eb5"/>
    <path id="Path_323" data-name="Path 323" d="M0,0,5.655,5.655H0Z" transform="translate(492.005 5324.213) rotate(135)" fill="#d18ed7"/>
    <path id="Path_324" data-name="Path 324" d="M0,0,5.655,5.655H0Z" transform="translate(492.005 5338.213) rotate(135)" fill="#8e99d7"/>
    <path id="Path_326" data-name="Path 326" d="M0,0,5.655,5.655H0Z" transform="translate(492.005 5352.213) rotate(135)" fill="#1fa1af"/>
    <path id="Path_327" data-name="Path 327" d="M0,0,5.655,5.655H0Z" transform="translate(714.926 5294.213) rotate(135)" fill="#d78ea2"/>
    <path id="Path_328" data-name="Path 328" d="M0,0,5.655,5.655H0Z" transform="translate(852.878 5294.213) rotate(135)" fill="#d78eb5"/>
    <path id="Path_329" data-name="Path 329" d="M0,0,5.655,5.655H0Z" transform="translate(975.502 5294.213) rotate(135)" fill="#d18ed7"/>
    <path id="Path_330" data-name="Path 330" d="M0,0,5.655,5.655H0Z" transform="translate(1282.552 5294.213) rotate(135)" fill="#8e99d7"/>
    <path id="Path_332" data-name="Path 332" d="M0,0,5.655,5.655H0Z" transform="translate(1436.006 5294.213) rotate(135)" fill="#1fa1af"/>
  </g>
</svg>
