<svg xmlns="http://www.w3.org/2000/svg" width="882.999" height="60.5" viewBox="0 0 882.999 60.5">
  <g id="arrows-4" transform="translate(-560.001 -1857)">
    <path id="Subtraction_14" data-name="Subtraction 14" d="M-8415,187h0l0,0c-.289-.316-2.9-3.187-5.5-6.717a47.051,47.051,0,0,1-3.781-5.9A12.468,12.468,0,0,1-8426,169a10.932,10.932,0,0,1,3.222-7.778A10.931,10.931,0,0,1-8415,158a10.927,10.927,0,0,1,7.778,3.222A10.932,10.932,0,0,1-8404,169a12.468,12.468,0,0,1-1.719,5.376,47.049,47.049,0,0,1-3.781,5.9c-2.6,3.531-5.207,6.4-5.5,6.717h0Zm0-24a5.006,5.006,0,0,0-5,5,5,5,0,0,0,5,5,5.005,5.005,0,0,0,5-5A5.007,5.007,0,0,0-8415,163Z" transform="translate(9363 1702)" fill="#d78ea2"/>
    <path id="Subtraction_17" data-name="Subtraction 17" d="M-8415,187h0l0,0c-.289-.316-2.9-3.187-5.5-6.717a47.051,47.051,0,0,1-3.781-5.9A12.468,12.468,0,0,1-8426,169a10.932,10.932,0,0,1,3.222-7.778A10.931,10.931,0,0,1-8415,158a10.927,10.927,0,0,1,7.778,3.222A10.932,10.932,0,0,1-8404,169a12.468,12.468,0,0,1-1.719,5.376,47.049,47.049,0,0,1-3.781,5.9c-2.6,3.531-5.207,6.4-5.5,6.717h0Zm0-24a5.006,5.006,0,0,0-5,5,5,5,0,0,0,5,5,5.005,5.005,0,0,0,5-5A5.007,5.007,0,0,0-8415,163Z" transform="translate(9616 1702)" fill="#d18ed7"/>
    <path id="Subtraction_15" data-name="Subtraction 15" d="M-8415,187h0l0,0c-.289-.316-2.9-3.187-5.5-6.717a47.051,47.051,0,0,1-3.781-5.9A12.468,12.468,0,0,1-8426,169a10.932,10.932,0,0,1,3.222-7.778A10.931,10.931,0,0,1-8415,158a10.927,10.927,0,0,1,7.778,3.222A10.932,10.932,0,0,1-8404,169a12.468,12.468,0,0,1-1.719,5.376,47.049,47.049,0,0,1-3.781,5.9c-2.6,3.531-5.207,6.4-5.5,6.717h0Zm0-24a5.006,5.006,0,0,0-5,5,5,5,0,0,0,5,5,5.005,5.005,0,0,0,5-5A5.007,5.007,0,0,0-8415,163Z" transform="translate(9847 1699)" fill="#1fa1af"/>
    <path id="Subtraction_16" data-name="Subtraction 16" d="M-8415,187h0l0,0c-.289-.316-2.9-3.187-5.5-6.717a47.051,47.051,0,0,1-3.781-5.9A12.468,12.468,0,0,1-8426,169a10.932,10.932,0,0,1,3.222-7.778A10.931,10.931,0,0,1-8415,158a10.927,10.927,0,0,1,7.778,3.222A10.932,10.932,0,0,1-8404,169a12.468,12.468,0,0,1-1.719,5.376,47.049,47.049,0,0,1-3.781,5.9c-2.6,3.531-5.207,6.4-5.5,6.717h0Zm0-24a5.006,5.006,0,0,0-5,5,5,5,0,0,0,5,5,5.005,5.005,0,0,0,5-5A5.007,5.007,0,0,0-8415,163Z" transform="translate(8986.002 1699)" fill="#1fa1af"/>
    <path id="Path_172" data-name="Path 172" d="M-15.881-4.744c.005,1.371-.252,4.264,3.423,4.19C13.533-.516,195.3,0,201.186,0c6.459,0,10.336-11.321,10.336-11.321S214.961-.025,221.154,0c5.586.023,111.421-.217,137.916-.249,2.818,0,1.728-4.9,1.728-4.9" transform="translate(586.994 1897.5)" fill="none" stroke="#af1f46" stroke-linejoin="round" stroke-width="1" opacity="0.5"/>
    <path id="Path_185" data-name="Path 185" d="M-15.82-4.744a4.255,4.255,0,0,0,4.378,4.19C31.993-.516,442.083,0,451.927,0,462.72,0,464.2-11.321,464.2-11.321S465.946-.025,476.3,0c9.336.023,83.567-.185,127.844-.217,11.3-.008,10.086-9.118,10.166-15.538" transform="translate(586.994 1906.5)" fill="none" stroke="#a41faf" stroke-linejoin="round" stroke-width="1" opacity="0.5"/>
    <path id="Path_186" data-name="Path 186" d="M-15.765-4.744c.021,1.548.565,4.187,5.248,4.19C48.817-.516,686.362,0,699.809,0c14.744,0,14.138-11.321,14.138-11.321S712.49-.025,726.628,0C739.381.023,769.717-.807,830.2-.839c19.156,0,14.847-10.969,15.405-22.912" transform="translate(586.994 1916.5)" fill="none" stroke="#1fa1af" stroke-linejoin="round" stroke-width="2"/>
    <path id="Path_187" data-name="Path 187" d="M0,0,5.655,5.655H0Z" transform="translate(575.006 1894.213) rotate(135)" fill="#d78ea2"/>
    <path id="Path_190" data-name="Path 190" d="M0,0,5.655,5.655H0Z" transform="translate(952.006 1894.213) rotate(135)" fill="#d78ea2"/>
    <path id="Path_191" data-name="Path 191" d="M0,0,5.655,5.655H0Z" transform="translate(1205.006 1894.213) rotate(135)" fill="#d18ed7"/>
    <path id="Path_192" data-name="Path 192" d="M0,0,5.655,5.655H0Z" transform="translate(1436.006 1894.213) rotate(135)" fill="#1fa1af"/>
    <path id="Path_188" data-name="Path 188" d="M0,0,5.655,5.655H0Z" transform="translate(575.006 1903.213) rotate(135)" fill="#d18ed7"/>
    <path id="Path_189" data-name="Path 189" d="M0,0,5.655,5.655H0Z" transform="translate(575.006 1912.213) rotate(135)" fill="#1fa1af"/>
  </g>
</svg>
