<svg xmlns="http://www.w3.org/2000/svg" width="59.351" height="44.837" viewBox="0 0 59.351 44.837">
  <g id="Group_158" data-name="Group 158" transform="translate(0.025 -0.063)">
    <path id="Path_124" data-name="Path 124" d="M48.6,27.3a.367.367,0,0,1-.3-.1.961.961,0,0,1-.7-.9v-5H15.8a1,1,0,0,1,0-2H48.6a.945.945,0,0,1,1,1v3.1l7.5-9.8L49.6,3.9V7a.945.945,0,0,1-1,1H20.3a.945.945,0,0,1-1-1,.945.945,0,0,1,1-1H47.6V1a.961.961,0,0,1,.7-.9,1.068,1.068,0,0,1,1.1.3L59.1,13a.91.91,0,0,1,0,1.2L49.4,26.9A1.234,1.234,0,0,1,48.6,27.3Z" fill="#1fa1af"/>
    <path id="Path_125" data-name="Path 125" d="M10.7,44.9a.909.909,0,0,1-.8-.4L.2,31.8a.91.91,0,0,1,0-1.2L9.9,18a.947.947,0,0,1,1.1-.3.961.961,0,0,1,.7.9v5H39a1,1,0,0,1,0,2H10.7a.945.945,0,0,1-1-1V21.5L2.2,31.2,9.7,41V37.9a.945.945,0,0,1,1-1H43.5a1,1,0,0,1,0,2H11.7v5a.961.961,0,0,1-.7.9A.367.367,0,0,1,10.7,44.9Z" fill="#1fa1af"/>
  </g>
</svg>
