<svg xmlns="http://www.w3.org/2000/svg" width="53.874" height="53.874" viewBox="0 0 53.874 53.874">
  <g id="baby" transform="matrix(0.94, -0.342, 0.342, 0.94, 0, 14.376)">
    <g id="Group_168" data-name="Group 168" transform="translate(0)">
      <g id="Group_167" data-name="Group 167">
        <path id="Path_305" data-name="Path 305" d="M309.037,79.306A1.778,1.778,0,0,0,306,78.049a.616.616,0,1,0,.871.871.547.547,0,1,1,.773.773.616.616,0,0,0,.871.871A1.767,1.767,0,0,0,309.037,79.306Z" transform="translate(-280.715 -71.164)" fill="#1fa1af"/>
        <path id="Path_306" data-name="Path 306" d="M41.011,17.4a12.891,12.891,0,0,0,.933-4.684A12.406,12.406,0,0,0,38.73,4.177,5.446,5.446,0,0,1,40.951,2.9a.616.616,0,1,0-.343-1.182,6.679,6.679,0,0,0-2.748,1.586A12.651,12.651,0,0,0,24.643,1.027,4.742,4.742,0,0,0,21.687,0h-.072a4.772,4.772,0,0,0-4.172,6.953,2.813,2.813,0,0,0-1.12.177,30.046,30.046,0,0,0-9.167,6.182A6.694,6.694,0,0,0,5.262,18.37c.031.551.084,1.163.155,1.822A20.08,20.08,0,0,0,1.38,25.415C.743,26.636-.217,28.91.521,30.42l.009.018A8.618,8.618,0,0,0,11.594,41.5l.019.009a2.9,2.9,0,0,0,1.282.263,9.474,9.474,0,0,0,4.517-1.565,20.464,20.464,0,0,0,4.427-3.593c.662.071,1.275.123,1.825.154q.19.011.38.011a6.692,6.692,0,0,0,4.678-1.905,30.661,30.661,0,0,0,4.19-5.32.616.616,0,1,0-1.042-.656,29.39,29.39,0,0,1-4.01,5.1,5.458,5.458,0,0,1-4.126,1.544c-.289-.016-.6-.039-.921-.067q.246-.316.467-.633a6.5,6.5,0,0,0,1.156-3.809,73.662,73.662,0,0,0-1.056-10.688l-.022-.128A37.51,37.51,0,0,1,32.994,23.3a1.6,1.6,0,0,1,.756,1.977c-.137.364-.309.762-.513,1.184A.616.616,0,1,0,34.345,27c.22-.456.408-.889.558-1.288a2.813,2.813,0,0,0,.177-1.119A4.771,4.771,0,0,0,41.011,17.4ZM19.184,2.268a3.521,3.521,0,0,1,4.152-.63A13.187,13.187,0,0,0,18.446,6.2,3.527,3.527,0,0,1,19.184,2.268ZM3.4,38.633A7.373,7.373,0,0,1,1.511,31.4a25.854,25.854,0,0,0,6.614,2.5c.453,1.624.912,3.049,1.351,4.189a13.4,13.4,0,0,0,1.158,2.423A7.373,7.373,0,0,1,3.4,38.633Zm18.867-4.494a18.474,18.474,0,0,1-5.486,5.013c-2,1.19-3.775,1.671-4.629,1.254a.448.448,0,0,1-.061-.037.629.629,0,0,0-.072-.059c-.5-.462-1.513-2.349-2.793-7.035q-.007-.03-.016-.059-.218-.8-.446-1.708a.616.616,0,0,0-1.195.3c.061.242.121.48.182.715C3.081,31.168,1.959,30.278,1.7,29.98l-.013-.016a.444.444,0,0,1-.058-.084c-.656-1.343.967-5.088,3.976-8.154.294,2.174.745,4.7,1.3,7.253a.616.616,0,0,0,1.2-.263A73.675,73.675,0,0,1,6.491,18.3a5.459,5.459,0,0,1,1.544-4.126,28.613,28.613,0,0,1,8.72-5.892,1.6,1.6,0,0,1,1.977.756A43.213,43.213,0,0,1,21.976,19.48a.615.615,0,0,0,.032.162,63.906,63.906,0,0,1,1.194,11.4A5.27,5.27,0,0,1,22.267,34.139Zm12.2-11.181a2.814,2.814,0,0,0-.906-.749,38.986,38.986,0,0,0-10.447-3.294A40.388,40.388,0,0,0,19.823,8.469a2.814,2.814,0,0,0-.749-.906,11.886,11.886,0,0,1,2.067-2.774A11.535,11.535,0,0,1,37.433,4.6a11.535,11.535,0,0,1-.19,16.291A11.885,11.885,0,0,1,34.469,22.958Zm5.3-.109a3.527,3.527,0,0,1-3.933.738A13.256,13.256,0,0,0,40.4,18.7,3.521,3.521,0,0,1,39.765,22.849Z" transform="translate(0)" fill="#1fa1af"/>
        <path id="Path_307" data-name="Path 307" d="M396.75,167.01a1.766,1.766,0,0,0-1.257.521.616.616,0,0,0,.871.871.547.547,0,1,1,.773.773.616.616,0,0,0,.871.871,1.778,1.778,0,0,0-1.257-3.035Z" transform="translate(-362.859 -153.299)" fill="#1fa1af"/>
        <path id="Path_308" data-name="Path 308" d="M340.533,139.25a1.018,1.018,0,0,1-1.087-1.087.616.616,0,1,0-1.228-.084,2.249,2.249,0,0,0,2.245,2.405q.077,0,.155-.005a.616.616,0,1,0-.084-1.228Z" transform="translate(-310.447 -126.216)" fill="#1fa1af"/>
      </g>
    </g>
  </g>
</svg>
