<svg xmlns="http://www.w3.org/2000/svg" width="62.8" height="60.175" viewBox="0 0 62.8 60.175">
  <g id="Group_156" data-name="Group 156" transform="translate(0 -0.025)">
    <path id="Path_113" data-name="Path 113" d="M61.8,60.1H51.3a.945.945,0,0,1-1-1V47.6a3.372,3.372,0,0,1,3.4-3.4h6.8L60,17.3,38.6,1.8A1.075,1.075,0,0,1,38.4.4,1.075,1.075,0,0,1,39.8.2L61.5,16a.909.909,0,0,1,.4.8L62.8,59a.908.908,0,0,1-.3.7A.867.867,0,0,1,61.8,60.1Zm-9.5-2h8.4l-.2-11.8H53.7a1.367,1.367,0,0,0-1.4,1.4V58.1Z" fill="#1fa1af"/>
    <path id="Path_114" data-name="Path 114" d="M32.3,54.3H2.8A2.883,2.883,0,0,1,0,51.4V22.1a6.274,6.274,0,0,1,6.3-6.3H28.8a6.274,6.274,0,0,1,6.3,6.3V51.5A2.8,2.8,0,0,1,32.3,54.3ZM6.3,17.7A4.268,4.268,0,0,0,2,22V51.4a.86.86,0,0,0,.8.8H32.3a.86.86,0,0,0,.8-.8V22.1a4.268,4.268,0,0,0-4.3-4.3H6.3Z" fill="#1fa1af"/>
    <path id="Path_115" data-name="Path 115" d="M33.4,40.6H1.5a1,1,0,0,1,0-2H33.4a1,1,0,0,1,0,2Z" fill="#1fa1af"/>
    <path id="Path_116" data-name="Path 116" d="M10.5,49.3H3.9a.945.945,0,0,1-1-1V44.4a.945.945,0,0,1,1-1h6.7a.945.945,0,0,1,1,1v3.9A1.175,1.175,0,0,1,10.5,49.3Zm-5.6-2H9.6V45.4H4.9Z" fill="#1fa1af"/>
    <path id="Path_117" data-name="Path 117" d="M31.3,49.3H24.6a.945.945,0,0,1-1-1V44.4a.945.945,0,0,1,1-1h6.7a.945.945,0,0,1,1,1v3.9A1.075,1.075,0,0,1,31.3,49.3Zm-5.7-2h4.7V45.4H25.6v1.9Z" fill="#1fa1af"/>
    <path id="Path_118" data-name="Path 118" d="M8.7,60.2H4.1a.945.945,0,0,1-1-1V53.4a.945.945,0,0,1,1-1H8.7a.945.945,0,0,1,1,1v5.8A1,1,0,0,1,8.7,60.2Zm-3.6-2H7.7V54.4H5.1Z" fill="#1fa1af"/>
    <path id="Path_119" data-name="Path 119" d="M31.6,60.2H27a.945.945,0,0,1-1-1V53.4a.945.945,0,0,1,1-1h4.6a.945.945,0,0,1,1,1v5.8A1,1,0,0,1,31.6,60.2Zm-3.6-2h2.6V54.4H28Z" fill="#1fa1af"/>
  </g>
</svg>
