<svg xmlns="http://www.w3.org/2000/svg" width="39.938" height="18.641" viewBox="0 0 39.938 18.641">
  <path id="bus" d="M39.638,7.189,37.58,2.653A4.555,4.555,0,0,0,33.454,0H3.947A3.951,3.951,0,0,0,0,3.947v9.864a2.166,2.166,0,0,0,2.163,2.163H5.392a3.328,3.328,0,0,0,6.523,0H28.023a3.328,3.328,0,0,0,6.523,0h3.541a1.852,1.852,0,0,0,1.85-1.85V8.567A3.316,3.316,0,0,0,39.638,7.189ZM38.2,7.232,31.95,6.71v-2.8l4.488-.561ZM8.653,17.306a2,2,0,1,1,2-2A2,2,0,0,1,8.653,17.306Zm22.631,0a2,2,0,1,1,2-2A2,2,0,0,1,31.284,17.306Zm6.8-2.662H34.546a3.328,3.328,0,0,0-6.523,0H11.915a3.328,3.328,0,0,0-6.523,0H2.163a.833.833,0,0,1-.832-.832V3.947A2.619,2.619,0,0,1,3.947,1.331H33.454a3.209,3.209,0,0,1,2.1.792l-4.315.539H5.325a.666.666,0,0,0-.666.666V7.322a.666.666,0,0,0,.666.666H31.256l7.35.612v5.525A.52.52,0,0,1,38.087,14.644ZM5.991,6.656V3.994H10.65V6.656Zm5.991-2.662h5.325V6.656H11.981Zm6.656,0H23.3V6.656H18.637Zm5.991,0h5.991V6.656H24.628Zm0,0" fill="#1fa1af"/>
</svg>
