<svg id="girl" xmlns="http://www.w3.org/2000/svg" width="29.871" height="49.667" viewBox="0 0 29.871 49.667">
  <path id="Path_90" data-name="Path 90" d="M75.268,176.528a.86.86,0,1,1-.86-.86A.86.86,0,0,1,75.268,176.528Zm0,0" transform="translate(-66.412 -158.627)" fill="#1fa1af"/>
  <path id="Path_91" data-name="Path 91" d="M146.224,176.528a.86.86,0,1,1-.86-.86A.86.86,0,0,1,146.224,176.528Zm0,0" transform="translate(-130.486 -158.627)" fill="#1fa1af"/>
  <path id="Path_92" data-name="Path 92" d="M98.934,249.371a.746.746,0,0,0-1.037.19,2.719,2.719,0,0,1-1.284,1,2.762,2.762,0,0,1-2.007-.068.745.745,0,0,0-.59,1.369,4.408,4.408,0,0,0,1.7.347,4.064,4.064,0,0,0,1.405-.249,4.23,4.23,0,0,0,2-1.556A.746.746,0,0,0,98.934,249.371Zm0,0" transform="translate(-84.49 -225.062)" fill="#1fa1af"/>
  <path id="Path_93" data-name="Path 93" d="M29.871,5.4a.745.745,0,1,0-1.49,0,3.909,3.909,0,0,1-3.9,3.9c-.07,0-.139,0-.208-.006h-.01A3.9,3.9,0,1,1,27.53,2.962a.745.745,0,1,0,1.165-.93,5.393,5.393,0,0,0-9.031.929A10.827,10.827,0,0,0,10,2.589a5.4,5.4,0,1,0-6.153,7.975A10.711,10.711,0,0,0,3.7,12.32v1.7s0,0,0,.007c0,.019,0,.039,0,.058s0,.01,0,.015v9.325a9.08,9.08,0,0,0,6.08,8.559v1.3a2.031,2.031,0,0,1-1.452,1.947l-1.3.388a7.222,7.222,0,0,0-5.16,6.921v5.653a1.48,1.48,0,0,0,1.479,1.478H25.977a1.479,1.479,0,0,0,1.477-1.478V42.536A7.22,7.22,0,0,0,22.3,35.616l-1.944-.579a2.049,2.049,0,0,1-.925-.582,2.025,2.025,0,0,1-.528-1.366V30.652A9.129,9.129,0,0,0,21.479,27.6a4.283,4.283,0,0,0,3.737-4.215V20.554a3.5,3.5,0,0,0,0-3.063l0-5.171a10.707,10.707,0,0,0-.115-1.568A5.4,5.4,0,0,0,29.871,5.4Zm-28.381,0a3.9,3.9,0,0,1,7.2-2.1A10.728,10.728,0,0,0,4.2,9.111,3.926,3.926,0,0,1,1.49,5.395ZM18.324,35.458a3.537,3.537,0,0,0,1.6,1.006l.279.083a12.286,12.286,0,0,1-7,1.2.745.745,0,0,0-.2,1.477,12.7,12.7,0,0,0,1.707.114,14.366,14.366,0,0,0,7.486-2.191,5.769,5.769,0,0,1,3.771,5.384v5.64H3.356v-5.64a5.766,5.766,0,0,1,4.084-5.489h0a13.169,13.169,0,0,0,2.606,1.4.745.745,0,1,0,.552-1.384,11.429,11.429,0,0,1-1.307-.622,3.519,3.519,0,0,0,1.977-3.165v-.918a9.085,9.085,0,0,0,1.495.124h.672a9.006,9.006,0,0,0,3.971-.917v1.52A3.512,3.512,0,0,0,18.324,35.458ZM13.437,31h-.672a7.583,7.583,0,0,1-7.574-7.57v0l0-8.376a9.9,9.9,0,0,0,4.681-.225,6.95,6.95,0,0,0,2.863-1.454.745.745,0,0,0-.927-1.167A5.468,5.468,0,0,1,9.55,13.366a.653.653,0,0,0-.07.017,8.424,8.424,0,0,1-4.285.141v-1.2a9.176,9.176,0,0,1,.254-2.148v0a9.229,9.229,0,0,1,4.582-5.933,9.335,9.335,0,0,1,9.143.161,5.389,5.389,0,0,0,4.415,6.319,9.2,9.2,0,0,1,.141,1.6l0,3.615a3.484,3.484,0,0,0-1.665-.421h-.256c-.051-.006-.106-.011-.175-.017a4.1,4.1,0,0,1-3.063-1.471A11.777,11.777,0,0,1,16.937,11c-.241-.579-.514-1.235-.891-2.016a.746.746,0,0,0-1.3-.076,15.378,15.378,0,0,1-1.052,1.413.745.745,0,0,0,1.146.953c.142-.171.272-.334.391-.487.12.278.229.539.332.786a13.3,13.3,0,0,0,1.828,3.361,5.355,5.355,0,0,0,3.622,2v6.492A7.582,7.582,0,0,1,13.437,31ZM22.5,17.533v-.482a2.016,2.016,0,0,1,0,3.936Zm-.333,8.327a9.037,9.037,0,0,0,.333-2.438V22.5a3.484,3.484,0,0,0,1.225-.391v1.279A2.774,2.774,0,0,1,22.168,25.86Zm0,0" transform="translate(0)" fill="#1fa1af"/>
</svg>
