<svg id="Group_157" data-name="Group 157" xmlns="http://www.w3.org/2000/svg" width="57.1" height="55.6" viewBox="0 0 57.1 55.6">
  <path id="Path_120" data-name="Path 120" d="M26,30.7a1.234,1.234,0,0,1-.8-.4c-.4-.6-10-13.8-10-19.5a10.8,10.8,0,1,1,21.6,0c0,5.7-9.6,18.9-10,19.5C26.7,30.6,26.4,30.7,26,30.7ZM26,2a8.813,8.813,0,0,0-8.8,8.8C17.2,14.6,23,23.6,26,28c3.1-4.3,8.8-13.3,8.8-17.2A8.749,8.749,0,0,0,26,2Z" fill="#1fa1af"/>
  <path id="Path_121" data-name="Path 121" d="M26,17.2a6.4,6.4,0,1,1,6.4-6.4A6.445,6.445,0,0,1,26,17.2ZM26,6.5a4.4,4.4,0,1,0,4.4,4.4A4.439,4.439,0,0,0,26,6.5Z" fill="#1fa1af"/>
  <path id="Path_122" data-name="Path 122" d="M53.2,55.6H3.8A3.8,3.8,0,0,1,0,51.8V16.5a3.8,3.8,0,0,1,3.8-3.8h7.7a1,1,0,0,1,0,2H3.8A1.793,1.793,0,0,0,2,16.5V51.8a1.793,1.793,0,0,0,1.8,1.8H53.2A1.793,1.793,0,0,0,55,51.8V16.5a1.793,1.793,0,0,0-1.8-1.8h-12a1,1,0,0,1,0-2H53.3a3.8,3.8,0,0,1,3.8,3.8V51.8A3.952,3.952,0,0,1,53.2,55.6Z" fill="#1fa1af"/>
  <path id="Path_123" data-name="Path 123" d="M20.3,45.3h0a14.919,14.919,0,0,1-2.1-.2.765.765,0,1,1,.3-1.5,12.253,12.253,0,0,0,1.9.2.773.773,0,0,1,.7.8A.947.947,0,0,1,20.3,45.3Zm2.9-.1a.684.684,0,0,1-.7-.7.709.709,0,0,1,.7-.8c.6-.1,1.3-.2,1.9-.3a.765.765,0,1,1,.3,1.5,14.6,14.6,0,0,1-2.2.3Zm-7.8-.9h-.3a15.386,15.386,0,0,1-1.9-.8.738.738,0,1,1,.7-1.3c.6.3,1.2.6,1.7.8a.7.7,0,0,1,.4,1C16,44.1,15.7,44.3,15.4,44.3Zm12.7-.4a.842.842,0,0,1-.7-.4.731.731,0,0,1,.4-1,9.147,9.147,0,0,0,1.7-.9.738.738,0,0,1,.7,1.3,11.4,11.4,0,0,1-1.9,1ZM11,41.9c-.2,0-.3-.1-.5-.2-.1-.1-.3-.2-.4-.3l-1.2-1a.781.781,0,1,1,1-1.2l1.2,1,.3.3a.784.784,0,0,1,.1,1.1C11.5,41.8,11.2,41.9,11,41.9Zm21.3-.6a.864.864,0,0,1-.6-.3.792.792,0,0,1,.1-1.1c.5-.4.9-.9,1.4-1.3a.778.778,0,0,1,1.1,1.1l-1.5,1.5A4.331,4.331,0,0,0,32.3,41.3ZM7.1,38.7c-.2,0-.3-.1-.5-.2L5,37.2a.749.749,0,0,1,0-1,.784.784,0,0,1,1.1-.1l1.6,1.3a.784.784,0,0,1,.1,1.1A1.445,1.445,0,0,1,7.1,38.7Zm28.6-1.1c-.2,0-.3-.1-.5-.2a.9.9,0,0,1-.1-1.1l1.3-1.5a.781.781,0,1,1,1.2,1l-1.3,1.5A.864.864,0,0,1,35.7,37.6Zm-32.4-2c-.2,0-.3-.1-.5-.2L1.2,34.1a.781.781,0,1,1,1-1.2l1.6,1.3a.9.9,0,0,1,0,1.1A.55.55,0,0,1,3.3,35.6ZM39.1,34a1.421,1.421,0,0,1-.6-.2.785.785,0,0,1,0-1.1,10.1,10.1,0,0,1,1.6-1.3.781.781,0,0,1,1,1.2l-1.5,1.2A1.689,1.689,0,0,1,39.1,34Zm4-3a.755.755,0,0,1-.7-.4.693.693,0,0,1,.3-1,15.106,15.106,0,0,1,1.8-.9.762.762,0,1,1,.6,1.4c-.6.3-1.2.6-1.7.9Zm4.6-2a.752.752,0,0,1-.7-.5.715.715,0,0,1,.5-.9,14.62,14.62,0,0,1,2-.5.765.765,0,0,1,.3,1.5,13.322,13.322,0,0,0-1.9.5A.31.31,0,0,0,47.7,29Zm4.9-.9a.684.684,0,0,1-.7-.7.773.773,0,0,1,.7-.8,12.75,12.75,0,0,1,2-.1l.1.8V28a12.785,12.785,0,0,0-2.1.1Z" fill="#1fa1af"/>
</svg>
