<svg xmlns="http://www.w3.org/2000/svg" width="50.411" height="57.6" viewBox="0 0 50.411 57.6">
  <g id="Group_153" data-name="Group 153" transform="translate(0.025)">
    <path id="Path_102" data-name="Path 102" d="M16.99,14.58a7.29,7.29,0,1,1,7.29-7.29A7.26,7.26,0,0,1,16.99,14.58Zm0-12.78a5.49,5.49,0,1,0,5.49,5.49A5.455,5.455,0,0,0,16.99,1.8Z" transform="translate(-0.973)" fill="#1fa1af"/>
    <path id="Path_103" data-name="Path 103" d="M44.62,35.64a4.321,4.321,0,0,1-4.32-4.32,4.32,4.32,0,1,1,4.32,4.32Zm0-7.38a2.97,2.97,0,1,0,2.97,2.97A3,3,0,0,0,44.62,28.26Z" transform="translate(-4.033 -2.7)" fill="#1fa1af"/>
    <path id="Path_104" data-name="Path 104" d="M19.347,58.62a3.189,3.189,0,0,1-3.15-3.15V40.98h-.72V55.47a3.15,3.15,0,0,1-6.3,0V28.65l-4.59,6.03a2.579,2.579,0,0,1-1.71.99,2.371,2.371,0,0,1-1.89-.54A2.8,2.8,0,0,1,0,33.42a2.371,2.371,0,0,1,.54-1.89l9.54-12.42a4.946,4.946,0,0,1,.63-.81l.09-.09a3.524,3.524,0,0,1,.9-.72,5.456,5.456,0,0,1,3.15-.99h2.16a5.522,5.522,0,0,1,4.77,2.79l9.9,12.96a2.371,2.371,0,0,1,.54,1.89,2.584,2.584,0,0,1-4.59,1.26L22.5,28.65V55.47A3.189,3.189,0,0,1,19.347,58.62Zm-4.77-19.44H17.1a.85.85,0,0,1,.9.9V55.47a1.35,1.35,0,0,0,2.7,0V25.95a.864.864,0,0,1,.63-.81.961.961,0,0,1,.99.27l6.75,8.73a.833.833,0,0,0,1.08.18.544.544,0,0,0,.27-.54c0-.27,0-.36-.18-.54h0l-9.99-12.87-.09-.09a3.78,3.78,0,0,0-3.24-1.89h-2.16a4.333,4.333,0,0,0-2.16.63l-.09.09c-.09.09-.18.09-.27.18l-.09.09a.088.088,0,0,1-.09.09,1.614,1.614,0,0,0-.45.63L1.977,32.61a.661.661,0,0,0-.18.54.778.778,0,0,0,.27.54,1.279,1.279,0,0,0,.54.18.778.778,0,0,0,.54-.27l6.21-8.1a.852.852,0,0,1,.99-.27.864.864,0,0,1,.63.81V55.47a1.35,1.35,0,0,0,2.7,0V40.08A.9.9,0,0,1,14.577,39.18Z" transform="translate(0 -1.65)" fill="#1fa1af"/>
    <path id="Path_105" data-name="Path 105" d="M44.587,38.15a2.615,2.615,0,0,1,2.16,1.26l5.4,7.02a.88.88,0,0,1-.18,1.26,1.279,1.279,0,0,1-.54.18.819.819,0,0,1-.72-.36l-3.6-4.77v2.07h0V58.58a1.287,1.287,0,0,1-1.26,1.26h0a1.287,1.287,0,0,1-1.26-1.26V50.21h-1.35v8.37a1.26,1.26,0,0,1-2.52,0V50.21h0V42.56l-3.33,4.41a.819.819,0,0,1-.72.36,1.279,1.279,0,0,1-.54-.18.968.968,0,0,1-.18-1.26l5.13-6.75a1.58,1.58,0,0,1,.36-.45l.09-.09a1.242,1.242,0,0,1,.36-.27,2.72,2.72,0,0,1,1.44-.45h1.26m0-1.08h-1.17a3.776,3.776,0,0,0-2.16.63,2.426,2.426,0,0,0-.72.63h0a1.883,1.883,0,0,0-.36.54l-5.13,6.66a2.144,2.144,0,0,0-.45,1.62,2.28,2.28,0,0,0,.9,1.53,2.425,2.425,0,0,0,1.35.45,2.349,2.349,0,0,0,1.8-.9l.9-1.26V58.67a2.612,2.612,0,0,0,2.61,2.61,2.806,2.806,0,0,0,1.89-.81,2.451,2.451,0,0,0,1.89.81,2.612,2.612,0,0,0,2.61-2.61V46.79l1.26,1.62a2.349,2.349,0,0,0,1.8.9,2.425,2.425,0,0,0,1.35-.45,2.274,2.274,0,0,0,.45-3.15L48.1,38.78a4.346,4.346,0,0,0-3.51-1.98Z" transform="translate(-3.46 -3.68)" fill="#1fa1af"/>
  </g>
</svg>
