<svg id="Group_155" data-name="Group 155" xmlns="http://www.w3.org/2000/svg" width="57" height="56.2" viewBox="0 0 57 56.2">
  <path id="Path_106" data-name="Path 106" d="M10.8,54.2h0a1.234,1.234,0,0,1-.8-.4C9.6,53.3,0,40,0,34.4a10.8,10.8,0,0,1,21.6,0c0,5.7-9.6,18.9-10,19.5C11.5,54.1,11.2,54.2,10.8,54.2Zm0-28.7A8.813,8.813,0,0,0,2,34.3c0,3.8,5.8,12.8,8.8,17.2,3.1-4.3,8.8-13.3,8.8-17.2A8.749,8.749,0,0,0,10.8,25.5Z" fill="#1fa1af"/>
  <path id="Path_107" data-name="Path 107" d="M10.8,40.7a6.4,6.4,0,1,1,6.4-6.4A6.38,6.38,0,0,1,10.8,40.7Zm0-10.7a4.4,4.4,0,1,0,4.4,4.4A4.439,4.439,0,0,0,10.8,30Z" fill="#1fa1af"/>
  <path id="Path_108" data-name="Path 108" d="M50.1,19.4a.713.713,0,0,1-.6-.3c-.6-.9-6.3-8.7-6.3-12.2A6.9,6.9,0,1,1,57,6.9c0,3.5-5.6,11.3-6.3,12.2A.713.713,0,0,1,50.1,19.4Zm0-17.9a5.378,5.378,0,0,0-5.4,5.4c0,2.3,3.5,7.7,5.4,10.5,1.9-2.7,5.4-8.2,5.4-10.5A5.378,5.378,0,0,0,50.1,1.5Z" fill="#1fa1af"/>
  <path id="Path_109" data-name="Path 109" d="M50.1,11a4.1,4.1,0,0,1,0-8.2,4.055,4.055,0,0,1,4.1,4.1A4.118,4.118,0,0,1,50.1,11Zm0-6.7a2.647,2.647,0,0,0-2.6,2.6,2.6,2.6,0,1,0,5.2,0A2.647,2.647,0,0,0,50.1,4.3Z" fill="#1fa1af"/>
  <g id="Group_154" data-name="Group 154">
    <path id="Path_110" data-name="Path 110" d="M12.7,56.2a.752.752,0,0,1-.7-.5.715.715,0,0,1,.5-.9l1-.3a.728.728,0,0,1,.4,1.4l-1,.3Z" fill="#1fa1af"/>
    <path id="Path_111" data-name="Path 111" d="M16.4,55.1a.752.752,0,0,1-.7-.5.715.715,0,0,1,.5-.9l1.8-.5a.728.728,0,0,1,.4,1.4l-1.8.5ZM21,53.8a.752.752,0,0,1-.7-.5.715.715,0,0,1,.5-.9l1.8-.5a.728.728,0,0,1,.4,1.4l-1.8.5Zm4.6-1.3a.752.752,0,0,1-.7-.5.715.715,0,0,1,.5-.9l1.8-.5a.728.728,0,0,1,.4,1.4l-1.8.5Zm4.6-1.4a.752.752,0,0,1-.7-.5.731.731,0,0,1,.4-1,7.973,7.973,0,0,0,1.6-.8.738.738,0,0,1,.7,1.3l-1.8.9A.349.349,0,0,1,30.2,51.1Zm4.1-2.6a.864.864,0,0,1-.6-.3.792.792,0,0,1,.1-1.1,7.993,7.993,0,0,0,1.3-1.3.781.781,0,0,1,1.2,1,9.266,9.266,0,0,1-1.4,1.4C34.6,48.5,34.5,48.5,34.3,48.5Zm3-3.7a.6.6,0,0,1-.4-.1.714.714,0,0,1-.3-1,11.938,11.938,0,0,0,.8-1.6.762.762,0,0,1,1.4.6l-.9,1.8A.6.6,0,0,1,37.3,44.8ZM39,40.3h-.1a.779.779,0,0,1-.6-.9,11.019,11.019,0,0,0,.2-1.8.709.709,0,0,1,.8-.7.773.773,0,0,1,.7.8,6.929,6.929,0,0,1-.3,2C39.7,40.1,39.4,40.3,39,40.3Zm.2-4.8a.684.684,0,0,1-.7-.7L38.2,33a.773.773,0,0,1,.7-.8c.4,0,.8.2.8.6l.2,1.9a.773.773,0,0,1-.7.8Zm-.1-4.7H39a.779.779,0,0,1-.6-.9,14.619,14.619,0,0,1,.5-2,.762.762,0,0,1,1.4.6,10.926,10.926,0,0,0-.5,1.7A.669.669,0,0,1,39.1,30.8ZM41,26.4c-.2,0-.3,0-.4-.1a.775.775,0,0,1-.2-1,6.73,6.73,0,0,1,1.4-1.5.778.778,0,0,1,1.1,1.1c-.4.4-.8.9-1.2,1.3A2.544,2.544,0,0,1,41,26.4Zm3.6-3.2a.755.755,0,0,1-.7-.4.693.693,0,0,1,.3-1,10.837,10.837,0,0,1,1.9-.8.728.728,0,1,1,.4,1.4,7.741,7.741,0,0,0-1.6.7A.367.367,0,0,1,44.6,23.2Z" fill="#1fa1af"/>
    <path id="Path_112" data-name="Path 112" d="M49.1,21.6a.752.752,0,0,1-.7-.5.715.715,0,0,1,.5-.9l1-.3a.728.728,0,1,1,.4,1.4l-1,.3Z" fill="#1fa1af"/>
  </g>
</svg>
