<svg xmlns="http://www.w3.org/2000/svg" width="60" height="47.6" viewBox="0 0 60 47.6">
  <path id="Path_80" data-name="Path 80" d="M51.7,26.4a.6.6,0,0,0-.4-.1,13.449,13.449,0,0,0-3.5-.5H46a9.536,9.536,0,0,0,6.4-9V13.1l.4.1V25.5a1,1,0,0,0,2,0V9.2A8.835,8.835,0,0,0,46,.3h-.2l-.3.1A7.263,7.263,0,0,1,39.9.3L39.7.2h-.2A8.822,8.822,0,0,0,31,9V25.2a1,1,0,1,0,2,0V13.1l.6-.2v4.2a8.86,8.86,0,0,0,6.1,8.5H38.4a12.1,12.1,0,0,0-8.6,3.5l1.4,1.4A11.388,11.388,0,0,1,35,28.2l1.1,1.3A9.186,9.186,0,0,0,43.4,33h0a9.14,9.14,0,0,0,7.3-3.6l.9-1.2a10.417,10.417,0,0,1,6.5,9.7v7.4H54.6V39.5a1,1,0,0,0-2,0v5.8H34.4V39.8a14.366,14.366,0,0,0-8.9-13.3l-.7-.4-.1.1a15.571,15.571,0,0,0-4.3-.8,9.528,9.528,0,0,0,6.5-9V8.6a1.7,1.7,0,0,0-.1-.7c.8-.8,1.6-2.2,1.8-4.9A2.7,2.7,0,0,0,27.9.9a2.665,2.665,0,0,0-2-.9H11.8A3.614,3.614,0,0,0,8.2,3.4,2.822,2.822,0,0,0,6.1,6.2V11a1.425,1.425,0,0,0,.6,1.2,1.5,1.5,0,0,0,1.1.4h.1v4.5a9.074,9.074,0,0,0,6.2,8.6A14.9,14.9,0,0,0,0,40.5v7.1H60V38.2A12.493,12.493,0,0,0,51.7,26.4ZM33,11.1V9a6.71,6.71,0,0,1,6.4-6.7,8.9,8.9,0,0,0,6.8,0,6.925,6.925,0,0,1,6.6,6.9v1.9l-1.3-.4a14.77,14.77,0,0,1-7.3-4.6,1.9,1.9,0,0,0-1.5-.9,1.745,1.745,0,0,0-1.5.8l-.2.2a15.836,15.836,0,0,1-7.7,4.7Zm2.6,6.1V12.3a17.59,17.59,0,0,0,7-4.8l.2-.2a15.278,15.278,0,0,0,7.8,5.1v4.2a7.469,7.469,0,0,1-7.4,7.5h-.6A6.812,6.812,0,0,1,35.6,17.2ZM49,28.4a7.248,7.248,0,0,1-5.8,2.8h0a7.248,7.248,0,0,1-5.8-2.8l-.5-.6a6.15,6.15,0,0,1,1.4-.1h9.4c.6,0,1.1.1,1.6.1Zm-25.4-.1L22,30.9c-.1.1-.1.1-.2.1s-.1,0-.2-.1l-2.5-3.2H20A11.325,11.325,0,0,1,23.6,28.3ZM8.1,6.2A.9.9,0,0,1,9,5.3h1.2V3.7A1.666,1.666,0,0,1,11.8,2H25.7a1.421,1.421,0,0,1,.6.2.845.845,0,0,1,.2.6c-.2,3.1-1.4,3.8-1.7,4H13.3A2.346,2.346,0,0,0,11,8.6a3.091,3.091,0,0,1-2.9,2Zm1.8,11v-5a4.631,4.631,0,0,0,3-3.1c0-.2.2-.3.4-.3H24.8v7.9a7.469,7.469,0,0,1-7.4,7.5h-.6A6.936,6.936,0,0,1,9.9,17.2Zm5.4,10.5-2.4,3-.1.1a.1.1,0,0,1-.1-.1l-1.6-2.4a11.476,11.476,0,0,1,3.7-.6ZM29,45.6V39.8a1,1,0,0,0-2,0v5.8H7.7V39.8a.945.945,0,0,0-1-1,.945.945,0,0,0-1,1v5.8H2V40.5A12.809,12.809,0,0,1,9.2,29L11,31.8a1.965,1.965,0,0,0,1.7.9,2.5,2.5,0,0,0,1.8-.8l2.8-3.4,2.8,3.6a2.289,2.289,0,0,0,1.7.8h.1a2.107,2.107,0,0,0,1.8-1.1l1.8-2.9A12.3,12.3,0,0,1,32.4,40v5.5H29Z" fill="#1fa1af"/>
</svg>
