<svg id="Group_150" data-name="Group 150" xmlns="http://www.w3.org/2000/svg" width="59.5" height="52.3" viewBox="0 0 59.5 52.3">
  <path id="Path_81" data-name="Path 81" d="M56.8,34.5l.5-.2a3.121,3.121,0,0,0,2.2-3V26a2.051,2.051,0,0,0-2.1-2.1H45.9L51.6,18a.967.967,0,0,0,0-1.4l-5.1-5.1a1.063,1.063,0,0,0-1.2-.2l-1.4.8a3.626,3.626,0,0,1-4.4-.6,3.642,3.642,0,0,1-.8-4.4l.8-1.7a.913.913,0,0,0-.2-1.1l-4-4a.967.967,0,0,0-1.4,0C27.4,6.6,10.9,22.8,9.7,24H2.1A2.051,2.051,0,0,0,0,26.1v5.4a3.218,3.218,0,0,0,2.1,3l.6.2a3.557,3.557,0,0,1,2.4,3.5,3.863,3.863,0,0,1-2.5,3.5l-.6.2a2.882,2.882,0,0,0-2,2.7v5.6a2.051,2.051,0,0,0,2.1,2.1H57.4a2.051,2.051,0,0,0,2.1-2.1V44.5a3,3,0,0,0-2.1-2.9l-.7-.2a3.627,3.627,0,0,1-2.5-3.5A3.707,3.707,0,0,1,56.8,34.5ZM34.5,2.4l2.8,2.8-.5,1.1A5.771,5.771,0,0,0,38,13a5.884,5.884,0,0,0,6.8.9l.8-.4,3.9,3.9L43.1,24H39.6a5.45,5.45,0,0,0,.5-2.2,6.2,6.2,0,0,0-1.6-4.1l-3.7-3.8a6.006,6.006,0,0,0-8.5-.1L15.4,24H12.5C14.9,21.7,20.6,16.1,34.5,2.4ZM18.3,24l9.2-8.7a4.076,4.076,0,0,1,5.7.1l3.7,3.8A3.631,3.631,0,0,1,38,21.8a3.523,3.523,0,0,1-.9,2.3H18.3ZM56.1,43.3l.7.2a.993.993,0,0,1,.7,1v5.7a.1.1,0,0,1-.1.1H49.2V48.4h-2v1.9h-35V48.4h-2v1.9h-8c-.1,0-.1,0-.1-.1V44.6a.76.76,0,0,1,.6-.8l.6-.2a5.843,5.843,0,0,0,3.9-5.4,5.619,5.619,0,0,0-3.8-5.4l-.6-.2A1.17,1.17,0,0,1,2,31.5V26.1c0-.1,0-.1.1-.1h8v3.2h2V26H37.7l.1.1L38,26h9.1v3.2h2V26h8.2c.1,0,.1,0,.1.1v5.3a1.17,1.17,0,0,1-.8,1.1l-.5.2a5.551,5.551,0,0,0,0,10.6Z" fill="#1fa1af"/>
  <rect id="Rectangle_122" data-name="Rectangle 122" width="2" height="3.4" transform="translate(10.1 31.3)" fill="#1fa1af"/>
  <rect id="Rectangle_123" data-name="Rectangle 123" width="2" height="3.4" transform="translate(10.1 36.8)" fill="#1fa1af"/>
  <rect id="Rectangle_124" data-name="Rectangle 124" width="2" height="3.4" transform="translate(10.1 42.9)" fill="#1fa1af"/>
  <rect id="Rectangle_125" data-name="Rectangle 125" width="2" height="3.4" transform="translate(47.1 31.3)" fill="#1fa1af"/>
  <rect id="Rectangle_126" data-name="Rectangle 126" width="2" height="3.4" transform="translate(47.1 36.8)" fill="#1fa1af"/>
  <rect id="Rectangle_127" data-name="Rectangle 127" width="2" height="3.4" transform="translate(47.1 42.9)" fill="#1fa1af"/>
  <path id="Path_82" data-name="Path 82" d="M37.4,28.4H21.7a6.914,6.914,0,0,0-6.9,6.9V41a6.914,6.914,0,0,0,6.9,6.9H37.4A6.914,6.914,0,0,0,44.3,41V35.3A6.914,6.914,0,0,0,37.4,28.4Zm4.9,12.5a4.908,4.908,0,0,1-4.9,4.9H21.7a4.908,4.908,0,0,1-4.9-4.9V35.2a4.908,4.908,0,0,1,4.9-4.9H37.4a4.908,4.908,0,0,1,4.9,4.9v5.7Z" fill="#1fa1af"/>
</svg>
