<svg id="Group_151" data-name="Group 151" xmlns="http://www.w3.org/2000/svg" width="59.335" height="47.9" viewBox="0 0 59.335 47.9">
  <path id="Path_83" data-name="Path 83" d="M58.3,31.6c-2.3-3.2-8.1-1.3-8.3-1.2-.3.1-6.4,1.8-9.2,2.7a3.644,3.644,0,0,1-1.4.2,1.088,1.088,0,0,1-.9-1.1c-.4-5.3-4-7.2-4.1-7.2-1-.6-9.4-5.6-12.4-5.6-2.1,0-5.3,1.3-7.2,2.2v-.3a1.9,1.9,0,0,0-1.9-1.9H2.1A2.112,2.112,0,0,0,0,21.5V42.6a2.476,2.476,0,0,0,2.5,2.5H12.8a2.006,2.006,0,0,0,2-2V40.7l9.4,5.1a15.125,15.125,0,0,0,5.9,2,5.7,5.7,0,0,0,1.3.1A16.251,16.251,0,0,0,37,46.8l19.1-8.2.1-.1c1.9-1.1,2.9-2.4,3.1-3.9A3.753,3.753,0,0,0,58.3,31.6ZM12.8,43.1H2.5a.472.472,0,0,1-.5-.5V21.5a.1.1,0,0,1,.1-.1H12.7V43.1Zm44.5-8.7q-.15,1.2-2.1,2.4L36.2,45a14.755,14.755,0,0,1-5.9.9,13.822,13.822,0,0,1-5.1-1.7L14.8,38.5V23.7c1.8-.8,5.4-2.4,7.2-2.4s7.9,3.3,11.4,5.4c0,0,2.7,1.4,3.1,5.6a3.139,3.139,0,0,0,.6,1.6c-2.1.2-4.1,0-5.1-.9l-3-2.5c-2.7-2.3-6.5-.2-6.6-.1l1,1.7s2.7-1.5,4.3-.1l2.9,2.5a7.994,7.994,0,0,0,5,1.4,19.588,19.588,0,0,0,5.2-.8,1.421,1.421,0,0,0,.6-.2c2.7-.9,9-2.7,9.1-2.7,1.3-.4,5-1.2,6.1.5l.1.2A1.737,1.737,0,0,1,57.3,34.4Z" fill="#1fa1af"/>
  <path id="Path_84" data-name="Path 84" d="M42.5,22a11,11,0,1,0-11-11A10.968,10.968,0,0,0,42.5,22Zm0-20a9,9,0,1,1-9,9A8.963,8.963,0,0,1,42.5,2Z" fill="#1fa1af"/>
  <path id="Path_85" data-name="Path 85" d="M40,14.1a4.7,4.7,0,0,0,3.9,1.8,5.746,5.746,0,0,0,2.5-.6L46,13.5a3.994,3.994,0,0,1-1.8.4,2.782,2.782,0,0,1-2.1-.8,2.812,2.812,0,0,1-.5-1.1h4V10.9H41.4v-.8h4.2V9h-4a2.344,2.344,0,0,1,.5-1,2.518,2.518,0,0,1,2-.9,4.359,4.359,0,0,1,1.8.4l.4-1.8a5.356,5.356,0,0,0-2.4-.5,4.9,4.9,0,0,0-3.7,1.6A5.078,5.078,0,0,0,39.1,9H38v1.1h1v.8h-.9V12h1A6.667,6.667,0,0,0,40,14.1Z" fill="#1fa1af"/>
</svg>
