<svg id="Group_149" data-name="Group 149" xmlns="http://www.w3.org/2000/svg" width="52.7" height="47.3" viewBox="0 0 52.7 47.3">
  <path id="Path_71" data-name="Path 71" d="M48.3,0H4.4A4.439,4.439,0,0,0,0,4.4V42.9a4.439,4.439,0,0,0,4.4,4.4H48.3a4.439,4.439,0,0,0,4.4-4.4V4.4A4.507,4.507,0,0,0,48.3,0ZM4.4,2H48.3a2.433,2.433,0,0,1,2.4,2.4v6H2v-6A2.433,2.433,0,0,1,4.4,2ZM48.3,45.2H4.4A2.433,2.433,0,0,1,2,42.8V12.4H50.6V42.8A2.348,2.348,0,0,1,48.3,45.2Z" fill="#1fa1af"/>
  <path id="Path_72" data-name="Path 72" d="M6.5,9.3a3.2,3.2,0,0,0,0-6.4A3.29,3.29,0,0,0,3.3,6.1,3.222,3.222,0,0,0,6.5,9.3Zm0-4.4A1.2,1.2,0,1,1,5.3,6.1,1.155,1.155,0,0,1,6.5,4.9Z" fill="#1fa1af"/>
  <path id="Path_73" data-name="Path 73" d="M13,9.3a3.222,3.222,0,0,0,3.2-3.2,3.15,3.15,0,1,0-6.3,0A3.2,3.2,0,0,0,13,9.3Zm0-4.4a1.216,1.216,0,0,1,1.2,1.2,1.2,1.2,0,0,1-2.4,0A1.216,1.216,0,0,1,13,4.9Z" fill="#1fa1af"/>
  <path id="Path_74" data-name="Path 74" d="M19.6,9.3a3.222,3.222,0,0,0,3.2-3.2,3.2,3.2,0,0,0-6.4,0A3.222,3.222,0,0,0,19.6,9.3Zm0-4.4a1.216,1.216,0,0,1,1.2,1.2,1.2,1.2,0,0,1-2.4,0A1.216,1.216,0,0,1,19.6,4.9Z" fill="#1fa1af"/>
  <path id="Path_75" data-name="Path 75" d="M22.5,18.7H9a2.433,2.433,0,0,0-2.4,2.4V37.7A2.416,2.416,0,0,0,9,40H22.5a2.433,2.433,0,0,0,2.4-2.4V21.1A2.5,2.5,0,0,0,22.5,18.7Zm.3,18.9a.43.43,0,0,1-.4.4H9a.43.43,0,0,1-.4-.4V21.1a.43.43,0,0,1,.4-.4H22.5a.43.43,0,0,1,.4.4V37.6Z" fill="#1fa1af"/>
  <path id="Path_76" data-name="Path 76" d="M44.3,18.6h-14a1,1,0,0,0,0,2H44.2a.945.945,0,0,0,1-1A.923.923,0,0,0,44.3,18.6Z" fill="#1fa1af"/>
  <path id="Path_77" data-name="Path 77" d="M44.3,25.1h-14a1,1,0,0,0,0,2H44.2a.945.945,0,0,0,1-1A.923.923,0,0,0,44.3,25.1Z" fill="#1fa1af"/>
  <path id="Path_78" data-name="Path 78" d="M44.3,31.7h-14a1,1,0,0,0,0,2H44.2a.945.945,0,0,0,1-1A.923.923,0,0,0,44.3,31.7Z" fill="#1fa1af"/>
  <path id="Path_79" data-name="Path 79" d="M44.3,38.3h-14a1,1,0,1,0,0,2H44.2a.945.945,0,0,0,1-1A.923.923,0,0,0,44.3,38.3Z" fill="#1fa1af"/>
</svg>
