<svg id="sunny" xmlns="http://www.w3.org/2000/svg" width="40" height="40" viewBox="0 0 40 40">
  <circle id="Ellipse_52" data-name="Ellipse 52" cx="13.043" cy="13.043" r="13.043" transform="translate(6.956 6.956)" fill="#f9856e"/>
  <g id="Group_161" data-name="Group 161">
    <path id="Path_293" data-name="Path 293" d="M235.536,5.217a.87.87,0,0,0,.87-.87V.87a.87.87,0,1,0-1.739,0V4.348A.87.87,0,0,0,235.536,5.217Z" transform="translate(-215.536)" fill="#f9856e"/>
    <path id="Path_294" data-name="Path 294" d="M235.536,426.667a.87.87,0,0,0-.87.87v3.478a.87.87,0,1,0,1.739,0v-3.478A.87.87,0,0,0,235.536,426.667Z" transform="translate(-215.536 -391.884)" fill="#f9856e"/>
    <path id="Path_295" data-name="Path 295" d="M431.014,234.667h-3.478a.87.87,0,1,0,0,1.739h3.478a.87.87,0,1,0,0-1.739Z" transform="translate(-391.883 -215.537)" fill="#f9856e"/>
    <path id="Path_296" data-name="Path 296" d="M5.217,235.536a.87.87,0,0,0-.87-.87H.87a.87.87,0,1,0,0,1.739H4.348A.87.87,0,0,0,5.217,235.536Z" transform="translate(0 -215.536)" fill="#f9856e"/>
    <path id="Path_297" data-name="Path 297" d="M119.24,35.817a.869.869,0,0,0,.755.435.857.857,0,0,0,.435-.116.87.87,0,0,0,.318-1.188l-1.739-3.012a.87.87,0,0,0-1.506.87Z" transform="translate(-107.819 -28.937)" fill="#f9856e"/>
    <path id="Path_298" data-name="Path 298" d="M332.321,401.429a.87.87,0,0,0-1.506.87l1.739,3.012a.869.869,0,0,0,.755.435.857.857,0,0,0,.435-.116.87.87,0,0,0,.318-1.188Z" transform="translate(-303.742 -368.309)" fill="#f9856e"/>
    <path id="Path_299" data-name="Path 299" d="M401.806,120.613a.857.857,0,0,0,.435-.117l3.012-1.739a.87.87,0,0,0-.806-1.541q-.033.017-.063.037l-3.012,1.739a.87.87,0,0,0,.435,1.623v0Z" transform="translate(-368.251 -107.57)" fill="#f9856e"/>
    <path id="Path_300" data-name="Path 300" d="M34.891,330.585l-3.012,1.739a.87.87,0,0,0,.435,1.623.857.857,0,0,0,.435-.117l3.012-1.739a.87.87,0,1,0-.806-1.541q-.033.017-.063.037Z" transform="translate(-28.881 -303.512)" fill="#f9856e"/>
    <path id="Path_301" data-name="Path 301" d="M31.5,118.738l3.012,1.739a.857.857,0,0,0,.433.116.87.87,0,0,0,.435-1.623l-3.012-1.739a.87.87,0,0,0-.933,1.468q.031.02.063.037Z" transform="translate(-28.504 -107.55)" fill="#f9856e"/>
    <path id="Path_302" data-name="Path 302" d="M404.9,332.3l-3.012-1.739a.87.87,0,0,0-.933,1.468q.031.02.063.037l3.012,1.739a.858.858,0,0,0,.435.117.87.87,0,0,0,.435-1.623v0Z" transform="translate(-367.896 -303.493)" fill="#f9856e"/>
    <path id="Path_303" data-name="Path 303" d="M331.115,36.137a.857.857,0,0,0,.435.116.87.87,0,0,0,.755-.435l1.739-3.012a.87.87,0,0,0-1.506-.87L330.8,34.949A.869.869,0,0,0,331.115,36.137Z" transform="translate(-303.723 -28.939)" fill="#f9856e"/>
    <path id="Path_304" data-name="Path 304" d="M120.376,401.054a.87.87,0,0,0-1.188.318l-1.739,3.012a.87.87,0,0,0,.318,1.188.857.857,0,0,0,.435.116.87.87,0,0,0,.755-.435l1.739-3.012a.87.87,0,0,0-.319-1.188Z" transform="translate(-107.767 -368.252)" fill="#f9856e"/>
  </g>
</svg>
