<svg id="Group_152" data-name="Group 152" xmlns="http://www.w3.org/2000/svg" width="54.5" height="51.6" viewBox="0 0 54.5 51.6">
  <path id="Path_94" data-name="Path 94" d="M32,16.2H22.4a1,1,0,0,1,0-2H32a1,1,0,0,1,0,2Z" fill="#1fa1af"/>
  <path id="Path_95" data-name="Path 95" d="M53.5,16.2H43.7a1,1,0,0,1,0-2h8.8V2H2V14.2h9a1,1,0,0,1,0,2H1a.945.945,0,0,1-1-1V1A.945.945,0,0,1,1,0H53.5a.945.945,0,0,1,1,1V15.2A1,1,0,0,1,53.5,16.2Z" fill="#1fa1af"/>
  <path id="Path_96" data-name="Path 96" d="M48.4,9.6H9.1a.945.945,0,0,1-1-1,.945.945,0,0,1,1-1H48.4a.945.945,0,0,1,1,1A1,1,0,0,1,48.4,9.6Z" fill="#1fa1af"/>
  <path id="Path_97" data-name="Path 97" d="M38.8,39H34.9a1.063,1.063,0,0,1-1-.9,6.265,6.265,0,0,0-6.2-5.5,6.166,6.166,0,0,0-6.1,5.5,1.063,1.063,0,0,1-1,.9H15.5a.945.945,0,0,1-1-1V8.7a.945.945,0,0,1,1-1l23.4-.1h0a1.025,1.025,0,0,1,1,1V38A1.175,1.175,0,0,1,38.8,39Zm-3.1-2h2.1V9.6l-21.4.1V37h3.3a8.234,8.234,0,0,1,8-6.3A8.15,8.15,0,0,1,35.7,37Z" fill="#1fa1af"/>
  <path id="Path_98" data-name="Path 98" d="M21.3,28.8a2.92,2.92,0,0,1-.9-.2,2,2,0,0,1-.9-2.7h0a1.818,1.818,0,0,1,1.1-1,1.962,1.962,0,0,1,1.5.1,1.818,1.818,0,0,1,1,1.1,1.962,1.962,0,0,1-.1,1.5,1.818,1.818,0,0,1-1.1,1C21.8,28.8,21.5,28.8,21.3,28.8Zm-.9-2.4.9.4h0Z" fill="#1fa1af"/>
  <path id="Path_99" data-name="Path 99" d="M27.4,28.8a2.92,2.92,0,0,1-.9-.2,1.818,1.818,0,0,1-1-1.1,1.962,1.962,0,0,1,.1-1.5h0a1.818,1.818,0,0,1,1.1-1,1.962,1.962,0,0,1,1.5.1,1.818,1.818,0,0,1,1,1.1,1.962,1.962,0,0,1-.1,1.5A1.665,1.665,0,0,1,27.4,28.8Zm-.9-2.4.9.4h0Zm0,0Z" fill="#1fa1af"/>
  <path id="Path_100" data-name="Path 100" d="M33.6,28.8a2.92,2.92,0,0,1-.9-.2,2,2,0,0,1-.9-2.7h0a1.818,1.818,0,0,1,1.1-1,1.962,1.962,0,0,1,1.5.1,1.818,1.818,0,0,1,1,1.1,1.962,1.962,0,0,1-.1,1.5,1.818,1.818,0,0,1-1.1,1A.735.735,0,0,1,33.6,28.8Zm-.9-2.4.9.4h0Z" fill="#1fa1af"/>
  <path id="Path_101" data-name="Path 101" d="M32.7,51.6H22.3a.961.961,0,0,1-.9-.6,1.1,1.1,0,0,1,.1-1.1l4.9-6.2a1.234,1.234,0,0,1,.8-.4,1.135,1.135,0,0,1,.8.3l5.5,6.2a1.09,1.09,0,0,1,.2,1.1C33.4,51.4,33.1,51.6,32.7,51.6Zm-8.3-2h6.1L27.3,46Z" fill="#1fa1af"/>
</svg>
