<svg xmlns="http://www.w3.org/2000/svg" width="32.128" height="29.379" viewBox="0 0 32.128 29.379">
  <g id="warning" transform="translate(0.001 -12.617)">
    <g id="Group_160" data-name="Group 160" transform="translate(-0.001 12.617)">
      <path id="Path_126" data-name="Path 126" d="M139.722,103.1a.9.9,0,0,0-.948.948v6.824a.948.948,0,1,0,1.9,0V104.05A.9.9,0,0,0,139.722,103.1Z" transform="translate(-123.658 -93.246)" fill="#1fa1af"/>
      <path id="Path_127" data-name="Path 127" d="M140.29,210.4a.916.916,0,0,0-1.327,0,1.14,1.14,0,0,0-.19.758c0,.379,0,.569.19.758a1.14,1.14,0,0,0,.758.19c.19,0,.569,0,.379-.19a1.437,1.437,0,0,0,.379-.758C140.48,210.783,140.48,210.594,140.29,210.4Z" transform="translate(-123.658 -188.607)" fill="#1fa1af"/>
      <path id="Path_128" data-name="Path 128" d="M31.416,34.6,20.233,15.081a4.709,4.709,0,0,0-4.17-2.464,4.94,4.94,0,0,0-4.17,2.464L.71,34.6a4.626,4.626,0,0,0,0,4.928A4.709,4.709,0,0,0,4.88,42H27.246a4.5,4.5,0,0,0,4.17-2.464,4.626,4.626,0,0,0,0-4.928ZM29.9,38.774a2.539,2.539,0,0,1-2.464,1.516H4.88a2.958,2.958,0,0,1-2.464-1.516,2.909,2.909,0,0,1,0-3.033L13.6,16.218A2.539,2.539,0,0,1,16.063,14.7a3.025,3.025,0,0,1,2.654,1.516L29.9,35.741A2.909,2.909,0,0,1,29.9,38.774Z" transform="translate(0.001 -12.617)" fill="#1fa1af"/>
    </g>
  </g>
</svg>
