<svg xmlns="http://www.w3.org/2000/svg" viewBox="0 0 20.626 20.626">
  <defs>
    <style>
      .cls-1 {
        fill: #1fa1af;
      }
    </style>
  </defs>
  <path id="aqua-park" class="cls-1" d="M7.735,17.189V13.321a1.289,1.289,0,1,0-2.578,0v3.867a.43.43,0,0,1-.859,0V13.321a2.149,2.149,0,1,1,4.3,0v3.867a.43.43,0,0,1-.859,0ZM.022,4.433a.43.43,0,0,1,.15-.48L4.641.6a3.008,3.008,0,0,1,3.61,0L12.72,3.953a.43.43,0,0,1-.258.773H11.6V6.875H12.1a3.008,3.008,0,0,1,2.941,2.378l.582,2.717a1.171,1.171,0,0,0,1.139.921H20.2a.43.43,0,1,1,0,.859H18.048v3.438a.43.43,0,1,1-.859,0V13.751h-.43a2.035,2.035,0,0,1-1.979-1.6L14.2,9.433a2.16,2.16,0,0,0-2.1-1.7H11.6v9.454a.43.43,0,0,1-.859,0V7.735H2.149v9.454a.43.43,0,0,1-.859,0V4.727H.43A.43.43,0,0,1,.022,4.433Zm10.721.294H2.149V6.875h8.594ZM1.719,3.867h9.454L7.735,1.289a2.149,2.149,0,0,0-2.578,0ZM20.429,18.486a.43.43,0,0,0-.594.13,2.492,2.492,0,0,1-4.2,0,.43.43,0,0,0-.362-.2H15.25a.43.43,0,0,0-.362.2,2.492,2.492,0,0,1-4.2,0,.43.43,0,0,0-.362-.2H10.3a.43.43,0,0,0-.362.2,2.492,2.492,0,0,1-4.2,0,.43.43,0,0,0-.362-.2H5.355a.43.43,0,0,0-.362.2,2.492,2.492,0,0,1-4.2,0,.43.43,0,1,0-.724.464,3.352,3.352,0,0,0,5.3.457,3.352,3.352,0,0,0,4.947,0,3.352,3.352,0,0,0,4.947,0,3.352,3.352,0,0,0,5.3-.457A.43.43,0,0,0,20.429,18.486Z" transform="translate(0)"/>
</svg>
