<svg xmlns="http://www.w3.org/2000/svg" viewBox="0 0 25.455 16.834">
  <defs>
    <style>
      .cls-1 {
        fill: #F9856E;
      }
    </style>
  </defs>
  <g id="bus" transform="translate(0 -69.516)">
    <path id="Path_35" data-name="Path 35" class="cls-1" d="M79.3,275.387a1.278,1.278,0,1,0,1.278,1.278A1.28,1.28,0,0,0,79.3,275.387Zm0,1.627a.348.348,0,1,1,.348-.348A.349.349,0,0,1,79.3,277.014Z" transform="translate(-73.188 -193.106)"/>
    <path id="Path_36" data-name="Path 36" class="cls-1" d="M292.536,275.387a1.278,1.278,0,1,0,1.278,1.278A1.28,1.28,0,0,0,292.536,275.387Zm0,1.627a.348.348,0,1,1,.348-.348A.349.349,0,0,1,292.536,277.014Z" transform="translate(-273.198 -193.106)"/>
    <path id="Path_37" data-name="Path 37" class="cls-1" d="M24.865,81.317V72.2a2.687,2.687,0,0,0-2.684-2.684H4.76a4.175,4.175,0,0,0-4.17,4.17v7.63A1.472,1.472,0,0,0,0,82.5v.057a1.474,1.474,0,0,0,1.473,1.473H3.366a2.79,2.79,0,0,0,5.5,0h7.721a2.79,2.79,0,0,0,5.5,0h1.893a1.474,1.474,0,0,0,1.473-1.473V82.5A1.472,1.472,0,0,0,24.865,81.317Zm-.93-4.829H22.658a.119.119,0,0,1-.118-.118V72.784a.119.119,0,0,1,.118-.118h1.276Zm-23,6.065V82.5a.543.543,0,0,1,.543-.543H3.838a2.775,2.775,0,0,0-.472,1.143H1.473A.543.543,0,0,1,.93,82.552ZM6.117,85.42a1.86,1.86,0,1,1,1.86-1.86A1.862,1.862,0,0,1,6.117,85.42Zm10.471-2.325H8.867a2.788,2.788,0,0,0-3.908-2.073H1.52V73.686a3.244,3.244,0,0,1,3.24-3.24H22.18a1.757,1.757,0,0,1,1.691,1.289H22.658a1.05,1.05,0,0,0-1.049,1.049v3.585a1.05,1.05,0,0,0,1.049,1.049h1.276v3.6H20.5a2.788,2.788,0,0,0-3.908,2.073Zm2.751,2.325a1.86,1.86,0,1,1,1.86-1.86A1.862,1.862,0,0,1,19.338,85.42Zm5.186-2.868a.543.543,0,0,1-.543.543H22.089a2.775,2.775,0,0,0-.472-1.143h2.366a.543.543,0,0,1,.543.543Z" transform="translate(0 0)"/>
    <path id="Path_38" data-name="Path 38" class="cls-1" d="M59.969,109.942v-3.585a1.05,1.05,0,0,0-1.049-1.049H44.6a2.246,2.246,0,0,0-2.244,2.244v2.39a1.05,1.05,0,0,0,1.049,1.049H58.921A1.05,1.05,0,0,0,59.969,109.942Zm-8.34-3.7h3.656v3.822H51.629Zm-.93,3.822H47.043v-3.822H50.7Zm-7.41-.118v-2.39a1.315,1.315,0,0,1,1.314-1.314h1.511v3.822H43.407A.119.119,0,0,1,43.288,109.942Zm15.751,0a.119.119,0,0,1-.118.118H56.215v-3.822h2.706a.119.119,0,0,1,.118.118Z" transform="translate(-39.732 -33.573)"/>
    <path id="Path_39" data-name="Path 39" class="cls-1" d="M362.5,223.089a.465.465,0,0,0,.465-.465v-.413a.465.465,0,0,0-.93,0v.413A.465.465,0,0,0,362.5,223.089Z" transform="translate(-339.588 -142.791)"/>
  </g>
</svg>
