<svg xmlns="http://www.w3.org/2000/svg" viewBox="0 0 22.052 21.992">
  <defs>
    <style>
      .cls-1 {
        fill: #1fa1af;
      }
    </style>
  </defs>
  <g id="fruit" transform="translate(0 -0.653)">
    <g id="Group_19" data-name="Group 19" transform="translate(14.334 5.382)">
      <g id="Group_18" data-name="Group 18" transform="translate(0 0)">
        <rect id="Rectangle_29" data-name="Rectangle 29" class="cls-1" width="0.735" height="0.735" transform="translate(0 0.004) rotate(-0.309)"/>
      </g>
    </g>
    <g id="Group_21" data-name="Group 21" transform="translate(0 0.653)">
      <g id="Group_20" data-name="Group 20">
        <path id="Path_34" data-name="Path 34" class="cls-1" d="M21.685,12.355H16.467l.441-6.591a.371.371,0,0,0-.1-.276.4.4,0,0,0-.269-.115l-.735,0,0,.735h.34l-.088,1.315L15,8.018a4.058,4.058,0,0,1-3.6.158V6.135L13.6,6.123l0-.735L11.4,5.4V3.737l3.872-2.462L14.873.653,10.831,3.225a.367.367,0,0,0-.17.31V5.4L5.517,5.43a.368.368,0,0,0-.365.37c0,.008,0,.015,0,.023l.409,6.133a6.271,6.271,0,0,0-.514,1.229,3.653,3.653,0,0,0-3.185-1.871.368.368,0,0,0-.367.367,3.628,3.628,0,0,0,.6,2.005,2.035,2.035,0,0,0-.441.294l-.107.094a4.557,4.557,0,0,0-1.4,4.582l.225.868a4.571,4.571,0,0,0,1.893,2.661,2.575,2.575,0,0,0,2.7.1l-.021-.037a8.933,8.933,0,0,0,2.115.357c.073,0,.147,0,.223.005v.03H12.13a9.914,9.914,0,0,0,9.922-9.9v-.018A.368.368,0,0,0,21.685,12.355Zm-5.359.935v-.2h3.66a7.883,7.883,0,0,1-4.679,6.832,7.8,7.8,0,0,1-2.138.6,8.434,8.434,0,0,0,1.448-1.636A9.953,9.953,0,0,0,16.326,13.291ZM10.66,6.138V7.915a4.789,4.789,0,0,0-3.589.42l-.978.544L5.912,6.162ZM6.671,11.6l.045-.058-.469-.362-.1-1.489,1.28-.713a4.056,4.056,0,0,1,3.632-.147,4.79,4.79,0,0,0,4.293-.173L16,8.3l-.165,2.471a1.226,1.226,0,0,0-.267-.156l-.549-.229a1.042,1.042,0,0,0-.905.048,1.063,1.063,0,0,0-.538.756,9.7,9.7,0,0,1-3.32,5.778,4.55,4.55,0,0,0-1.511-2.89l-.107-.094a2,2,0,0,0-2.616-.037l-.463.386A5.51,5.51,0,0,1,6.671,11.6ZM4.754,14.572a2.923,2.923,0,0,1-2.5-2.5A2.924,2.924,0,0,1,4.754,14.572Zm-2.079,7A3.839,3.839,0,0,1,1.086,19.34l-.225-.867a3.826,3.826,0,0,1,1.178-3.847h0l.107-.094a1.277,1.277,0,0,1,.446-.247,3.638,3.638,0,0,0,2.557,1.047.361.361,0,0,0,.069-.014,1,1,0,0,0,.57-.225l.7-.588a1.268,1.268,0,0,1,1.66.024l.107.094a3.82,3.82,0,0,1,1.3,2.872,9.706,9.706,0,0,1-4.845,1.733l-1.628.122a.368.368,0,0,0-.34.367v1.339a.368.368,0,0,0,.184.317l.051.03a8.95,8.95,0,0,0,.93.47A1.848,1.848,0,0,1,2.675,21.574Zm4.421.3h0a8.237,8.237,0,0,1-3.62-1.033v-.785l1.286-.1A10.476,10.476,0,0,0,14.3,11.313a.331.331,0,0,1,.167-.237.306.306,0,0,1,.269-.014l.549.229a.494.494,0,0,1,.3.457v1.543a9.224,9.224,0,0,1-1.584,5.185A7.807,7.807,0,0,1,7.1,21.876Zm5.035.035H10.959a8.451,8.451,0,0,0,1.171-.617v.034a8.526,8.526,0,0,0,3.474-.733,8.618,8.618,0,0,0,5.117-7.5h.589A9.178,9.178,0,0,1,12.13,21.91Z" transform="translate(0 -0.653)"/>
      </g>
    </g>
    <g id="Group_23" data-name="Group 23" transform="translate(16.908 13.825)">
      <g id="Group_22" data-name="Group 22">
        <rect id="Rectangle_30" data-name="Rectangle 30" class="cls-1" width="0.735" height="0.735"/>
      </g>
    </g>
    <g id="Group_25" data-name="Group 25" transform="translate(15.805 17.5)">
      <g id="Group_24" data-name="Group 24">
        <rect id="Rectangle_31" data-name="Rectangle 31" class="cls-1" width="0.735" height="0.735"/>
      </g>
    </g>
    <g id="Group_27" data-name="Group 27" transform="translate(16.908 16.03)">
      <g id="Group_26" data-name="Group 26">
        <rect id="Rectangle_32" data-name="Rectangle 32" class="cls-1" width="0.735" height="0.735"/>
      </g>
    </g>
  </g>
</svg>
