<svg xmlns="http://www.w3.org/2000/svg" viewBox="0 0 18.741 25.588">
  <defs>
    <style>
      .cls-1 {
        fill: #F9856E;
      }
    </style>
  </defs>
  <g id="guide" transform="translate(0 0)">
    <path id="Path_60" data-name="Path 60" class="cls-1" d="M76.5,50.248a1.5,1.5,0,0,0,1.1-.487,2.615,2.615,0,0,0,3.039,0,1.5,1.5,0,1,0,1.1-2.512H81.72a2.624,2.624,0,0,0-5.193,0H76.5a1.5,1.5,0,0,0,0,3Zm.782-2.281a2.63,2.63,0,0,0,1.842-1.242,2.63,2.63,0,0,0,1.842,1.242,1.874,1.874,0,0,1-3.684,0Zm5.216.781a.749.749,0,0,1-1.312.5A2.611,2.611,0,0,0,81.72,48h.027A.751.751,0,0,1,82.5,48.748ZM80.948,47.2a1.88,1.88,0,0,1-1.4-1.4A1.879,1.879,0,0,1,80.948,47.2ZM78.7,45.8a1.88,1.88,0,0,1-1.4,1.4A1.879,1.879,0,0,1,78.7,45.8ZM76.5,48h.027a2.61,2.61,0,0,0,.535,1.245A.749.749,0,1,1,76.5,48Zm0,0" transform="translate(-71.252 -42.751)"/>
    <path id="Path_61" data-name="Path 61" class="cls-1" d="M18.534,2.289,14.036.04a.375.375,0,0,0-.543.335v4.49q0,.008,0,.016V9.246h-2.3a1.377,1.377,0,0,0-1.322-1h-4a1.377,1.377,0,0,0-1.318.986,4.128,4.128,0,0,1-3.8-4.11.375.375,0,0,0-.75,0A4.879,4.879,0,0,0,4.5,9.981v7.636a.375.375,0,0,0,.375.375H6v6.452l-1.243.414a.375.375,0,1,0,.237.711l1.5-.5a.375.375,0,0,0,.256-.355V17.992H9v6.722a.375.375,0,0,0,.256.355l1.5.5a.375.375,0,0,0,.237-.711l-1.243-.414V17.992H10.87a.375.375,0,0,0,.375-.375V10h3.373a1.124,1.124,0,1,0,0-2.249h-.375V5.1l4.291-2.145a.375.375,0,0,0,0-.67ZM10.5,9.621v6.058a1.126,1.126,0,0,1-.75-1.06V9H9.87A.626.626,0,0,1,10.5,9.621ZM6.747,9H7.5V11.62a.375.375,0,1,0,.75,0V9H9v3.748H6.747ZM5.872,9H6v5.622a1.126,1.126,0,0,1-.75,1.06V9.621A.626.626,0,0,1,5.872,9Zm-.625,8.246v-.788a1.877,1.877,0,0,0,1.5-1.836V13.494H9v1.124a1.877,1.877,0,0,0,1.5,1.836v.788ZM14.618,8.5a.375.375,0,1,1,0,.75h-.375V8.5Zm-.375-4.23V.982l3.285,1.642Zm0,0" transform="translate(0 0)"/>
  </g>
</svg>
