<svg id="hotel" xmlns="http://www.w3.org/2000/svg" viewBox="0 0 16.784 22.401">
  <defs>
    <style>
      .cls-1 {
        fill: #F9856E;
      }
    </style>
  </defs>
  <path id="Path_25" data-name="Path 25" class="cls-1" d="M16.784,5.2V4.057a.613.613,0,0,0-.613-.613H10.2V3.018h1.128a.623.623,0,0,0,.622-.622V.622A.623.623,0,0,0,11.329,0H5.455a.623.623,0,0,0-.622.622V2.4a.623.623,0,0,0,.622.622H6.582v.427H.613A.614.614,0,0,0,0,4.058V5.2a.614.614,0,0,0,.48.6v5.951a.614.614,0,0,0-.48.6V13.5a.614.614,0,0,0,.48.6v5.951a.614.614,0,0,0-.48.6v1.145a.613.613,0,0,0,.613.613H16.171a.613.613,0,0,0,.613-.613V20.643a.614.614,0,0,0-.48-.6V14.094a.613.613,0,0,0,.48-.6V12.35a.614.614,0,0,0-.48-.6V5.8A.614.614,0,0,0,16.784,5.2ZM5.489.656h5.806V2.362H5.489Zm1.75,2.362H9.545v.427H7.239ZM.656,4.1H16.127V5.159H.656Zm12.351,7.636a.328.328,0,0,0,0,.656h3.12v1.058H.656V12.394H11.783a.328.328,0,0,0,0-.656H1.137V5.816h14.51v5.922Zm-2.47,8.293V17.1a2.145,2.145,0,1,0-4.291,0V20.03H1.137V14.108h14.51V20.03Zm-3.634,0V17.1a1.489,1.489,0,1,1,2.978,0V20.03Zm9.225,1.715H.656V20.687H16.127Zm0,0" transform="translate(0)"/>
  <path id="Path_26" data-name="Path 26" class="cls-1" d="M47.765,344.469H45.68a.681.681,0,0,0-.68.68v2.085a.681.681,0,0,0,.68.68h2.085a.681.681,0,0,0,.68-.68v-2.085A.681.681,0,0,0,47.765,344.469Zm.024.68v.714h-.738v-.738h.714A.024.024,0,0,1,47.789,345.149Zm-2.109-.024h.715v.738h-.738v-.714A.024.024,0,0,1,45.68,345.125Zm-.024,2.109v-.714h.738v.738H45.68A.024.024,0,0,1,45.656,347.234Zm2.109.024h-.714v-.738h.738v.714A.024.024,0,0,1,47.765,347.258Zm0,0" transform="translate(-43.031 -329.397)"/>
  <path id="Path_27" data-name="Path 27" class="cls-1" d="M262.621,344.469h-2.085a.681.681,0,0,0-.68.68v2.085a.681.681,0,0,0,.68.68h2.085a.681.681,0,0,0,.68-.68v-2.085A.681.681,0,0,0,262.621,344.469Zm.024.68v.714h-.738v-.738h.714A.024.024,0,0,1,262.645,345.149Zm-2.109-.024h.715v.738h-.738v-.714A.024.024,0,0,1,260.536,345.125Zm-.024,2.109v-.714h.738v.738h-.715A.024.024,0,0,1,260.512,347.234Zm2.109.024h-.714v-.738h.738v.714A.024.024,0,0,1,262.621,347.258Zm0,0" transform="translate(-248.486 -329.397)"/>
  <path id="Path_28" data-name="Path 28" class="cls-1" d="M47.765,161.223H45.68a.681.681,0,0,0-.68.68v2.085a.681.681,0,0,0,.68.68h2.085a.681.681,0,0,0,.68-.68V161.9A.681.681,0,0,0,47.765,161.223Zm.024.68v.714h-.738v-.738h.714A.024.024,0,0,1,47.789,161.9Zm-2.109-.024h.715v.738h-.738V161.9A.024.024,0,0,1,45.68,161.879Zm-.024,2.109v-.714h.738v.738H45.68A.024.024,0,0,1,45.656,163.988Zm2.109.024h-.714v-.738h.738v.714A.024.024,0,0,1,47.765,164.012Zm0,0" transform="translate(-43.031 -154.169)"/>
  <path id="Path_29" data-name="Path 29" class="cls-1" d="M262.621,161.223h-2.085a.681.681,0,0,0-.68.68v2.085a.681.681,0,0,0,.68.68h2.085a.681.681,0,0,0,.68-.68V161.9A.681.681,0,0,0,262.621,161.223Zm.024.68v.714h-.738v-.738h.714A.024.024,0,0,1,262.645,161.9Zm-2.109-.024h.715v.738h-.738V161.9A.024.024,0,0,1,260.536,161.879Zm-.024,2.109v-.714h.738v.738h-.715A.024.024,0,0,1,260.512,163.988Zm2.109.024h-.714v-.738h.738v.714A.024.024,0,0,1,262.621,164.012Zm0,0" transform="translate(-248.486 -154.169)"/>
  <path id="Path_30" data-name="Path 30" class="cls-1" d="M155.195,161.223H153.11a.681.681,0,0,0-.68.68v2.085a.681.681,0,0,0,.68.68h2.085a.681.681,0,0,0,.68-.68V161.9A.681.681,0,0,0,155.195,161.223Zm.024.68v.714h-.738v-.738h.714A.024.024,0,0,1,155.219,161.9Zm-2.109-.024h.714v.738h-.738V161.9A.024.024,0,0,1,153.11,161.879Zm-.024,2.109v-.714h.738v.738h-.714A.024.024,0,0,1,153.086,163.988Zm2.109.024h-.714v-.738h.738v.714A.024.024,0,0,1,155.195,164.012Zm0,0" transform="translate(-145.761 -154.169)"/>
</svg>
