<svg xmlns="http://www.w3.org/2000/svg" viewBox="0 0 22.128 21.321">
  <defs>
    <style>
      .cls-1 {
        fill: #F9856E;
      }
    </style>
  </defs>
  <g id="map-location" transform="translate(0 -1.002)">
    <path id="Path_47" data-name="Path 47" class="cls-1" d="M20.789,23.013H16.405a.4.4,0,0,0,0,.8h3.661l1.166,10.859H.912L2.281,23.817H5.948a.4.4,0,1,0,0-.8H1.571L0,35.481H22.128Z" transform="translate(0 -13.158)"/>
    <path id="Path_48" data-name="Path 48" class="cls-1" d="M20.159,16.272c-.059.035-.122.066-.179.1-.088.057-.175.117-.26.179a.4.4,0,0,0,.476.649c.072-.053.144-.1.22-.152a4.421,4.421,0,0,1,.408-.234.4.4,0,0,0,.186-.51l.01-.009a18.019,18.019,0,0,0,4.195-8.47,8.266,8.266,0,0,0,.138-2.783C25.007,2.4,23.364,1,20.6,1S16.2,2.4,15.85,5.045a8.276,8.276,0,0,0,.138,2.783A18.049,18.049,0,0,0,20.159,16.272ZM16.648,5.149C16.943,2.9,18.236,1.807,20.6,1.807S24.261,2.9,24.556,5.149a7.487,7.487,0,0,1-.127,2.513,17.7,17.7,0,0,1-3.827,7.9,17.7,17.7,0,0,1-3.827-7.9A7.487,7.487,0,0,1,16.648,5.149Z" transform="translate(-9.439)"/>
    <path id="Path_49" data-name="Path 49" class="cls-1" d="M23.364,11.142a2.955,2.955,0,1,0-2.955-2.955A2.958,2.958,0,0,0,23.364,11.142Zm0-5.1a2.15,2.15,0,1,1-2.15,2.15A2.153,2.153,0,0,1,23.364,6.038Z" transform="translate(-12.2 -2.529)"/>
    <path id="Path_50" data-name="Path 50" class="cls-1" d="M30.955,36.961a.4.4,0,0,0,.168.787c.236-.05.491-.092.759-.126a.4.4,0,0,0-.1-.8C31.492,36.859,31.213,36.905,30.955,36.961Z" transform="translate(-18.315 -21.412)"/>
    <path id="Path_51" data-name="Path 51" class="cls-1" d="M36.6,36.9a.4.4,0,0,0,.4.385h.018l.8-.033a.4.4,0,0,0,.383-.42.412.412,0,0,0-.42-.384l-.8.033A.4.4,0,0,0,36.6,36.9Z" transform="translate(-21.878 -21.19)"/>
    <path id="Path_52" data-name="Path 52" class="cls-1" d="M21.216,42.057c-.207.156-.42.306-.635.445a.4.4,0,0,0,.438.675c.23-.15.46-.311.682-.478a.4.4,0,1,0-.485-.642Z" transform="translate(-12.194 -24.494)"/>
    <path id="Path_53" data-name="Path 53" class="cls-1" d="M43.438,35.426a1.433,1.433,0,0,1-.541.212.4.4,0,1,0,.163.788,2.212,2.212,0,0,0,.843-.343l.054-.039a.4.4,0,0,0-.485-.642Z" transform="translate(-25.452 -20.515)"/>
    <path id="Path_54" data-name="Path 54" class="cls-1" d="M7.567,42.647a.4.4,0,1,0-.776-.21A2.69,2.69,0,0,0,6.7,43c0,.046,0,.093,0,.142,0,.079,0,.158.012.236a.4.4,0,0,0,.4.361l.041,0a.4.4,0,0,0,.36-.441c-.006-.053-.008-.106-.008-.157,0-.033,0-.067,0-.1A1.874,1.874,0,0,1,7.567,42.647Z" transform="translate(-4.003 -24.592)"/>
    <path id="Path_55" data-name="Path 55" class="cls-1" d="M42.836,27.78a2.365,2.365,0,0,0-.96.073.4.4,0,0,0,.109.789.393.393,0,0,0,.109-.015,1.57,1.57,0,0,1,.633-.049.4.4,0,0,0,.108-.8Z" transform="translate(-24.859 -15.996)"/>
    <path id="Path_56" data-name="Path 56" class="cls-1" d="M46.633,31.169a.4.4,0,0,0,.265.5.394.394,0,0,0,.119.018.4.4,0,0,0,.384-.284,1.714,1.714,0,0,0,.074-.387c0-.033,0-.067,0-.1a1.605,1.605,0,0,0-.1-.56.4.4,0,1,0-.754.28.806.806,0,0,1,.052.28v.047A.907.907,0,0,1,46.633,31.169Z" transform="translate(-27.855 -17.393)"/>
    <path id="Path_57" data-name="Path 57" class="cls-1" d="M16.038,45.107c-.236.111-.476.213-.714.305a.4.4,0,0,0,.145.777.4.4,0,0,0,.145-.027c.255-.1.513-.209.765-.327a.4.4,0,0,0-.342-.729Z" transform="translate(-9.007 -26.343)"/>
    <path id="Path_58" data-name="Path 58" class="cls-1" d="M9.6,39.553a.4.4,0,0,0,.192-.049.984.984,0,0,1,.366-.116.652.652,0,0,1,.163,0,.4.4,0,0,0,.105-.8,1.485,1.485,0,0,0-.358,0,1.788,1.788,0,0,0-.662.21.4.4,0,0,0,.193.755Z" transform="translate(-5.499 -22.463)"/>
    <path id="Path_59" data-name="Path 59" class="cls-1" d="M9.545,47.665a1.993,1.993,0,0,0,.263.05,2.569,2.569,0,0,0,.309.019,2.984,2.984,0,0,0,.378-.025.4.4,0,1,0-.1-.8,1.971,1.971,0,0,1-.489.006,1.342,1.342,0,0,1-.158-.03.4.4,0,1,0-.2.778Z" transform="translate(-5.526 -27.422)"/>
  </g>
</svg>
