<svg xmlns="http://www.w3.org/2000/svg" viewBox="0 0 15.692 21.59">
  <defs>
    <style>
      .cls-1 {
        fill: #1fa1af;
      }
    </style>
  </defs>
  <g id="passport" transform="translate(-69.932)">
    <g id="Group_29" data-name="Group 29" transform="translate(69.932 0)">
      <g id="Group_28" data-name="Group 28">
        <path id="Path_40" data-name="Path 40" class="cls-1" d="M85.21.284a1.182,1.182,0,0,0-.952-.27L71.093,2.075a.421.421,0,0,0-.134.045,1.4,1.4,0,0,0-1.027,1.347V20.192a1.4,1.4,0,0,0,1.4,1.4H82.39a1.184,1.184,0,0,0,1.183-1.183v-.878l1.054-.168a1.178,1.178,0,0,0,1-1.168V1.183A1.181,1.181,0,0,0,85.21.284ZM82.73,18.809v1.6a.34.34,0,0,1-.34.34H71.33a.555.555,0,0,1-.554-.554V3.468a.555.555,0,0,1,.554-.554H82.39a.34.34,0,0,1,.34.34Zm2.051-.616h0a.338.338,0,0,1-.286.335l-.921.147V3.253A1.184,1.184,0,0,0,82.39,2.07H76.579L84.389.847a.34.34,0,0,1,.392.336V18.192Z" transform="translate(-69.932 0)"/>
      </g>
    </g>
    <g id="Group_31" data-name="Group 31" transform="translate(72.011 3.613)">
      <g id="Group_30" data-name="Group 30" transform="translate(0)">
        <path id="Path_41" data-name="Path 41" class="cls-1" d="M128.4,88.726c-.021-.054-.042-.108-.065-.162a.422.422,0,1,0-.776.329c.019.044.037.089.054.133a3.905,3.905,0,0,1-.649,3.888L123.97,96.5l-2.994-3.59a3.9,3.9,0,0,1,4.445-6.117.422.422,0,0,0,.313-.783,4.743,4.743,0,0,0-5.406,7.44l3.318,3.978a.422.422,0,0,0,.648,0l3.318-3.978A4.75,4.75,0,0,0,128.4,88.726Z" transform="translate(-119.228 -85.673)"/>
      </g>
    </g>
    <g id="Group_33" data-name="Group 33" transform="translate(73.658 16.433)">
      <g id="Group_32" data-name="Group 32">
        <path id="Path_42" data-name="Path 42" class="cls-1" d="M164.06,389.7h-5.346a.422.422,0,1,0,0,.843h5.346a.422.422,0,0,0,0-.843Z" transform="translate(-158.292 -389.704)"/>
      </g>
    </g>
    <g id="Group_35" data-name="Group 35" transform="translate(80.775 18.441)">
      <g id="Group_34" data-name="Group 34" transform="translate(0)">
        <path id="Path_43" data-name="Path 43" class="cls-1" d="M327.916,437.674a.4.4,0,0,0-.024-.079.414.414,0,0,0-.039-.073.41.41,0,0,0-.116-.116.418.418,0,0,0-.073-.039.388.388,0,0,0-.079-.024.415.415,0,0,0-.165,0,.4.4,0,0,0-.079.024.43.43,0,0,0-.073.039.4.4,0,0,0-.064.052.429.429,0,0,0-.053.064.414.414,0,0,0-.039.073.428.428,0,0,0-.024.079.427.427,0,0,0,0,.164.441.441,0,0,0,.024.079.428.428,0,0,0,.039.073l.008.01a.432.432,0,0,0,.045.054.409.409,0,0,0,.137.091.449.449,0,0,0,.079.024.414.414,0,0,0,.244-.024.414.414,0,0,0,.073-.038.425.425,0,0,0,.064-.053.4.4,0,0,0,.052-.064.431.431,0,0,0,.039-.073c0-.012.009-.024.013-.036a.444.444,0,0,0,.011-.044.4.4,0,0,0,0-.164Z" transform="translate(-327.081 -437.335)"/>
      </g>
    </g>
    <g id="Group_37" data-name="Group 37" transform="translate(71.887 18.441)">
      <g id="Group_36" data-name="Group 36" transform="translate(0)">
        <path id="Path_44" data-name="Path 44" class="cls-1" d="M123.9,437.331h-7.192a.422.422,0,1,0,0,.843H123.9a.422.422,0,1,0,0-.843Z" transform="translate(-116.285 -437.331)"/>
      </g>
    </g>
    <g id="Group_39" data-name="Group 39" transform="translate(73.643 5.397)">
      <g id="Group_38" data-name="Group 38" transform="translate(0)">
        <path id="Path_45" data-name="Path 45" class="cls-1" d="M164.167,131.089s0,0,0-.007a3.112,3.112,0,0,0-3.1-3.1h-.012a3.113,3.113,0,0,0-3.109,3.109s0,0,0,0,0,.007,0,.01a3.109,3.109,0,0,0,6.218-.014Zm-5.356-.286a2.271,2.271,0,0,1,1.6-1.885,7.118,7.118,0,0,0-.337,2.178A6.219,6.219,0,0,1,158.811,130.8Zm.068.906a7.04,7.04,0,0,0,1.25.241,7.1,7.1,0,0,0,.288,1.312A2.274,2.274,0,0,1,158.879,131.709Zm2.459,1.628a6.242,6.242,0,0,1-.354-1.354,7.09,7.09,0,0,0,1.337-.157l.938-.2A2.271,2.271,0,0,1,161.338,133.338Zm.806-2.335a6.243,6.243,0,0,1-1.224.138,6.263,6.263,0,0,1,.414-2.3,2.27,2.27,0,0,1,1.965,1.913Z" transform="translate(-157.949 -127.981)"/>
      </g>
    </g>
    <g id="Group_41" data-name="Group 41" transform="translate(79.386 4.879)">
      <g id="Group_40" data-name="Group 40">
        <path id="Path_46" data-name="Path 46" class="cls-1" d="M294.966,116.051a.448.448,0,0,0-.024-.079.428.428,0,0,0-.039-.073.4.4,0,0,0-.052-.064.416.416,0,0,0-.137-.092.425.425,0,0,0-.079-.024.416.416,0,0,0-.165,0,.425.425,0,0,0-.079.024.452.452,0,0,0-.073.039.48.48,0,0,0-.064.053.43.43,0,0,0-.091.137.446.446,0,0,0-.024.079.421.421,0,0,0-.008.083.416.416,0,0,0,.008.082.427.427,0,0,0,.024.079.417.417,0,0,0,.039.073.43.43,0,0,0,.052.064.446.446,0,0,0,.064.052.452.452,0,0,0,.073.039.428.428,0,0,0,.161.032.416.416,0,0,0,.082-.008.426.426,0,0,0,.079-.024.451.451,0,0,0,.073-.039.424.424,0,0,0,.064-.052.4.4,0,0,0,.052-.064.417.417,0,0,0,.039-.073.429.429,0,0,0,.024-.079.417.417,0,0,0,.008-.082A.421.421,0,0,0,294.966,116.051Z" transform="translate(-294.131 -115.711)"/>
      </g>
    </g>
  </g>
</svg>
