<svg id="Group_83" data-name="Group 83" xmlns="http://www.w3.org/2000/svg" viewBox="0 0 23.128 19.507">
  <defs>
    <style>
      .cls-1 {
        fill: #1fa1af;
      }
    </style>
  </defs>
  <g id="Group_42" data-name="Group 42">
    <path id="Path_77" data-name="Path 77" class="cls-1" d="M22.789,58.906H22.4V57.8a.339.339,0,0,0-.339-.339H21.68V48.721h.385a.339.339,0,0,0,.339-.339v-.8a1.063,1.063,0,0,0,.15-1.952L12.053,40.2a1.062,1.062,0,0,0-.977,0L.575,45.627a1.062,1.062,0,0,0,.15,1.951v.8a.339.339,0,0,0,.339.339h.385v8.737H1.063a.339.339,0,0,0-.339.339v1.11H.339a.339.339,0,1,0,0,.678h22.45a.339.339,0,1,0,0-.678ZM.947,46.939a.386.386,0,0,1-.061-.71l10.5-5.432a.385.385,0,0,1,.354,0l10.5,5.431a.385.385,0,0,1-.178.728.379.379,0,0,1-.177-.043L11.72,41.654a.339.339,0,0,0-.311,0L1.24,46.913A.381.381,0,0,1,.947,46.939Zm.455,1.1v-.465a1.077,1.077,0,0,0,.15-.063l.47-.243H16.271a.339.339,0,1,0,0-.678H3.331l8.233-4.258L19.8,46.595H17.72a.339.339,0,1,0,0,.678h3.387l.469.243a1.059,1.059,0,0,0,.15.063v.465Zm19.6.678v8.737h-.771V48.721Zm-2.2,4.392a1.416,1.416,0,0,0-.748.212V50.169h1.5v3.156A1.416,1.416,0,0,0,18.806,53.112Zm.748,1.426v2.919h-1.5V54.537a.748.748,0,0,1,1.5,0Zm-1.5-5.047v-.771h1.5v.771Zm-.678,5.047v2.919H16.61V48.72h.771v5.817Zm-2.2-1.426a1.416,1.416,0,0,0-.747.212V50.169h1.5v3.156A1.416,1.416,0,0,0,15.185,53.112Zm.748,1.425v2.92h-1.5V54.537a.748.748,0,0,1,1.5,0Zm-1.5-5.046v-.771h1.5v.771Zm-.678.34v4.706h0v2.919h-.771V48.721h.771v1.109h0Zm-2.2,3.281a1.416,1.416,0,0,0-.748.212V50.169h1.5v3.156A1.416,1.416,0,0,0,11.564,53.112Zm.748,1.426v2.919h-1.5v-2.92a.748.748,0,1,1,1.5,0Zm-1.5-5.047v-.771h1.5v.771Zm-.678-.771v8.737H9.368V48.721Zm-2.2,4.392a1.416,1.416,0,0,0-.748.212V50.169h1.5v3.156A1.416,1.416,0,0,0,7.943,53.112Zm.748,1.425v2.92H7.2V54.537a.748.748,0,0,1,1.5,0ZM7.2,49.491v-.771h1.5v.771Zm-.678,5.047v2.919H5.747V48.72h.771v5.817ZM3.574,49.491v-.771h1.5v.771Zm1.5.678v3.156a1.421,1.421,0,0,0-1.5,0V50.169ZM2.9,48.721v8.737H2.126V48.721ZM21.726,58.906H1.4v-.771H3.96a.339.339,0,1,0,0-.678H3.574v-2.92a.748.748,0,1,1,1.5,0V57.8h0a.339.339,0,0,0,.339.339H21.726Z" transform="translate(0 -40.076)"/>
  </g>
</svg>
