<svg id="vaccine" xmlns="http://www.w3.org/2000/svg" viewBox="0 0 16.275 24.412">
  <defs>
    <style>
      .cls-1 {
        fill: #F9856E;
      }
    </style>
  </defs>
  <path id="Path_31" data-name="Path 31" class="cls-1" d="M2.034,99.662H1.627A1.823,1.823,0,0,0,0,101.7v12.613a1.221,1.221,0,0,0,1.221,1.221h6.51a1.221,1.221,0,0,0,1.221-1.221V101.7a1.823,1.823,0,0,0-1.627-2.034H6.917v-1.2A.844.844,0,0,0,6.9,98.3a1.345,1.345,0,0,0,.423-1.078c0-.707-.342-1.221-.814-1.221H2.441c-.472,0-.814.514-.814,1.221A1.344,1.344,0,0,0,2.05,98.3a.844.844,0,0,0-.016.163Zm.407,5.289H6.51v4.069H2.441Zm4.882,4.882v-4.882h.814v6.51H.814v-6.51h.814v4.882Zm-4.882,4.882a.814.814,0,0,1,.814-.814H5.7a.814.814,0,0,1,.814.814Zm5.7-.448a.881.881,0,0,1-.407.448H7.324A1.628,1.628,0,0,0,5.7,113.089H3.255a1.628,1.628,0,0,0-1.627,1.627H1.238a.852.852,0,0,1-.424-.448v-1.994H8.137ZM.814,104.137v-1.221H8.137v1.221Zm6.51-3.662c.456,0,.814.536.814,1.221v.407H.814V101.7c0-.684.358-1.221.814-1.221h.407a.805.805,0,0,0,.814-.814V98.441l3.255.02v1.2a.805.805,0,0,0,.814.814Zm-4.8-3.662H6.428a1.042,1.042,0,0,1,0,.814H2.523A1.042,1.042,0,0,1,2.523,96.814Zm0,0" transform="translate(0 -91.118)"/>
  <path id="Path_32" data-name="Path 32" class="cls-1" d="M210.441,0V4.069h-.407a.407.407,0,0,0-.407.407V6.51a.407.407,0,0,0-.407.407v11.8h-.814a.407.407,0,0,0-.407.407V20.75a.407.407,0,0,0,.407.407h1.221V23.6h-1.221v.814h4.882V23.6h-1.221V21.157h1.221a.407.407,0,0,0,.407-.407V19.123a.407.407,0,0,0-.407-.407h-.814V6.917a.407.407,0,0,0-.407-.407V4.476a.407.407,0,0,0-.407-.407h-.407V0Zm1.221,8.137h-1.627V7.324h1.627ZM211.255,23.6h-.814V21.157h.814Zm1.627-3.255h-4.069V19.53h4.069Zm-2.848-1.627V17.089h.814v-.814h-.814v-.814h.814v-.814h-.814v-.814h.814V13.02h-.814v-.814h.814v-.814h-.814V8.951h1.627v9.765Zm.407-12.206V4.882h.814V6.51Zm0,0" transform="translate(-197.421)"/>
  <path id="Path_33" data-name="Path 33" class="cls-1" d="M66.441,288.814h-.814V288h-.814v.814H64v.814h.814v.814h.814v-.814h.814Zm0,0" transform="translate(-60.745 -273.353)"/>
</svg>
