<svg xmlns="http://www.w3.org/2000/svg" width="120" height="49.836" viewBox="0 0 120 49.836">
  <path id="logo" d="M21.816,11.351,13.554,34.039l-.009.026c-.2.743-.525.828-.761.828-.1,0-.37-.085-.775-.875L3.243,11.351H0l9.728,24.1a2.121,2.121,0,0,0,1.2,1.574,3.438,3.438,0,0,0,3.779-.02,3.01,3.01,0,0,0,1.165-1.543l9.2-24.116H21.816Zm33.432,2.742a11.65,11.65,0,0,0-8.41-3.5,11.57,11.57,0,0,0-9.7,4.6,14,14,0,0,0-3.082,8.749V49.836h3.284V33.424A10.4,10.4,0,0,0,41.327,37.2l.026.013a12.024,12.024,0,0,0,5.3,1.115,11.883,11.883,0,0,0,9.692-4.41,15.825,15.825,0,0,0,3.082-9.79,13.062,13.062,0,0,0-4.184-10.031ZM37.347,24.47a10.489,10.489,0,0,1,2.631-7.446,8.618,8.618,0,0,1,6.861-2.951A8.24,8.24,0,0,1,53.5,17l.02.022a10.49,10.49,0,0,1,2.63,7.447,11.394,11.394,0,0,1-2.8,7.62c-1.261,1.364-4.413,2.435-6.754,2.942a9.331,9.331,0,0,1-5.487-1.807,10.319,10.319,0,0,1-3.272-4.61l-.49-1.366V24.471Zm50.9-13.646V27.831a6.289,6.289,0,0,1-2.235,4.956,7.764,7.764,0,0,1-5.355,1.937,7.423,7.423,0,0,1-5-1.6l-.02-.018A6.122,6.122,0,0,1,73.43,28V10.824H70.14V28.7A8.615,8.615,0,0,0,73.5,35.628a12.094,12.094,0,0,0,14.708-.174,9.067,9.067,0,0,0,3.323-7.1V10.824h-3.29Zm29.318,20.91-.466.585a5.592,5.592,0,0,1-2.511,1.744l-.079.033a6.175,6.175,0,0,1-2.87.63,6.553,6.553,0,0,1-4.157-1.443,4.094,4.094,0,0,1-1.683-3.536V14.474h9.578v-3.13H105.8V0H102.51V29.91a7.869,7.869,0,0,0,2.632,6.033l.025.021a9.81,9.81,0,0,0,6.471,2.223,10.723,10.723,0,0,0,4.066-.922,21,21,0,0,0,3.772-2.153L120,34.74Z" fill="#fff" fill-rule="evenodd"/>
</svg>
