<svg id="shuffle" xmlns="http://www.w3.org/2000/svg" width="37.991" height="40.859" viewBox="0 0 37.991 40.859">
  <g id="Group_81" data-name="Group 81">
    <path id="Path_2" data-name="Path 2" d="M30.737,327.388a1.165,1.165,0,0,0-1.638.234,10.138,10.138,0,0,1-8.155,4.064H17.72a1.17,1.17,0,0,0,0,2.34h3.233a12.409,12.409,0,0,0,5.685-1.361,12.543,12.543,0,0,0,4.333-3.64A1.174,1.174,0,0,0,30.737,327.388Z" transform="translate(-16.55 -298.8)" fill="#1fa1af"/>
    <path id="Path_3" data-name="Path 3" d="M213.579,12.139a1.183,1.183,0,0,0,1.647-.208,10.135,10.135,0,0,1,8.06-3.952h6.8l-3.631,3.631a1.174,1.174,0,0,0,.823,2,1.142,1.142,0,0,0,.823-.347l5.633-5.633a1.166,1.166,0,0,0,0-1.655L228.1.344A1.17,1.17,0,1,0,226.448,2l3.631,3.631h-6.8a12.466,12.466,0,0,0-9.914,4.862A1.19,1.19,0,0,0,213.579,12.139Z" transform="translate(-196.09 0)" fill="#1fa1af"/>
    <path id="Path_4" data-name="Path 4" d="M49.12,87.035a1.17,1.17,0,0,0-1.655,1.655L51.1,92.322h-6.8a10.212,10.212,0,0,1-10.2-10.2V77.615a12.553,12.553,0,0,0-12.54-12.54H18.32a1.17,1.17,0,1,0,0,2.34h3.233a10.212,10.212,0,0,1,10.2,10.2v4.506a12.553,12.553,0,0,0,12.54,12.54h6.8l-3.631,3.631a1.174,1.174,0,0,0,.823,2,1.142,1.142,0,0,0,.823-.347l5.633-5.633a1.166,1.166,0,0,0,0-1.655Z" transform="translate(-17.098 -59.435)" fill="#1fa1af"/>
  </g>
</svg>
