<svg xmlns="http://www.w3.org/2000/svg" width="69.148" height="51.838" viewBox="0 0 69.148 51.838"><g transform="translate(-0.061 0.038)"><path d="M6,27.1.3,16.6a2.263,2.263,0,0,1-.1-1.8,2.365,2.365,0,0,1,1.4-1.2l1.8-.5a2.561,2.561,0,0,1,2.4.6L16.4,24.4Zm-2-12H3.8L2,15.6v.1l5,9.1,5.5-1.4L4.4,15.2C4.3,15.1,4.2,15.1,4,15.1Z" fill="#1fa1af"/><path d="M7.7,42.9a1.33,1.33,0,0,1-.8-.3,1.159,1.159,0,0,1-.4-1h0l1-12.5L15.7,27a1.093,1.093,0,0,1,1.2.4,1.193,1.193,0,0,1,.2,1.3l-4.6,12A1.968,1.968,0,0,1,11,42l-3,.8C7.9,42.8,7.8,42.9,7.7,42.9ZM9.4,30.7l-.8,9.9,2-.5a.1.1,0,0,0,.1-.1l4.1-10.6Zm6-2.7Z" fill="#1fa1af"/><path d="M32.2,19,16.4,3.3A1.674,1.674,0,0,1,16,1.8a1.549,1.549,0,0,1,1.2-1L21.6,0a3.4,3.4,0,0,1,2,.3L49.1,14.1ZM18.6,2.6,32.8,16.8l11.1-3.2L22.6,2.1a1.483,1.483,0,0,0-.7-.1Z" fill="#1fa1af"/><path d="M32,51.8a1.284,1.284,0,0,1-1-.4,1.536,1.536,0,0,1-.5-1.3l2.7-23.4A3.628,3.628,0,0,1,36,23.5l11.7-2.9a2.242,2.242,0,0,1,2.2.7,2.132,2.132,0,0,1,.2,2.3L36.9,49.4a3.886,3.886,0,0,1-2.2,1.8l-2.3.6C32.3,51.7,32.1,51.8,32,51.8ZM48.3,22.5h0L36.6,25.4a1.693,1.693,0,0,0-1.3,1.5L32.7,49.5l1.5-.4a1.6,1.6,0,0,0,.9-.7L48.4,22.6c0,.1.1,0-.1-.1Z" fill="#1fa1af"/><path d="M19.5,33.8c-2.4,0-4.1-.2-4.2-.2l.2-2c.1,0,10.9,1.2,17.5-2.6l1,1.7C29.5,33.3,23.4,33.8,19.5,33.8Z" fill="#1fa1af"/><path d="M8.2,30.9,2.3,29.2a1.381,1.381,0,0,1-1-1.3,1.424,1.424,0,0,1,.9-1.3l50-15.5a9.518,9.518,0,0,1,8.2,1.2l2.2,1.5.6.3,4.1,1.6a3.04,3.04,0,0,1,1.9,3A3.1,3.1,0,0,1,67,21.5L48.1,26.9,47.5,25l18.9-5.4a.9.9,0,0,0,.7-.9.95.95,0,0,0-.6-1l-4-1.7a4.053,4.053,0,0,1-.9-.5L59.3,14a7.477,7.477,0,0,0-6.5-.9L5,27.9,8.8,29Z" fill="#1fa1af"/><path d="M55.5,17.9a.961.961,0,0,1-.9-.7,1.04,1.04,0,0,1,.6-1.3l6-2a1.012,1.012,0,0,1,.7,1.9l-6,2A.756.756,0,0,1,55.5,17.9Z" fill="#1fa1af"/></g></svg>