<svg id="Group_127" data-name="Group 127" xmlns="http://www.w3.org/2000/svg" width="67.404" height="31.5" viewBox="0 0 67.404 31.5">
  <path id="Path_48" data-name="Path 48" d="M63.2,31.5H4.3A4.268,4.268,0,0,1,0,27.2V4.3A4.268,4.268,0,0,1,4.3,0H63.1a4.268,4.268,0,0,1,4.3,4.3V27.1A4.152,4.152,0,0,1,63.2,31.5ZM4.3,1.5A2.8,2.8,0,0,0,1.5,4.3V27.1a2.8,2.8,0,0,0,2.8,2.8H63.1a2.8,2.8,0,0,0,2.8-2.8V4.3a2.8,2.8,0,0,0-2.8-2.8H4.3Z" fill="#1fa1af"/>
  <g id="Group_123" data-name="Group 123">
    <rect id="Rectangle_86" data-name="Rectangle 86" width="1.5" height="8" transform="translate(9 15.8)" fill="#1fa1af"/>
    <rect id="Rectangle_87" data-name="Rectangle 87" width="1.5" height="8" transform="translate(9 6.8)" fill="#1fa1af"/>
    <rect id="Rectangle_88" data-name="Rectangle 88" width="1.5" height="8" transform="translate(18 15.8)" fill="#1fa1af"/>
    <rect id="Rectangle_89" data-name="Rectangle 89" width="7" height="1.5" transform="translate(10.8 5)" fill="#1fa1af"/>
    <rect id="Rectangle_90" data-name="Rectangle 90" width="7" height="1.5" transform="translate(10.8 24)" fill="#1fa1af"/>
    <rect id="Rectangle_91" data-name="Rectangle 91" width="1.5" height="8" transform="translate(18 6.8)" fill="#1fa1af"/>
    <rect id="Rectangle_92" data-name="Rectangle 92" width="7" height="1.5" transform="translate(10.8 15)" fill="#1fa1af" opacity="0.2"/>
  </g>
  <g id="Group_124" data-name="Group 124">
    <rect id="Rectangle_93" data-name="Rectangle 93" width="1.5" height="8" transform="translate(22 15.8)" fill="#1fa1af"/>
    <rect id="Rectangle_94" data-name="Rectangle 94" width="1.5" height="8" transform="translate(22 6.8)" fill="#1fa1af"/>
    <rect id="Rectangle_95" data-name="Rectangle 95" width="1.5" height="8" transform="translate(31 15.8)" fill="#1fa1af"/>
    <rect id="Rectangle_96" data-name="Rectangle 96" width="7" height="1.5" transform="translate(23.8 5)" fill="#1fa1af"/>
    <rect id="Rectangle_97" data-name="Rectangle 97" width="7" height="1.5" transform="translate(23.8 24)" fill="#1fa1af"/>
    <rect id="Rectangle_98" data-name="Rectangle 98" width="1.5" height="8" transform="translate(31 6.8)" fill="#1fa1af"/>
    <rect id="Rectangle_99" data-name="Rectangle 99" width="7" height="1.5" transform="translate(23.8 15)" fill="#1fa1af" opacity="0.2"/>
  </g>
  <g id="Group_125" data-name="Group 125">
    <rect id="Rectangle_100" data-name="Rectangle 100" width="1.5" height="8" transform="translate(35 15.8)" fill="#1fa1af"/>
    <rect id="Rectangle_101" data-name="Rectangle 101" width="1.5" height="8" transform="translate(35 6.8)" fill="#1fa1af"/>
    <rect id="Rectangle_102" data-name="Rectangle 102" width="1.5" height="8" transform="translate(44 15.8)" fill="#1fa1af"/>
    <rect id="Rectangle_103" data-name="Rectangle 103" width="7" height="1.5" transform="translate(36.8 5)" fill="#1fa1af"/>
    <rect id="Rectangle_104" data-name="Rectangle 104" width="7" height="1.5" transform="translate(36.8 24)" fill="#1fa1af"/>
    <rect id="Rectangle_105" data-name="Rectangle 105" width="1.5" height="8" transform="translate(44 6.8)" fill="#1fa1af"/>
    <rect id="Rectangle_106" data-name="Rectangle 106" width="7" height="1.5" transform="translate(36.8 15)" fill="#1fa1af" opacity="0.2"/>
  </g>
  <g id="Group_126" data-name="Group 126">
    <rect id="Rectangle_107" data-name="Rectangle 107" width="1.5" height="8" transform="translate(48 15.8)" fill="#1fa1af" opacity="0.2"/>
    <rect id="Rectangle_108" data-name="Rectangle 108" width="1.5" height="8" transform="translate(48 6.8)" fill="#1fa1af" opacity="0.2"/>
    <rect id="Rectangle_109" data-name="Rectangle 109" width="1.5" height="8" transform="translate(57 15.8)" fill="#1fa1af"/>
    <rect id="Rectangle_110" data-name="Rectangle 110" width="7" height="1.5" transform="translate(49.8 5)" fill="#1fa1af" opacity="0.2"/>
    <rect id="Rectangle_111" data-name="Rectangle 111" width="7" height="1.5" transform="translate(49.8 24)" fill="#1fa1af" opacity="0.2"/>
    <rect id="Rectangle_112" data-name="Rectangle 112" width="1.5" height="8" transform="translate(57 6.8)" fill="#1fa1af"/>
    <rect id="Rectangle_113" data-name="Rectangle 113" width="7" height="1.5" transform="translate(49.8 15)" fill="#1fa1af" opacity="0.2"/>
  </g>
</svg>
