<svg xmlns="http://www.w3.org/2000/svg" width="61.405" height="51.5" viewBox="0 0 61.405 51.5">
  <g id="Group_121" data-name="Group 121" transform="translate(-0.095)">
    <path id="Path_23" data-name="Path 23" d="M55.5,44.5H6V26H55.5ZM7.5,43H54V27.5H7.5Z" fill="#1fa1af"/>
    <rect id="Rectangle_83" data-name="Rectangle 83" width="48" height="1.5" transform="translate(6.3 37)" fill="#1fa1af"/>
    <path id="Path_24" data-name="Path 24" d="M16.1,51.5H10.5a2.433,2.433,0,0,1-2.4-2.4V43.8H9.6v5.3a.9.9,0,0,0,.9.9h5.6a.9.9,0,0,0,.9-.9V43.7h1.5v5.4A2.433,2.433,0,0,1,16.1,51.5Z" fill="#1fa1af"/>
    <path id="Path_25" data-name="Path 25" d="M51.1,51.5H45.5a2.433,2.433,0,0,1-2.4-2.4V43.8h1.5v5.3a.9.9,0,0,0,.9.9h5.6a.9.9,0,0,0,.9-.9V43.7h1.5v5.4A2.433,2.433,0,0,1,51.1,51.5Z" fill="#1fa1af"/>
    <path id="Path_26" data-name="Path 26" d="M53.4,27,45.5,12.8a.55.55,0,0,0-.5-.3H15.6a.55.55,0,0,0-.5.3L8.3,26.9l-1.4-.7,6.8-14.1a2.121,2.121,0,0,1,1.9-1.2H45A2.107,2.107,0,0,1,46.8,12l7.9,14.2Z" fill="#1fa1af"/>
    <path id="Path_27" data-name="Path 27" d="M6.7,32.5h-4A2.647,2.647,0,0,1,.1,29.9V28a2.786,2.786,0,0,1,2.8-3H7.7v1.5H2.9a1.367,1.367,0,0,0-1.4,1.4v1.9A1.135,1.135,0,0,0,2.6,31h4v1.5Z" fill="#1fa1af"/>
    <path id="Path_28" data-name="Path 28" d="M58.9,32.5h-4V31h4A1.11,1.11,0,0,0,60,29.9V28a1.367,1.367,0,0,0-1.4-1.4H53.8V25h4.8a2.9,2.9,0,0,1,2.9,2.9v1.9A2.669,2.669,0,0,1,58.9,32.5Z" fill="#1fa1af"/>
    <path id="Path_29" data-name="Path 29" d="M47.8,22.5a.755.755,0,0,1-.7-.4l-3.8-6.6H31.8a.789.789,0,0,1-.8-.8.736.736,0,0,1,.8-.8H44.2l4.2,7.4a.693.693,0,0,1-.3,1C48,22.5,47.9,22.5,47.8,22.5Z" fill="#1fa1af"/>
    <path id="Path_30" data-name="Path 30" d="M43.6,10.5H16.9A1.9,1.9,0,0,1,15,8.6V1.9A1.9,1.9,0,0,1,16.9,0H43.6a1.9,1.9,0,0,1,1.9,1.9V8.6A1.839,1.839,0,0,1,43.6,10.5Zm-26.7-9a.43.43,0,0,0-.4.4V8.6a.43.43,0,0,0,.4.4H43.6a.43.43,0,0,0,.4-.4V1.9a.43.43,0,0,0-.4-.4Z" fill="#1fa1af"/>
    <g id="Group_120" data-name="Group 120">
      <path id="Path_31" data-name="Path 31" d="M21.6,2.5h-2V1.8h4.8v.7h-2V8.3h-.8V2.5Z" fill="#1fa1af"/>
      <path id="Path_32" data-name="Path 32" d="M25.4,6.3l-.7,2h-.9L26,1.8h1l2.2,6.5h-.9l-.7-2Zm2.1-.7-.6-1.9-.3-1.2h0l-.3,1.2-.6,1.9Z" fill="#1fa1af"/>
      <path id="Path_33" data-name="Path 33" d="M33.8,8.3,33,6.9a14.8,14.8,0,0,0-.8-1.3h0c-.2.4-.4.7-.7,1.3l-.8,1.4h-1l2-3.3L29.8,1.8h1l.9,1.5a10.909,10.909,0,0,0,.6,1.1h0a5.973,5.973,0,0,1,.6-1.1l.9-1.5h1L32.8,5l2,3.3Z" fill="#1fa1af"/>
      <path id="Path_34" data-name="Path 34" d="M37.2,8.3V5.6L35.1,1.9h1L37,3.6a13.918,13.918,0,0,1,.6,1.3h0c.2-.4.4-.8.7-1.3l.9-1.8h1L38,5.5V8.3Z" fill="#1fa1af"/>
    </g>
    <path id="Path_35" data-name="Path 35" d="M42,35H19.3a1.793,1.793,0,0,1-1.8-1.8v-1a.215.215,0,0,0-.2-.2H7.2V30.5H17.3A1.752,1.752,0,0,1,19,32.2v1a.265.265,0,0,0,.3.3H42a.472.472,0,0,0,.5-.5v-.4a2.006,2.006,0,0,1,2-2h9.7V32H44.5a.472.472,0,0,0-.5.5V33A2.006,2.006,0,0,1,42,35Z" fill="#1fa1af"/>
  </g>
</svg>
