<svg xmlns="http://www.w3.org/2000/svg" width="46.31" height="45.098" viewBox="0 0 46.31 45.098">
  <g id="moon" transform="translate(0 -6.702)">
    <g id="Group_115" data-name="Group 115" transform="translate(0 6.702)">
      <g id="Group_114" data-name="Group 114">
        <path id="Path_19" data-name="Path 19" d="M57.748,35.661a2,2,0,0,0-2.458-.026,18.182,18.182,0,0,1-11.129,3.76,18.472,18.472,0,0,1-3.292-.3.792.792,0,1,0-.283,1.559,20.053,20.053,0,0,0,3.575.321,19.753,19.753,0,0,0,12.091-4.085.413.413,0,0,1,.627.5A21.937,21.937,0,1,1,27.808,8.324a.413.413,0,0,1,.5.626,19.951,19.951,0,0,0,9.6,31.026.792.792,0,0,0,.5-1.5,18.354,18.354,0,0,1-8.843-28.56,2,2,0,0,0-2.418-3.029A23.522,23.522,0,1,0,58.318,38.053,2,2,0,0,0,57.748,35.661Z" transform="translate(-12.19 -6.702)" fill="#1fa1af"/>
        <path id="Path_20" data-name="Path 20" d="M243.489,106.058a3.4,3.4,0,0,1,3.394,3.394.792.792,0,0,0,1.584,0,3.4,3.4,0,0,1,3.394-3.394.792.792,0,0,0,0-1.584,3.4,3.4,0,0,1-3.394-3.394.792.792,0,0,0-1.584,0,3.4,3.4,0,0,1-3.394,3.394.792.792,0,1,0,0,1.584Zm4.186-2.287a5.018,5.018,0,0,0,1.495,1.495,5.017,5.017,0,0,0-1.495,1.495,5.017,5.017,0,0,0-1.495-1.495A5.016,5.016,0,0,0,247.675,103.772Z" transform="translate(-220.745 -91.823)" fill="#1fa1af"/>
        <path id="Path_21" data-name="Path 21" d="M350.625,227.138a2.464,2.464,0,1,0-2.464-2.464A2.467,2.467,0,0,0,350.625,227.138Zm0-3.344a.88.88,0,1,1-.88.88A.881.881,0,0,1,350.625,223.794Z" transform="translate(-316.67 -202.717)" fill="#1fa1af"/>
        <path id="Path_22" data-name="Path 22" d="M15.672,436.768a2.464,2.464,0,1,0,2.464,2.464A2.467,2.467,0,0,0,15.672,436.768Zm0,3.344a.88.88,0,1,1,.88-.88A.881.881,0,0,1,15.672,440.112Z" transform="translate(-12.013 -397.869)" fill="#1fa1af"/>
        <circle id="Ellipse_1" data-name="Ellipse 1" cx="0.993" cy="0.993" r="0.993" transform="translate(25.937 21.957)" fill="#1fa1af"/>
        <circle id="Ellipse_2" data-name="Ellipse 2" cx="0.993" cy="0.993" r="0.993" transform="translate(0 33.881)" fill="#1fa1af"/>
        <circle id="Ellipse_3" data-name="Ellipse 3" cx="0.993" cy="0.993" r="0.993" transform="translate(32.305 6.608)" fill="#1fa1af"/>
      </g>
    </g>
  </g>
</svg>
