<svg xmlns="http://www.w3.org/2000/svg" width="34.915" height="55.775" viewBox="0 0 34.915 55.775"><g transform="translate(0.015 -0.025)"><path d="M33.7,55.8H.5V42.4a8.066,8.066,0,0,1,8.1-8.1h4.8l4.2,5,4.2-5h4a8.024,8.024,0,0,1,8,8V55.8ZM2,54.3H32.3V42.4a6.487,6.487,0,0,0-6.5-6.5H22.6l-4.9,5.9-4.9-5.9H8.6A6.594,6.594,0,0,0,2,42.5V54.3Z" fill="#1fa1af"/><path d="M11.2,44.9c-.2,0-.3,0-.4-.1a.829.829,0,0,1-.3-.8l1.8-9.1a.9.9,0,0,1,.6-.6.778.778,0,0,1,.8.2l4.5,5.4a1.421,1.421,0,0,1,.2.6.664.664,0,0,1-.4.5l-6.4,3.6C11.4,44.9,11.3,44.9,11.2,44.9Zm2.2-8.2-1.2,5.9,4.1-2.4Z" fill="#1fa1af"/><path d="M23.9,44.9a.6.6,0,0,1-.4-.1l-6.4-3.6a1,1,0,0,1-.4-.5.735.735,0,0,1,.2-.6l4.5-5.4a.778.778,0,0,1,.8-.2.9.9,0,0,1,.6.6l1.8,9.1a.829.829,0,0,1-.3.8C24.2,44.8,24,44.9,23.9,44.9Zm-5.2-4.6,4.1,2.4-1.2-5.9Z" fill="#1fa1af"/><rect width="1.5" height="3.8" transform="translate(13.2 32.3)" fill="#1fa1af"/><rect width="1.5" height="3.8" transform="translate(20.4 32.3)" fill="#1fa1af"/><path d="M17,34A12.035,12.035,0,0,1,5,22V13.3a.789.789,0,0,1,.8-.8H29.4a.789.789,0,0,1,.8.8v7.6A13.3,13.3,0,0,1,17,34ZM6.5,14v8A10.5,10.5,0,0,0,17,32.5,11.608,11.608,0,0,0,28.6,20.9V14Z" fill="#1fa1af"/><path d="M5.3,16.6,1,12.9a2.692,2.692,0,0,1-1-2.4A2.748,2.748,0,0,1,1.2,8.3L9.5,2.5a14.005,14.005,0,0,1,15.9,0l8.3,5.8a2.748,2.748,0,0,1,1.2,2.2,2.656,2.656,0,0,1-1.1,2.2l-4.1,2.9-.9-1.2,4.1-2.9a1.25,1.25,0,0,0,0-2L24.6,3.7a12.327,12.327,0,0,0-14.2,0L2.1,9.6a1.255,1.255,0,0,0-.6,1.1A1.433,1.433,0,0,0,2,11.8l4.2,3.6Z" fill="#1fa1af"/><path d="M17.5,18.6C9.1,18.6,5.3,14,5.1,13.8l1.2-.9s3.5,4.3,11.2,4.3S28.7,13,28.7,12.9l1.2.9C29.8,13.9,26,18.6,17.5,18.6Z" fill="#1fa1af"/><path d="M5.7,55.8a.864.864,0,0,1-.6-.3,1.268,1.268,0,0,1-.1-.6c0-.1,2.1-8.8,12.5-8.8s12.8,8.6,12.9,8.7a.614.614,0,0,1-.1.6,1.141,1.141,0,0,1-.6.3l-24,.1Zm11.8-8.2c-7.4,0-10,4.6-10.8,6.7l21.8-.1C27.7,52.2,24.9,47.6,17.5,47.6Z" fill="#1fa1af"/><path d="M11.8,55.2l-1.5-.3c0-.1,1.2-5.1,7.3-5.1s7.5,5,7.5,5.1l-1.4.4c0-.2-1.1-3.9-6-3.9C12.7,51.2,11.8,55.2,11.8,55.2Z" fill="#1fa1af"/></g></svg>