<svg xmlns="http://www.w3.org/2000/svg" width="76.5" height="34.815" viewBox="0 0 76.5 34.815"><g transform="translate(0 0.015)"><path d="M17,34.8a7.79,7.79,0,0,1-7.8-7.7,7.8,7.8,0,0,1,15.6,0A7.725,7.725,0,0,1,17,34.8Zm0-14A6.2,6.2,0,1,0,23.2,27,6.231,6.231,0,0,0,17,20.8Z" fill="#1fa1af"/><path d="M17,30.3a3.222,3.222,0,0,1-3.2-3.2A3.29,3.29,0,0,1,17,23.9a3.29,3.29,0,0,1,3.2,3.2A3.222,3.222,0,0,1,17,30.3Zm0-5a1.8,1.8,0,1,0,1.8,1.8A1.793,1.793,0,0,0,17,25.3Z" fill="#1fa1af"/><path d="M60,34.8a7.79,7.79,0,0,1-7.8-7.7,7.8,7.8,0,0,1,15.6,0A7.725,7.725,0,0,1,60,34.8Zm0-14A6.2,6.2,0,1,0,66.2,27,6.231,6.231,0,0,0,60,20.8Z" fill="#1fa1af"/><path d="M60,30.3a3.222,3.222,0,0,1-3.2-3.2,3.2,3.2,0,0,1,6.4,0A3.222,3.222,0,0,1,60,30.3Zm0-5a1.8,1.8,0,1,0,1.8,1.8A1.793,1.793,0,0,0,60,25.3Z" fill="#1fa1af"/><path d="M66.8,29.5V28h6.8A1.367,1.367,0,0,0,75,26.6V23.3a.86.86,0,0,0-.8-.8H73v-.8a9.581,9.581,0,0,0-6.5-9.3l-.3-.1-.2-.2C58.5.7,44.9,1.5,44.8,1.5,25.5,1.5,20.5,12,20.4,12.1l-.2.4-13,2.4a3.326,3.326,0,0,0-2.7,3.3v5.4H3.8a2.22,2.22,0,0,0-2.2,2.2v.7A1.367,1.367,0,0,0,3,27.9h7v1.5H3a3.075,3.075,0,0,1-3-3v-.7A3.847,3.847,0,0,1,3,22V18.1a4.823,4.823,0,0,1,3.9-4.7l12.3-2.3C20.3,9.1,26.3,0,44.8,0c.1,0,14.3-.9,22.5,11.1A10.912,10.912,0,0,1,74.5,21a2.285,2.285,0,0,1,2,2.3v3.3a2.9,2.9,0,0,1-2.9,2.9Z" fill="#1fa1af"/><rect width="28.7" height="1.5" transform="translate(24 27.8)" fill="#1fa1af"/><path d="M19.2,20.8,19,11H66.8v1.5H20.5l.2,8.2Z" fill="#1fa1af"/><path d="M40.5,27.8H39c0-6.7,5.3-14.8,6.3-16.1V.9h1.5V12l-.1.2C46.6,12.4,40.5,21.1,40.5,27.8Z" fill="#1fa1af"/></g></svg>