<svg id="Group_122" data-name="Group 122" xmlns="http://www.w3.org/2000/svg" width="77.5" height="51.5" viewBox="0 0 77.5 51.5">
  <path id="Path_36" data-name="Path 36" d="M77.5,45.5H68.8V44H76V7.5H1.5V44H7.8v1.5H0V6H77.5Z" fill="#1fa1af"/>
  <rect id="Rectangle_84" data-name="Rectangle 84" width="33" height="1.5" transform="translate(21.8 44)" fill="#1fa1af"/>
  <path id="Path_37" data-name="Path 37" d="M14.8,51.5A7.79,7.79,0,0,1,7,43.8a7.8,7.8,0,0,1,15.6,0A7.789,7.789,0,0,1,14.8,51.5Zm0-14A6.2,6.2,0,1,0,21,43.7,6.231,6.231,0,0,0,14.8,37.5Z" fill="#1fa1af"/>
  <path id="Path_38" data-name="Path 38" d="M61.8,51.5a7.8,7.8,0,1,1,7.8-7.8A7.81,7.81,0,0,1,61.8,51.5Zm0-14A6.2,6.2,0,1,0,68,43.7,6.231,6.231,0,0,0,61.8,37.5Z" fill="#1fa1af"/>
  <path id="Path_39" data-name="Path 39" d="M14.8,46.5A2.8,2.8,0,0,1,12,43.7a2.8,2.8,0,0,1,5.6,0A2.8,2.8,0,0,1,14.8,46.5Zm0-4a1.216,1.216,0,0,0-1.2,1.2,1.29,1.29,0,0,0,1.2,1.2,1.2,1.2,0,0,0,0-2.4Z" fill="#1fa1af"/>
  <path id="Path_40" data-name="Path 40" d="M61.8,46.5A2.8,2.8,0,0,1,59,43.7a2.8,2.8,0,0,1,5.6,0A2.8,2.8,0,0,1,61.8,46.5Zm0-4a1.216,1.216,0,0,0-1.2,1.2,1.2,1.2,0,1,0,1.2-1.2Z" fill="#1fa1af"/>
  <path id="Path_41" data-name="Path 41" d="M48.5,44.7H47V10.5H35.3V44.6H33.8V9H48.5Z" fill="#1fa1af"/>
  <rect id="Rectangle_85" data-name="Rectangle 85" width="13" height="1.5" transform="translate(34.8 34)" fill="#1fa1af"/>
  <path id="Path_42" data-name="Path 42" d="M13.7,25.5h-6a2.8,2.8,0,0,1-2.8-2.8v-11A2.866,2.866,0,0,1,7.8,9h6a2.8,2.8,0,0,1,2.8,2.8v11A2.866,2.866,0,0,1,13.7,25.5Zm-5.9-15a1.324,1.324,0,0,0-1.3,1.3v11a1.324,1.324,0,0,0,1.3,1.3h6a1.324,1.324,0,0,0,1.3-1.3v-11a1.324,1.324,0,0,0-1.3-1.3h-6Z" fill="#1fa1af"/>
  <path id="Path_43" data-name="Path 43" d="M27.7,25.5h-6a2.8,2.8,0,0,1-2.8-2.8v-11a2.8,2.8,0,0,1,2.8-2.8h6a2.8,2.8,0,0,1,2.8,2.8v11A2.734,2.734,0,0,1,27.7,25.5Zm-5.9-15a1.324,1.324,0,0,0-1.3,1.3v11a1.324,1.324,0,0,0,1.3,1.3h6a1.324,1.324,0,0,0,1.3-1.3v-11a1.324,1.324,0,0,0-1.3-1.3h-6Z" fill="#1fa1af"/>
  <path id="Path_44" data-name="Path 44" d="M59.7,25.5h-6a2.8,2.8,0,0,1-2.8-2.8v-11a2.8,2.8,0,0,1,2.8-2.8h6a2.8,2.8,0,0,1,2.8,2.8v11A2.734,2.734,0,0,1,59.7,25.5Zm-5.9-15a1.324,1.324,0,0,0-1.3,1.3v11a1.324,1.324,0,0,0,1.3,1.3h6a1.324,1.324,0,0,0,1.3-1.3v-11a1.324,1.324,0,0,0-1.3-1.3h-6Z" fill="#1fa1af"/>
  <path id="Path_45" data-name="Path 45" d="M77.5,35.5H70.3A5.335,5.335,0,0,1,65,30.2V12a3.009,3.009,0,0,1,3-3h9.5ZM68,10.5A1.538,1.538,0,0,0,66.5,12V30.2A3.8,3.8,0,0,0,70.3,34H76V10.5Z" fill="#1fa1af"/>
  <path id="Path_46" data-name="Path 46" d="M24.5,7.5H12V3.1A3.116,3.116,0,0,1,15.1,0h6.2a3.116,3.116,0,0,1,3.1,3.1V7.5ZM13.5,6H23V3.1a1.58,1.58,0,0,0-1.6-1.6H15.2a1.58,1.58,0,0,0-1.6,1.6V6Z" fill="#1fa1af"/>
  <path id="Path_47" data-name="Path 47" d="M63.5,7.5H51V3.1A3.116,3.116,0,0,1,54.1,0h6.2a3.116,3.116,0,0,1,3.1,3.1V7.5ZM52.5,6H62V3.1a1.58,1.58,0,0,0-1.6-1.6H54.2a1.58,1.58,0,0,0-1.6,1.6V6Z" fill="#1fa1af"/>
</svg>
