<svg xmlns="http://www.w3.org/2000/svg" viewBox="0 0 32.741 32.741">
  <defs>
    <style>
      .cls-1 {
        fill: #1fa1af;
      }
    </style>
  </defs>
  <path id="aqua-park" class="cls-1" d="M12.278,27.285V21.146a2.046,2.046,0,1,0-4.093,0v6.139a.682.682,0,0,1-1.364,0V21.146a3.411,3.411,0,1,1,6.821,0v6.139a.682.682,0,0,1-1.364,0ZM.035,7.037a.682.682,0,0,1,.238-.761L7.367.955a4.775,4.775,0,0,1,5.73,0l7.094,5.32A.682.682,0,0,1,19.782,7.5H18.417v3.411H19.2a4.775,4.775,0,0,1,4.669,3.774L24.795,19A1.859,1.859,0,0,0,26.6,20.463H32.06a.682.682,0,0,1,0,1.364H28.649v5.457a.682.682,0,1,1-1.364,0V21.828H26.6a3.23,3.23,0,0,1-3.142-2.54l-.924-4.313a3.428,3.428,0,0,0-3.335-2.7h-.784V27.285a.682.682,0,0,1-1.364,0V12.278H3.411V27.285a.682.682,0,0,1-1.364,0V7.5H.682A.682.682,0,0,1,.035,7.037ZM17.053,7.5H3.411v3.411H17.053ZM2.729,6.139H17.735L12.278,2.046a3.411,3.411,0,0,0-4.093,0Zm29.7,23.2a.682.682,0,0,0-.942.206,3.956,3.956,0,0,1-6.669,0,.682.682,0,0,0-.574-.314h-.035a.682.682,0,0,0-.574.314,3.956,3.956,0,0,1-6.669,0,.682.682,0,0,0-.574-.314h-.035a.682.682,0,0,0-.574.314,3.956,3.956,0,0,1-6.669,0,.682.682,0,0,0-.574-.314H8.5a.682.682,0,0,0-.574.314,3.956,3.956,0,0,1-6.669,0,.682.682,0,1,0-1.149.736,5.321,5.321,0,0,0,8.41.726,5.321,5.321,0,0,0,7.853,0,5.321,5.321,0,0,0,7.853,0,5.321,5.321,0,0,0,8.41-.726A.682.682,0,0,0,32.428,29.343Z" transform="translate(0)"/>
</svg>
