<svg xmlns="http://www.w3.org/2000/svg" viewBox="0 0 25.516 22.114">
  <defs>
    <style>
      .cls-1 {
        fill: #fff;
      }
    </style>
  </defs>
  <g id="bed" transform="translate(0 -32)">
    <g id="Group_12" data-name="Group 12" transform="translate(0 32)">
      <g id="Group_11" data-name="Group 11" transform="translate(0 0)">
        <path id="Path_8" data-name="Path 8" class="cls-1" d="M25.09,44.758h-.425V43.482a2.126,2.126,0,0,0-1.276-1.946V34.977a.425.425,0,0,0-.255-.39,1.683,1.683,0,0,0,.255-.886,1.7,1.7,0,1,0-3.4,0,1.684,1.684,0,0,0,.236.851H5.292a1.684,1.684,0,0,0,.236-.851,1.7,1.7,0,1,0-3.4,0,1.683,1.683,0,0,0,.255.886.425.425,0,0,0-.255.39v6.559A2.126,2.126,0,0,0,.851,43.482v1.276H.425A.425.425,0,0,0,0,45.183v5.954a.425.425,0,0,0,.425.425H.851v2.126a.425.425,0,0,0,.425.425h1.7a.425.425,0,0,0,.425-.425V51.562H22.114v2.126a.425.425,0,0,0,.425.425h1.7a.425.425,0,0,0,.425-.425V51.562h.425a.425.425,0,0,0,.425-.425V45.183A.425.425,0,0,0,25.09,44.758Zm-3.4-11.907a.851.851,0,1,1-.851.851A.85.85,0,0,1,21.688,32.851Zm-17.861,0a.851.851,0,1,1-.851.851A.85.85,0,0,1,3.827,32.851ZM2.977,35.4H22.539v5.954H20.827a2.1,2.1,0,0,0,.436-1.276v-.851A2.129,2.129,0,0,0,19.137,37.1h-3.4a2.129,2.129,0,0,0-2.126,2.126v.851a2.1,2.1,0,0,0,.436,1.276H11.471a2.1,2.1,0,0,0,.436-1.276v-.851A2.129,2.129,0,0,0,9.781,37.1h-3.4a2.129,2.129,0,0,0-2.126,2.126v.851a2.1,2.1,0,0,0,.436,1.276H2.977Zm17.436,3.827v.851a1.276,1.276,0,0,1-1.276,1.276h-3.4a1.276,1.276,0,0,1-1.276-1.276v-.851a1.276,1.276,0,0,1,1.276-1.276h3.4A1.276,1.276,0,0,1,20.413,39.229Zm-9.356,0v.851a1.276,1.276,0,0,1-1.276,1.276h-3.4A1.276,1.276,0,0,1,5.1,40.08v-.851a1.276,1.276,0,0,1,1.276-1.276h3.4A1.276,1.276,0,0,1,11.057,39.229ZM1.7,43.482a1.276,1.276,0,0,1,1.276-1.276H22.539a1.276,1.276,0,0,1,1.276,1.276v1.276H1.7Zm.851,9.781H1.7v-1.7h.851Zm21.263,0h-.851v-1.7h.851Zm.851-2.552H.851v-5.1H24.665Z" transform="translate(0 -32)"/>
      </g>
    </g>
    <g id="Group_14" data-name="Group 14" transform="translate(1.701 49.01)">
      <g id="Group_13" data-name="Group 13" transform="translate(0 0)">
        <path id="Path_9" data-name="Path 9" class="cls-1" d="M34.126,352h-1.7a.425.425,0,0,0,0,.851h1.7a.425.425,0,0,0,0-.851Z" transform="translate(-32 -352)"/>
      </g>
    </g>
    <g id="Group_16" data-name="Group 16" transform="translate(5.103 49.01)">
      <g id="Group_15" data-name="Group 15" transform="translate(0 0)">
        <path id="Path_10" data-name="Path 10" class="cls-1" d="M114.286,352H96.425a.425.425,0,1,0,0,.851h17.861a.425.425,0,1,0,0-.851Z" transform="translate(-96 -352)"/>
      </g>
    </g>
  </g>
</svg>
