<svg xmlns="http://www.w3.org/2000/svg" viewBox="0 0 40.134 26.541">
  <defs>
    <style>
      .cls-1 {
        fill: #1fa1af;
      }
    </style>
  </defs>
  <g id="bus" transform="translate(0 -69.516)">
    <path id="Path_35" data-name="Path 35" class="cls-1" d="M80.042,275.387a2.016,2.016,0,1,0,2.016,2.016A2.018,2.018,0,0,0,80.042,275.387Zm0,2.565a.549.549,0,1,1,.549-.549A.55.55,0,0,1,80.042,277.952Z" transform="translate(-70.398 -185.744)"/>
    <path id="Path_36" data-name="Path 36" class="cls-1" d="M293.274,275.387a2.016,2.016,0,1,0,2.016,2.016A2.018,2.018,0,0,0,293.274,275.387Zm0,2.565a.549.549,0,1,1,.549-.549A.55.55,0,0,1,293.274,277.952Z" transform="translate(-262.784 -185.744)"/>
    <path id="Path_37" data-name="Path 37" class="cls-1" d="M39.2,88.121V73.748a4.237,4.237,0,0,0-4.232-4.232H7.506A6.582,6.582,0,0,0,.931,76.091v12.03A2.321,2.321,0,0,0,0,89.98v.09a2.324,2.324,0,0,0,2.322,2.322H5.307a4.4,4.4,0,0,0,8.674,0H26.153a4.4,4.4,0,0,0,8.674,0h2.985a2.324,2.324,0,0,0,2.322-2.322v-.09A2.321,2.321,0,0,0,39.2,88.121Zm-1.466-7.613H35.724a.187.187,0,0,1-.187-.187V74.668a.187.187,0,0,1,.187-.187h2.012ZM1.466,90.07v-.09a.857.857,0,0,1,.855-.856h3.73a4.375,4.375,0,0,0-.745,1.8H2.322A.856.856,0,0,1,1.466,90.07Zm8.177,4.521a2.933,2.933,0,1,1,2.933-2.933A2.936,2.936,0,0,1,9.644,94.591Zm16.509-3.666H13.981a4.4,4.4,0,0,0-6.162-3.268H2.4V76.091a5.114,5.114,0,0,1,5.108-5.108H34.971a2.77,2.77,0,0,1,2.666,2.033H35.724a1.655,1.655,0,0,0-1.653,1.653v5.653a1.655,1.655,0,0,0,1.653,1.653h2.012v5.682H32.315a4.4,4.4,0,0,0-6.162,3.268Zm4.337,3.666a2.933,2.933,0,1,1,2.933-2.933A2.936,2.936,0,0,1,30.49,94.591Zm8.177-4.521a.856.856,0,0,1-.855.855H34.827a4.375,4.375,0,0,0-.745-1.8h3.73a.857.857,0,0,1,.855.856Z" transform="translate(0 0)"/>
    <path id="Path_38" data-name="Path 38" class="cls-1" d="M70.125,112.614v-5.653a1.655,1.655,0,0,0-1.653-1.653H45.9a3.541,3.541,0,0,0-3.537,3.537v3.769a1.655,1.655,0,0,0,1.653,1.653h24.46A1.655,1.655,0,0,0,70.125,112.614Zm-13.15-5.84h5.764V112.8H56.975ZM55.508,112.8H49.744v-6.027h5.764Zm-11.684-.187v-3.769a2.073,2.073,0,0,1,2.071-2.071h2.382V112.8H44.011A.187.187,0,0,1,43.824,112.614Zm24.834,0a.187.187,0,0,1-.187.187H64.205v-6.027h4.266a.187.187,0,0,1,.187.187Z" transform="translate(-38.217 -32.293)"/>
    <path id="Path_39" data-name="Path 39" class="cls-1" d="M362.77,223.864a.733.733,0,0,0,.733-.733v-.652a.733.733,0,0,0-1.466,0v.652A.733.733,0,0,0,362.77,223.864Z" transform="translate(-326.643 -137.348)"/>
  </g>
</svg>
