<svg xmlns="http://www.w3.org/2000/svg" viewBox="0 0 34.703 34.608">
  <defs>
    <style>
      .cls-1 {
        fill: #1fa1af;
      }
    </style>
  </defs>
  <g id="fruit" transform="translate(0 -0.653)">
    <g id="Group_19" data-name="Group 19" transform="translate(22.556 8.095)">
      <g id="Group_18" data-name="Group 18" transform="translate(0 0)">
        <rect id="Rectangle_29" data-name="Rectangle 29" class="cls-1" width="1.157" height="1.157" transform="translate(0 0.006) rotate(-0.309)"/>
      </g>
    </g>
    <g id="Group_21" data-name="Group 21" transform="translate(0 0.653)">
      <g id="Group_20" data-name="Group 20">
        <path id="Path_34" data-name="Path 34" class="cls-1" d="M34.125,19.069H25.913L26.607,8.7a.584.584,0,0,0-.156-.435.633.633,0,0,0-.423-.182l-1.157.006.006,1.157h.536l-.138,2.069-1.677.93a6.385,6.385,0,0,1-5.667.249V9.279L21.4,9.261,21.4,8.1l-3.465.018V5.507l6.094-3.875L23.4.653,17.043,4.7a.578.578,0,0,0-.268.488V8.128L8.682,8.17a.578.578,0,0,0-.575.582c0,.012,0,.024,0,.035l.644,9.652a9.869,9.869,0,0,0-.81,1.934A5.748,5.748,0,0,0,2.931,17.43a.578.578,0,0,0-.578.578A5.71,5.71,0,0,0,3.3,21.164a3.2,3.2,0,0,0-.694.463l-.168.148a7.171,7.171,0,0,0-2.2,7.21L.589,30.35a7.194,7.194,0,0,0,2.978,4.187,4.052,4.052,0,0,0,4.249.165l-.032-.058a14.057,14.057,0,0,0,3.328.562c.116.006.231.006.351.008v.047h7.626A15.6,15.6,0,0,0,34.7,19.675v-.028A.578.578,0,0,0,34.125,19.069ZM25.692,20.54v-.315h5.759a12.4,12.4,0,0,1-7.364,10.752,12.267,12.267,0,0,1-3.365.943A13.272,13.272,0,0,0,23,29.346,15.662,15.662,0,0,0,25.692,20.54ZM16.776,9.285v2.8a7.536,7.536,0,0,0-5.648.661L9.588,13.6,9.3,9.323ZM10.5,17.879l.071-.091-.738-.57-.157-2.343,2.014-1.122a6.383,6.383,0,0,1,5.715-.231,7.537,7.537,0,0,0,6.755-.272l1.022-.567-.259,3.889a1.93,1.93,0,0,0-.42-.246l-.864-.36a1.639,1.639,0,0,0-1.424.075,1.674,1.674,0,0,0-.847,1.19,15.262,15.262,0,0,1-5.225,9.092,7.16,7.16,0,0,0-2.378-4.548l-.168-.148a3.146,3.146,0,0,0-4.117-.058l-.728.607A8.671,8.671,0,0,1,10.5,17.879ZM7.481,22.556a4.6,4.6,0,0,1-3.928-3.928A4.6,4.6,0,0,1,7.481,22.556ZM4.209,33.575a6.042,6.042,0,0,1-2.5-3.515L1.355,28.7a6.021,6.021,0,0,1,1.853-6.054h0l.168-.148a2.009,2.009,0,0,1,.7-.388A5.725,5.725,0,0,0,8.1,23.753a.569.569,0,0,0,.109-.022,1.569,1.569,0,0,0,.9-.355l1.107-.925a2,2,0,0,1,2.612.038l.168.148a6.011,6.011,0,0,1,2.038,4.519,15.274,15.274,0,0,1-7.624,2.727l-2.561.193a.578.578,0,0,0-.535.578v2.107a.578.578,0,0,0,.289.5l.08.047a14.084,14.084,0,0,0,1.464.74A2.908,2.908,0,0,1,4.209,33.575Zm6.957.475h0a12.962,12.962,0,0,1-5.7-1.626V31.189l2.024-.153A16.486,16.486,0,0,0,22.5,17.429a.52.52,0,0,1,.263-.373.482.482,0,0,1,.423-.023l.864.361a.777.777,0,0,1,.479.719v2.429A14.515,14.515,0,0,1,22.04,28.7,12.286,12.286,0,0,1,11.166,34.05Zm7.923.054H17.246a13.3,13.3,0,0,0,1.843-.971v.054a13.417,13.417,0,0,0,5.467-1.153,13.561,13.561,0,0,0,8.052-11.809h.927A14.443,14.443,0,0,1,19.089,34.1Z" transform="translate(0 -0.653)"/>
      </g>
    </g>
    <g id="Group_23" data-name="Group 23" transform="translate(26.607 21.382)">
      <g id="Group_22" data-name="Group 22">
        <rect id="Rectangle_30" data-name="Rectangle 30" class="cls-1" width="1.157" height="1.157"/>
      </g>
    </g>
    <g id="Group_25" data-name="Group 25" transform="translate(24.872 27.165)">
      <g id="Group_24" data-name="Group 24">
        <rect id="Rectangle_31" data-name="Rectangle 31" class="cls-1" width="1.157" height="1.157"/>
      </g>
    </g>
    <g id="Group_27" data-name="Group 27" transform="translate(26.607 24.852)">
      <g id="Group_26" data-name="Group 26">
        <rect id="Rectangle_32" data-name="Rectangle 32" class="cls-1" width="1.157" height="1.157"/>
      </g>
    </g>
  </g>
</svg>
