<svg xmlns="http://www.w3.org/2000/svg" viewBox="0 0 29.442 40.198">
  <defs>
    <style>
      .cls-1 {
        fill: #1fa1af;
      }
    </style>
  </defs>
  <g id="guide" transform="translate(0 0)">
    <path id="Path_60" data-name="Path 60" class="cls-1" d="M77.355,53.244a2.357,2.357,0,0,0,1.735-.765,4.108,4.108,0,0,0,4.774,0A2.355,2.355,0,1,0,85.6,48.533h-.043a4.121,4.121,0,0,0-8.158,0h-.043a2.355,2.355,0,0,0,0,4.711Zm1.228-3.583a4.132,4.132,0,0,0,2.894-1.951,4.132,4.132,0,0,0,2.894,1.951,2.943,2.943,0,0,1-5.788,0Zm8.193,1.228a1.177,1.177,0,0,1-2.061.778,4.1,4.1,0,0,0,.84-1.956H85.6A1.179,1.179,0,0,1,86.777,50.888Zm-2.432-2.432a2.953,2.953,0,0,1-2.2-2.2A2.952,2.952,0,0,1,84.344,48.456Zm-3.533-2.2a2.953,2.953,0,0,1-2.2,2.2A2.952,2.952,0,0,1,80.812,46.255Zm-3.456,3.456H77.4a4.1,4.1,0,0,0,.84,1.956,1.177,1.177,0,1,1-.883-1.956Zm0,0" transform="translate(-69.112 -41.467)"/>
    <path id="Path_61" data-name="Path 61" class="cls-1" d="M29.116,3.6,22.05.062A.589.589,0,0,0,21.2.589V7.643q0,.012,0,.025v6.857H17.583a2.163,2.163,0,0,0-2.077-1.57H9.225A2.163,2.163,0,0,0,7.154,14.5,6.485,6.485,0,0,1,1.178,8.048.589.589,0,0,0,0,8.048,7.665,7.665,0,0,0,7.066,15.68v12a.589.589,0,0,0,.589.589H9.421V38.4l-1.953.651a.589.589,0,1,0,.372,1.117l2.355-.785a.589.589,0,0,0,.4-.558V28.264h3.533v10.56a.588.588,0,0,0,.4.558l2.355.785a.589.589,0,0,0,.372-1.117L15.31,38.4V28.264h1.767a.589.589,0,0,0,.589-.589V15.7h5.3a1.767,1.767,0,1,0,0-3.533h-.589V8.019l6.74-3.37a.589.589,0,0,0,0-1.053ZM16.487,15.114V24.63a1.769,1.769,0,0,1-1.178-1.665V14.132h.2A.983.983,0,0,1,16.487,15.114ZM10.6,14.132h1.178v4.122a.589.589,0,0,0,1.178,0V14.132h1.178v5.888H10.6Zm-1.374,0h.2v8.833A1.769,1.769,0,0,1,8.244,24.63V15.114A.983.983,0,0,1,9.225,14.132ZM8.244,27.087V25.849A2.949,2.949,0,0,0,10.6,22.965V21.2h3.533v1.767a2.949,2.949,0,0,0,2.355,2.885v1.237ZM22.965,13.347a.589.589,0,1,1,0,1.178h-.589V13.347ZM22.376,6.7V1.542l5.161,2.58Zm0,0"/>
  </g>
</svg>
