<svg id="hotel" xmlns="http://www.w3.org/2000/svg" viewBox="0 0 32.429 43.283">
  <defs>
    <style>
      .cls-1 {
        fill: #1fa1af;
      }
    </style>
  </defs>
  <path id="Path_25" data-name="Path 25" class="cls-1" d="M32.429,10.053V7.84a1.185,1.185,0,0,0-1.184-1.184H19.71V5.831H21.89a1.2,1.2,0,0,0,1.2-1.2V1.2A1.2,1.2,0,0,0,21.89,0H10.539a1.2,1.2,0,0,0-1.2,1.2V4.63a1.2,1.2,0,0,0,1.2,1.2h2.179v.824H1.184A1.185,1.185,0,0,0,0,7.84v2.213a1.186,1.186,0,0,0,.928,1.155v11.5A1.186,1.186,0,0,0,0,23.863v2.213a1.186,1.186,0,0,0,.928,1.155v11.5A1.186,1.186,0,0,0,0,39.886V42.1a1.185,1.185,0,0,0,1.184,1.184H31.245A1.185,1.185,0,0,0,32.429,42.1V39.886a1.186,1.186,0,0,0-.928-1.155v-11.5a1.185,1.185,0,0,0,.928-1.155V23.863a1.186,1.186,0,0,0-.928-1.155v-11.5A1.186,1.186,0,0,0,32.429,10.053ZM10.605,1.268H21.824v3.3H10.605Zm3.381,4.563h4.456v.825H13.987ZM1.268,7.924H31.161V9.969H1.268ZM25.133,22.679a.634.634,0,0,0,0,1.268h6.028v2.045H1.268V23.947h21.5a.634.634,0,0,0,0-1.268H2.2V11.237H30.233V22.679ZM20.36,38.7V33.04a4.145,4.145,0,1,0-8.29,0V38.7H2.2V27.26H30.233V38.7Zm-7.022,0V33.04a2.877,2.877,0,1,1,5.754,0V38.7Zm17.823,3.313H1.268V39.97H31.161Zm0,0" transform="translate(0)"/>
  <path id="Path_26" data-name="Path 26" class="cls-1" d="M50.343,344.469H46.314A1.316,1.316,0,0,0,45,345.783v4.029a1.316,1.316,0,0,0,1.314,1.314h4.029a1.316,1.316,0,0,0,1.314-1.314v-4.029A1.316,1.316,0,0,0,50.343,344.469Zm.046,1.315v1.38H48.963v-1.427h1.38A.046.046,0,0,1,50.39,345.783Zm-4.075-.047h1.381v1.427H46.268v-1.38A.046.046,0,0,1,46.314,345.737Zm-.046,4.075v-1.38h1.427v1.426H46.314A.046.046,0,0,1,46.268,349.812Zm4.075.046h-1.38v-1.426H50.39v1.38A.046.046,0,0,1,50.343,349.858Zm0,0" transform="translate(-41.196 -315.348)"/>
  <path id="Path_27" data-name="Path 27" class="cls-1" d="M265.2,344.469H261.17a1.316,1.316,0,0,0-1.314,1.315v4.029a1.316,1.316,0,0,0,1.314,1.314H265.2a1.316,1.316,0,0,0,1.314-1.314v-4.029A1.316,1.316,0,0,0,265.2,344.469Zm.046,1.315v1.38h-1.427v-1.427h1.38A.046.046,0,0,1,265.245,345.783Zm-4.075-.047h1.381v1.427h-1.427v-1.38A.046.046,0,0,1,261.17,345.737Zm-.046,4.075v-1.38h1.427v1.426H261.17A.046.046,0,0,1,261.124,349.812Zm4.075.046h-1.38v-1.426h1.427v1.38A.046.046,0,0,1,265.2,349.858Zm0,0" transform="translate(-237.888 -315.348)"/>
  <path id="Path_28" data-name="Path 28" class="cls-1" d="M50.343,161.223H46.314A1.316,1.316,0,0,0,45,162.537v4.029a1.316,1.316,0,0,0,1.314,1.315h4.029a1.316,1.316,0,0,0,1.314-1.315v-4.029A1.316,1.316,0,0,0,50.343,161.223Zm.046,1.314v1.38H48.963v-1.427h1.38A.046.046,0,0,1,50.39,162.537Zm-4.075-.046h1.381v1.427H46.268v-1.38A.046.046,0,0,1,46.314,162.491Zm-.046,4.075v-1.38h1.427v1.427H46.314A.046.046,0,0,1,46.268,166.566Zm4.075.047h-1.38v-1.427H50.39v1.38A.046.046,0,0,1,50.343,166.612Zm0,0" transform="translate(-41.196 -147.593)"/>
  <path id="Path_29" data-name="Path 29" class="cls-1" d="M265.2,161.223H261.17a1.316,1.316,0,0,0-1.314,1.314v4.029a1.316,1.316,0,0,0,1.314,1.315H265.2a1.316,1.316,0,0,0,1.314-1.315v-4.029A1.316,1.316,0,0,0,265.2,161.223Zm.046,1.314v1.38h-1.427v-1.427h1.38A.046.046,0,0,1,265.245,162.537Zm-4.075-.046h1.381v1.427h-1.427v-1.38A.046.046,0,0,1,261.17,162.491Zm-.046,4.075v-1.38h1.427v1.427H261.17A.046.046,0,0,1,261.124,166.566Zm4.075.047h-1.38v-1.427h1.427v1.38A.046.046,0,0,1,265.2,166.612Zm0,0" transform="translate(-237.888 -147.593)"/>
  <path id="Path_30" data-name="Path 30" class="cls-1" d="M157.773,161.223h-4.029a1.316,1.316,0,0,0-1.314,1.314v4.029a1.316,1.316,0,0,0,1.314,1.315h4.029a1.316,1.316,0,0,0,1.315-1.315v-4.029A1.316,1.316,0,0,0,157.773,161.223Zm.047,1.314v1.38h-1.427v-1.427h1.38A.046.046,0,0,1,157.819,162.537Zm-4.075-.046h1.38v1.427H153.7v-1.38A.046.046,0,0,1,153.744,162.491Zm-.046,4.075v-1.38h1.427v1.427h-1.38A.046.046,0,0,1,153.7,166.566Zm4.075.047h-1.38v-1.427h1.427v1.38A.046.046,0,0,1,157.773,166.612Zm0,0" transform="translate(-139.544 -147.593)"/>
</svg>
