<svg xmlns="http://www.w3.org/2000/svg" viewBox="0 0 31.652 35.23">
  <defs>
    <style>
      .cls-1 {
        fill: #1fa1af;
      }
    </style>
  </defs>
  <g id="like" transform="translate(-26)">
    <g id="Group_49" data-name="Group 49" transform="translate(47.331)">
      <g id="Group_48" data-name="Group 48">
        <path id="Path_80" data-name="Path 80" class="cls-1" d="M336.688,0A.688.688,0,0,0,336,.688V3.853a.688.688,0,1,0,1.376,0V.688A.688.688,0,0,0,336.688,0Z" transform="translate(-336)"/>
      </g>
    </g>
    <g id="Group_51" data-name="Group 51" transform="translate(31.505 21.468)">
      <g id="Group_50" data-name="Group 50" transform="translate(0)">
        <path id="Path_81" data-name="Path 81" class="cls-1" d="M106.688,312a.688.688,0,1,0,.688.688A.688.688,0,0,0,106.688,312Z" transform="translate(-106 -312)"/>
      </g>
    </g>
    <g id="Group_53" data-name="Group 53" transform="translate(26 7.294)">
      <g id="Group_52" data-name="Group 52" transform="translate(0)">
        <path id="Path_82" data-name="Path 82" class="cls-1" d="M57.652,118.8a2.755,2.755,0,0,0-2.752-2.752H49.763a17.28,17.28,0,0,0,1.055-6.569,7.837,7.837,0,0,0-.049-.791,2.752,2.752,0,0,0-5.5.066v.688c0,4.352-5.588,6.8-9.806,7.846a2.067,2.067,0,0,0-1.892-1.24H26.688a.688.688,0,0,0-.688.688v16.514a.688.688,0,0,0,.688.688h6.881a2.067,2.067,0,0,0,1.885-1.225q.524.134.973.252a22.318,22.318,0,0,0,6.944.973h7.4a2.751,2.751,0,0,0,2.287-4.283,2.761,2.761,0,0,0,1.381-4.13A2.752,2.752,0,0,0,55.81,121.4,2.753,2.753,0,0,0,57.652,118.8Zm-23.4,13.074a.689.689,0,0,1-.688.688H27.376V117.422h6.193a.689.689,0,0,1,.688.688Zm20.643-11.7h-3.44a.688.688,0,0,0,0,1.376h2.064a1.376,1.376,0,1,1,0,2.752h-3.44a.688.688,0,1,0,0,1.376h2.064a1.376,1.376,0,0,1,0,2.752h-3.44a.688.688,0,0,0,0,1.376h2.064a1.376,1.376,0,1,1,0,2.752h-7.4a20.992,20.992,0,0,1-6.6-.928q-.52-.136-1.142-.3V118.663c4.98-1.186,11.009-4.081,11.009-9.222v-.688a1.376,1.376,0,0,1,2.752,0v0a16.152,16.152,0,0,1-1.123,7.294H45.955a.688.688,0,1,0,0,1.376H54.9a1.376,1.376,0,1,1,0,2.752Z" transform="translate(-26 -106)"/>
      </g>
    </g>
    <g id="Group_55" data-name="Group 55" transform="translate(31.505 24.221)">
      <g id="Group_54" data-name="Group 54" transform="translate(0)">
        <path id="Path_83" data-name="Path 83" class="cls-1" d="M106.688,352a.688.688,0,0,0-.688.688v5.5a.688.688,0,1,0,1.376,0v-5.5A.688.688,0,0,0,106.688,352Z" transform="translate(-106 -352)"/>
      </g>
    </g>
    <g id="Group_57" data-name="Group 57" transform="translate(39.074 8.67)">
      <g id="Group_56" data-name="Group 56">
        <path id="Path_84" data-name="Path 84" class="cls-1" d="M219.44,126h-2.752a.688.688,0,0,0,0,1.376h2.752a.688.688,0,0,0,0-1.376Z" transform="translate(-216 -126)"/>
      </g>
    </g>
    <g id="Group_59" data-name="Group 59" transform="translate(52.835 8.67)">
      <g id="Group_58" data-name="Group 58">
        <path id="Path_85" data-name="Path 85" class="cls-1" d="M419.44,126h-2.752a.688.688,0,0,0,0,1.376h2.752a.688.688,0,0,0,0-1.376Z" transform="translate(-416 -126)"/>
      </g>
    </g>
    <g id="Group_61" data-name="Group 61" transform="translate(51.223 2.832)">
      <g id="Group_60" data-name="Group 60">
        <path id="Path_86" data-name="Path 86" class="cls-1" d="M395.691,41.352a.688.688,0,0,0-.973,0L392.772,43.3a.688.688,0,1,0,.973.973l1.946-1.946A.688.688,0,0,0,395.691,41.352Z" transform="translate(-392.57 -41.151)"/>
      </g>
    </g>
    <g id="Group_63" data-name="Group 63" transform="translate(41.492 2.832)">
      <g id="Group_62" data-name="Group 62" transform="translate(0)">
        <path id="Path_87" data-name="Path 87" class="cls-1" d="M254.271,43.3l-1.946-1.946a.688.688,0,1,0-.973.973l1.946,1.946a.688.688,0,0,0,.973-.973Z" transform="translate(-251.15 -41.151)"/>
      </g>
    </g>
  </g>
</svg>
