<svg xmlns="http://www.w3.org/2000/svg" viewBox="0 0 37.271 35.912">
  <defs>
    <style>
      .cls-1 {
        fill: #1fa1af;
      }
    </style>
  </defs>
  <g id="map-location" transform="translate(0 -1.002)">
    <path id="Path_47" data-name="Path 47" class="cls-1" d="M35.016,23.013H27.632a.677.677,0,1,0,0,1.355H33.8l1.964,18.291H1.536L3.842,24.368h6.177a.677.677,0,1,0,0-1.355H2.647L0,44.014H37.271Z" transform="translate(0 -7.1)"/>
    <path id="Path_48" data-name="Path 48" class="cls-1" d="M23.15,26.722c-.1.059-.206.111-.3.173-.149.1-.295.2-.438.3a.678.678,0,0,0,.8,1.093c.121-.089.243-.174.371-.257a7.447,7.447,0,0,1,.687-.394.673.673,0,0,0,.313-.86c.005-.005.012-.009.017-.015A30.35,30.35,0,0,0,31.666,12.5,13.923,13.923,0,0,0,31.9,7.811C31.315,3.357,28.548,1,23.895,1s-7.419,2.355-8,6.809a13.94,13.94,0,0,0,.232,4.687A30.4,30.4,0,0,0,23.15,26.722ZM17.235,7.988c.5-3.788,2.675-5.63,6.66-5.63s6.163,1.842,6.659,5.63a12.61,12.61,0,0,1-.214,4.232A29.806,29.806,0,0,1,23.9,25.529,29.813,29.813,0,0,1,17.45,12.22,12.61,12.61,0,0,1,17.235,7.988Z" transform="translate(-5.093)"/>
    <path id="Path_49" data-name="Path 49" class="cls-1" d="M25.386,15.186a4.977,4.977,0,1,0-4.977-4.977A4.982,4.982,0,0,0,25.386,15.186Zm0-8.6a3.622,3.622,0,1,1-3.622,3.622A3.626,3.626,0,0,1,25.386,6.589Z" transform="translate(-6.583 -1.365)"/>
    <path id="Path_50" data-name="Path 50" class="cls-1" d="M31.173,37.057a.678.678,0,0,0,.283,1.325c.4-.084.827-.155,1.278-.212a.677.677,0,0,0-.167-1.344C32.077,36.886,31.608,36.964,31.173,37.057Z" transform="translate(-9.882 -11.553)"/>
    <path id="Path_51" data-name="Path 51" class="cls-1" d="M36.6,37.213a.677.677,0,0,0,.676.648h.03L38.66,37.8a.677.677,0,0,0,.646-.707.694.694,0,0,0-.707-.646l-1.352.056A.676.676,0,0,0,36.6,37.213Z" transform="translate(-11.805 -11.434)"/>
    <path id="Path_52" data-name="Path 52" class="cls-1" d="M21.776,42.112c-.348.263-.708.516-1.07.75A.678.678,0,0,0,21.444,44c.388-.252.775-.523,1.148-.8a.678.678,0,1,0-.816-1.082Z" transform="translate(-6.579 -13.216)"/>
    <path id="Path_53" data-name="Path 53" class="cls-1" d="M44.028,35.5a2.414,2.414,0,0,1-.912.356.678.678,0,1,0,.274,1.327,3.726,3.726,0,0,0,1.42-.578l.091-.066a.678.678,0,0,0-.818-1.081Z" transform="translate(-13.733 -11.069)"/>
    <path id="Path_54" data-name="Path 54" class="cls-1" d="M8.162,42.995a.677.677,0,0,0-1.307-.354,4.531,4.531,0,0,0-.152.952c0,.078-.005.156-.005.239,0,.133.007.266.02.4a.677.677,0,0,0,.673.608c.022,0,.045,0,.07,0a.679.679,0,0,0,.606-.743c-.009-.089-.013-.179-.014-.264,0-.056,0-.112,0-.168A3.156,3.156,0,0,1,8.162,42.995Z" transform="translate(-2.16 -13.269)"/>
    <path id="Path_55" data-name="Path 55" class="cls-1" d="M43.693,27.794a3.984,3.984,0,0,0-1.616.123.677.677,0,0,0,.184,1.329.661.661,0,0,0,.184-.026,2.644,2.644,0,0,1,1.067-.083.678.678,0,0,0,.182-1.343Z" transform="translate(-13.413 -8.631)"/>
    <path id="Path_56" data-name="Path 56" class="cls-1" d="M46.658,31.9a.677.677,0,0,0,.447.847.663.663,0,0,0,.2.03.676.676,0,0,0,.647-.478,2.886,2.886,0,0,0,.124-.652c0-.056.005-.113.005-.169a2.7,2.7,0,0,0-.173-.943.677.677,0,0,0-1.27.471,1.358,1.358,0,0,1,.088.472l0,.079A1.528,1.528,0,0,1,46.658,31.9Z" transform="translate(-15.03 -9.384)"/>
    <path id="Path_57" data-name="Path 57" class="cls-1" d="M16.7,45.133c-.4.186-.8.359-1.2.514a.678.678,0,0,0,.245,1.31.67.67,0,0,0,.244-.045c.43-.166.864-.352,1.289-.551a.678.678,0,0,0-.576-1.228Z" transform="translate(-4.86 -14.214)"/>
    <path id="Path_58" data-name="Path 58" class="cls-1" d="M9.878,40.22a.677.677,0,0,0,.324-.083,1.657,1.657,0,0,1,.617-.2,1.1,1.1,0,0,1,.275,0,.677.677,0,0,0,.177-1.343,2.5,2.5,0,0,0-.6-.005,3.011,3.011,0,0,0-1.115.353.678.678,0,0,0,.325,1.272Z" transform="translate(-2.967 -12.12)"/>
    <path id="Path_59" data-name="Path 59" class="cls-1" d="M9.752,48.207a3.356,3.356,0,0,0,.443.084,4.327,4.327,0,0,0,.521.032,5.026,5.026,0,0,0,.637-.042.677.677,0,1,0-.169-1.344,3.32,3.32,0,0,1-.824.01,2.259,2.259,0,0,1-.267-.051.677.677,0,1,0-.341,1.311Z" transform="translate(-2.982 -14.796)"/>
  </g>
</svg>
