<svg xmlns="http://www.w3.org/2000/svg" viewBox="0 0 26.918 37.034">
  <defs>
    <style>
      .cls-1 {
        fill: #1fa1af;
      }
    </style>
  </defs>
  <g id="passport" transform="translate(-69.932)">
    <g id="Group_29" data-name="Group 29" transform="translate(69.932 0)">
      <g id="Group_28" data-name="Group 28">
        <path id="Path_40" data-name="Path 40" class="cls-1" d="M96.14.487A2.028,2.028,0,0,0,94.506.024L71.924,3.559a.721.721,0,0,0-.23.078,2.4,2.4,0,0,0-1.762,2.311V34.637a2.4,2.4,0,0,0,2.4,2.4H91.3A2.032,2.032,0,0,0,93.332,35V33.5l1.808-.288a2.02,2.02,0,0,0,1.71-2V2.029A2.027,2.027,0,0,0,96.14.487ZM91.885,32.264V35a.583.583,0,0,1-.583.583H72.33a.952.952,0,0,1-.951-.951V5.948A.952.952,0,0,1,72.33,5H91.3a.583.583,0,0,1,.583.583ZM95.4,31.206h0a.58.58,0,0,1-.491.575l-1.58.252V5.58A2.032,2.032,0,0,0,91.3,3.551H81.333l13.4-2.1a.583.583,0,0,1,.673.576V31.206Z" transform="translate(-69.932 0)"/>
      </g>
    </g>
    <g id="Group_31" data-name="Group 31" transform="translate(73.498 6.197)">
      <g id="Group_30" data-name="Group 30" transform="translate(0)">
        <path id="Path_41" data-name="Path 41" class="cls-1" d="M134.963,90.909c-.035-.092-.073-.186-.112-.278a.723.723,0,1,0-1.332.564c.032.076.063.153.092.229a6.7,6.7,0,0,1-1.113,6.668l-5.136,6.157-5.136-6.157A6.689,6.689,0,0,1,129.851,87.6a.723.723,0,0,0,.538-1.343,8.135,8.135,0,0,0-9.273,12.762l5.691,6.823a.723.723,0,0,0,1.111,0l5.691-6.823A8.148,8.148,0,0,0,134.963,90.909Z" transform="translate(-119.228 -85.673)"/>
      </g>
    </g>
    <g id="Group_33" data-name="Group 33" transform="translate(76.323 28.188)">
      <g id="Group_32" data-name="Group 32">
        <path id="Path_42" data-name="Path 42" class="cls-1" d="M168.186,389.7h-9.17a.723.723,0,1,0,0,1.447h9.17a.723.723,0,0,0,0-1.447Z" transform="translate(-158.292 -389.704)"/>
      </g>
    </g>
    <g id="Group_35" data-name="Group 35" transform="translate(88.532 31.634)">
      <g id="Group_34" data-name="Group 34" transform="translate(0)">
        <path id="Path_43" data-name="Path 43" class="cls-1" d="M328.513,437.917a.679.679,0,0,0-.041-.135.715.715,0,0,0-.067-.125.687.687,0,0,0-.09-.11.694.694,0,0,0-.11-.09.72.72,0,0,0-.125-.067.668.668,0,0,0-.135-.041.712.712,0,0,0-.283,0,.7.7,0,0,0-.135.041.739.739,0,0,0-.124.067.694.694,0,0,0-.11.09.736.736,0,0,0-.09.11.71.71,0,0,0-.067.125.73.73,0,0,0-.041.135.731.731,0,0,0,0,.282.753.753,0,0,0,.041.136.734.734,0,0,0,.067.124l.013.018a.745.745,0,0,0,.077.092.7.7,0,0,0,.234.156.769.769,0,0,0,.135.042.725.725,0,0,0,.142.014.717.717,0,0,0,.141-.014.73.73,0,0,0,.135-.042.713.713,0,0,0,.125-.066.734.734,0,0,0,.11-.09.7.7,0,0,0,.09-.11.743.743,0,0,0,.067-.124c.008-.02.015-.041.022-.061a.747.747,0,0,0,.019-.075.695.695,0,0,0,0-.282Z" transform="translate(-327.081 -437.335)"/>
      </g>
    </g>
    <g id="Group_37" data-name="Group 37" transform="translate(73.285 31.633)">
      <g id="Group_36" data-name="Group 36" transform="translate(0)">
        <path id="Path_44" data-name="Path 44" class="cls-1" d="M129.345,437.331H117.008a.723.723,0,0,0,0,1.447h12.336a.723.723,0,1,0,0-1.447Z" transform="translate(-116.285 -437.331)"/>
      </g>
    </g>
    <g id="Group_39" data-name="Group 39" transform="translate(76.299 9.257)">
      <g id="Group_38" data-name="Group 38" transform="translate(0)">
        <path id="Path_45" data-name="Path 45" class="cls-1" d="M168.615,133.312s0-.008,0-.012a5.339,5.339,0,0,0-5.313-5.318h-.02a5.339,5.339,0,0,0-5.333,5.333s0,0,0,.007,0,.011,0,.017a5.333,5.333,0,0,0,10.666-.024Zm-9.187-.49a3.9,3.9,0,0,1,2.748-3.233,12.211,12.211,0,0,0-.578,3.736A10.666,10.666,0,0,1,159.428,132.822Zm.117,1.555a12.077,12.077,0,0,0,2.144.414,12.176,12.176,0,0,0,.494,2.251A3.9,3.9,0,0,1,159.545,134.377Zm4.218,2.793a10.71,10.71,0,0,1-.607-2.322,12.161,12.161,0,0,0,2.293-.269l1.61-.346A3.9,3.9,0,0,1,163.762,137.17Zm1.382-4.005a10.709,10.709,0,0,1-2.1.237,10.743,10.743,0,0,1,.71-3.944,3.894,3.894,0,0,1,3.371,3.281Z" transform="translate(-157.949 -127.981)"/>
      </g>
    </g>
    <g id="Group_41" data-name="Group 41" transform="translate(86.149 8.37)">
      <g id="Group_40" data-name="Group 40">
        <path id="Path_46" data-name="Path 46" class="cls-1" d="M295.563,116.293a.766.766,0,0,0-.041-.135.731.731,0,0,0-.067-.124.688.688,0,0,0-.09-.11.713.713,0,0,0-.235-.157.731.731,0,0,0-.135-.041.713.713,0,0,0-.283,0,.73.73,0,0,0-.135.041.776.776,0,0,0-.125.067.826.826,0,0,0-.11.09.741.741,0,0,0-.09.11.731.731,0,0,0-.067.124.762.762,0,0,0-.041.135.719.719,0,0,0-.014.142.712.712,0,0,0,.014.141.729.729,0,0,0,.041.135.713.713,0,0,0,.067.125.741.741,0,0,0,.09.11.727.727,0,0,0,.235.156.734.734,0,0,0,.277.056.713.713,0,0,0,.141-.014.731.731,0,0,0,.135-.041.771.771,0,0,0,.125-.067.725.725,0,0,0,.11-.09.688.688,0,0,0,.09-.11.713.713,0,0,0,.067-.125.733.733,0,0,0,.041-.135.713.713,0,0,0,.014-.141A.72.72,0,0,0,295.563,116.293Z" transform="translate(-294.131 -115.711)"/>
      </g>
    </g>
  </g>
</svg>
