<svg id="Group_43" data-name="Group 43" xmlns="http://www.w3.org/2000/svg" viewBox="0 0 43.255 36.484">
  <defs>
    <style>
      .cls-1 {
        fill: #1fa1af;
      }
    </style>
  </defs>
  <g id="Group_42" data-name="Group 42">
    <path id="Path_77" data-name="Path 77" class="cls-1" d="M42.621,75.293H41.9V73.217a.634.634,0,0,0-.634-.634h-.721V56.243h.721a.634.634,0,0,0,.634-.634v-1.5a1.988,1.988,0,0,0,.28-3.65L22.541,40.3a1.987,1.987,0,0,0-1.827,0L1.075,50.457a1.987,1.987,0,0,0,.28,3.649v1.5a.634.634,0,0,0,.634.634h.721V72.584H1.988a.634.634,0,0,0-.634.634v2.075H.634a.634.634,0,1,0,0,1.267H42.621a.634.634,0,1,0,0-1.267ZM1.77,52.91a.721.721,0,0,1-.114-1.328L21.3,41.424a.719.719,0,0,1,.662,0L41.6,51.582a.721.721,0,0,1-.332,1.361.71.71,0,0,1-.33-.081L21.918,43.027a.634.634,0,0,0-.582,0L2.318,52.863A.713.713,0,0,1,1.77,52.91Zm.851,2.066v-.869a2.015,2.015,0,0,0,.28-.118l.878-.454H30.432a.634.634,0,0,0,0-1.267H6.23l15.4-7.964,15.4,7.964H33.14a.634.634,0,1,0,0,1.267h6.335l.877.454a1.981,1.981,0,0,0,.28.118v.87Zm36.657,1.267V72.584H37.837V56.243Zm-4.107,8.214a2.649,2.649,0,0,0-1.4.4v-5.9h2.8v5.9A2.649,2.649,0,0,0,35.172,64.457Zm1.4,2.667v5.46h-2.8V67.121a1.4,1.4,0,0,1,2.8,0Zm-2.8-9.439V56.243h2.8v1.442Zm-1.267,9.439v5.46H31.065V56.243h1.442V67.119s0,0,0,0ZM28.4,64.457a2.648,2.648,0,0,0-1.4.4v-5.9h2.8v5.9A2.649,2.649,0,0,0,28.4,64.457Zm1.4,2.665v5.461H27V67.121a1.4,1.4,0,0,1,2.8,0ZM27,57.685V56.243h2.8v1.442Zm-1.267.635v8.8s0,0,0,0v5.461H24.293V56.243h1.442V58.32Zm-4.107,6.137a2.649,2.649,0,0,0-1.4.4v-5.9h2.8v5.9A2.649,2.649,0,0,0,21.627,64.457Zm1.4,2.667v5.46h-2.8V67.122a1.4,1.4,0,1,1,2.8,0Zm-2.8-9.439V56.243h2.8v1.442Zm-1.267-1.442V72.584H17.521V56.243Zm-4.107,8.214a2.649,2.649,0,0,0-1.4.4v-5.9h2.8v5.9A2.649,2.649,0,0,0,14.855,64.457Zm1.4,2.665v5.461h-2.8V67.121a1.4,1.4,0,0,1,2.8,0Zm-2.8-9.437V56.243h2.8v1.442ZM12.19,67.124v5.46H10.748V56.243H12.19V67.119s0,0,0,0Zm-5.5-9.439V56.243h2.8v1.442Zm2.8,1.267v5.9a2.658,2.658,0,0,0-2.8,0v-5.9ZM5.418,56.243V72.584H3.976V56.243ZM40.633,75.292H2.622V73.851H7.406a.634.634,0,1,0,0-1.267H6.685V67.122a1.4,1.4,0,1,1,2.8,0v6.095a.634.634,0,0,0,.634.634H40.633Z" transform="translate(0 -40.076)"/>
  </g>
</svg>
