<svg id="vaccine" xmlns="http://www.w3.org/2000/svg" viewBox="0 0 25.534 38.301">
  <defs>
    <style>
      .cls-1 {
        fill: #1fa1af;
      }
    </style>
  </defs>
  <path id="Path_31" data-name="Path 31" class="cls-1" d="M3.192,101.745H2.553C1.1,101.745,0,103.117,0,104.937v19.789a1.915,1.915,0,0,0,1.915,1.915H12.129a1.915,1.915,0,0,0,1.915-1.915V104.937c0-1.82-1.1-3.192-2.553-3.192h-.638V99.862a1.325,1.325,0,0,0-.025-.255,2.11,2.11,0,0,0,.663-1.692c0-1.109-.537-1.915-1.277-1.915H3.83c-.74,0-1.277.806-1.277,1.915a2.109,2.109,0,0,0,.663,1.692,1.325,1.325,0,0,0-.025.255Zm.638,8.3h6.384v6.384H3.83Zm7.66,7.66v-7.66h1.277v10.214H1.277V110.044H2.553v7.66Zm-7.66,7.66a1.277,1.277,0,0,1,1.277-1.277h3.83a1.277,1.277,0,0,1,1.277,1.277Zm8.937-.7a1.382,1.382,0,0,1-.638.7H11.49a2.554,2.554,0,0,0-2.553-2.553H5.107a2.554,2.554,0,0,0-2.553,2.553H1.942a1.337,1.337,0,0,1-.666-.7v-3.128h11.49ZM1.277,108.767v-1.915h11.49v1.915Zm10.214-5.745c.716,0,1.277.841,1.277,1.915v.638H1.277v-.638c0-1.074.561-1.915,1.277-1.915h.638a1.263,1.263,0,0,0,1.277-1.277V99.83l5.107.032v1.883a1.263,1.263,0,0,0,1.277,1.277ZM3.958,97.277h6.128a1.635,1.635,0,0,1,0,1.277H3.958A1.635,1.635,0,0,1,3.958,97.277Zm0,0" transform="translate(0 -88.34)"/>
  <path id="Path_32" data-name="Path 32" class="cls-1" d="M211.83,0V6.384h-.638a.638.638,0,0,0-.638.638v3.192a.638.638,0,0,0-.638.638V29.364h-1.277A.638.638,0,0,0,208,30v2.553a.638.638,0,0,0,.638.638h1.915v3.83h-1.915V38.3h7.66V37.024h-1.915v-3.83H216.3a.638.638,0,0,0,.638-.638V30a.638.638,0,0,0-.638-.638h-1.277V10.852a.638.638,0,0,0-.638-.638V7.022a.638.638,0,0,0-.638-.638h-.638V0Zm1.915,12.767h-2.553V11.49h2.553Zm-.638,24.257H211.83v-3.83h1.277Zm2.553-5.107h-6.384V30.641h6.384Zm-4.468-2.553V26.811h1.277V25.534h-1.277V24.257h1.277V22.981h-1.277V21.7h1.277V20.427h-1.277V19.151h1.277V17.874h-1.277v-3.83h2.553v15.32Zm.638-19.151V7.66h1.277v2.553Zm0,0" transform="translate(-191.403)"/>
  <path id="Path_33" data-name="Path 33" class="cls-1" d="M67.83,289.277H66.553V288H65.277v1.277H64v1.277h1.277v1.277h1.277v-1.277H67.83Zm0,0" transform="translate(-58.893 -265.019)"/>
</svg>
